0
SECTION
2
HEADER
9
$INSUNITS
70
4
0
ENDSEC
0
SECTION
2
TABLES
0
TABLE
2
LTYPE
0
LTYPE
72
65
70
64
2
CONTINUOUS
3
______
73
0
40
0
0
ENDTAB
0
TABLE
2
LAYER
0
ENDTAB
0
ENDSEC
0
SECTION
2
ENTITIES
0
LINE
8
0
10
60.12357
20
-128.1787085
11
77.027272
21
-132.7080418
0
LINE
8
0
10
77.027272
20
-132.7080418
11
81.2977862
21
-116.7702657
0
LINE
8
0
10
81.2977862
20
-116.7702657
11
64.3940842
21
-112.2409324
0
LINE
8
0
10
64.3940842
20
-112.2409324
11
60.12357
21
-128.1787085
0
LINE
8
0
10
78.286692
20
-129.9396739
11
95.190394
21
-134.4690072
0
LINE
8
0
10
95.190394
20
-134.4690072
11
99.4609082
21
-118.5312311
0
LINE
8
0
10
99.4609082
20
-118.5312311
11
82.5572062
21
-114.0018978
0
LINE
8
0
10
82.5572062
20
-114.0018978
11
78.286692
21
-129.9396739
0
LINE
8
0
10
96.449814
20
-131.7006392
11
113.353516
21
-136.2299725
0
LINE
8
0
10
113.353516
20
-136.2299725
11
117.6240302
21
-120.2921964
0
LINE
8
0
10
117.6240302
20
-120.2921964
11
100.7203282
21
-115.7628631
0
LINE
8
0
10
100.7203282
20
-115.7628631
11
96.449814
21
-131.7006392
0
LINE
8
0
10
113.0600218
20
-139.2571595
11
129.9637238
21
-143.7864928
0
LINE
8
0
10
129.9637238
20
-143.7864928
11
134.234238
21
-127.8487167
0
LINE
8
0
10
134.234238
20
-127.8487167
11
117.330536
21
-123.3193834
0
LINE
8
0
10
117.330536
20
-123.3193834
11
113.0600218
21
-139.2571595
0
LINE
8
0
10
80.0934462
20
-181.152325
11
96.9971482
21
-185.6816583
0
LINE
8
0
10
96.9971482
20
-185.6816583
11
101.2676624
21
-169.7438822
0
LINE
8
0
10
101.2676624
20
-169.7438822
11
84.3639604
21
-165.2145489
0
LINE
8
0
10
84.3639604
20
-165.2145489
11
80.0934462
21
-181.152325
0
LINE
8
0
10
97.4801111
20
-185.8110678
11
114.3838131
21
-190.3404011
0
LINE
8
0
10
114.3838131
20
-190.3404011
11
118.6543273
21
-174.402625
0
LINE
8
0
10
118.6543273
20
-174.402625
11
101.7506253
21
-169.8732917
0
LINE
8
0
10
101.7506253
20
-169.8732917
11
97.4801111
21
-185.8110678
0
LINE
8
0
10
101.8800349
20
-169.3903288
11
118.7837369
21
-173.9196621
0
LINE
8
0
10
118.7837369
20
-173.9196621
11
123.0542511
21
-157.981886
0
LINE
8
0
10
123.0542511
20
-157.981886
11
106.1505491
21
-153.4525527
0
LINE
8
0
10
106.1505491
20
-153.4525527
11
101.8800349
21
-169.3903288
0
LINE
8
0
10
114.8667759
20
-190.4698106
11
131.7704779
21
-194.9991439
0
LINE
8
0
10
131.7704779
20
-194.9991439
11
136.0409921
21
-179.0613678
0
LINE
8
0
10
136.0409921
20
-179.0613678
11
119.1372901
21
-174.5320345
0
LINE
8
0
10
119.1372901
20
-174.5320345
11
114.8667759
21
-190.4698106
0
LINE
8
0
10
143.25
20
-178.25
11
160.75
21
-178.25
0
LINE
8
0
10
160.75
20
-178.25
11
160.75
21
-161.75
0
LINE
8
0
10
160.75
20
-161.75
11
143.25
21
-161.75
0
LINE
8
0
10
143.25
20
-161.75
11
143.25
21
-178.25
0
LINE
8
0
10
226.2669878
20
-132.7080418
11
243.1706898
21
-128.1787085
0
LINE
8
0
10
243.1706898
20
-128.1787085
11
238.9001756
21
-112.2409324
0
LINE
8
0
10
238.9001756
20
-112.2409324
11
221.9964736
21
-116.7702657
0
LINE
8
0
10
221.9964736
20
-116.7702657
11
226.2669878
21
-132.7080418
0
LINE
8
0
10
208.1038658
20
-134.4690072
11
225.0075678
21
-129.9396739
0
LINE
8
0
10
225.0075678
20
-129.9396739
11
220.7370536
21
-114.0018978
0
LINE
8
0
10
220.7370536
20
-114.0018978
11
203.8333516
21
-118.5312311
0
LINE
8
0
10
203.8333516
20
-118.5312311
11
208.1038658
21
-134.4690072
0
LINE
8
0
10
189.9407438
20
-136.2299725
11
206.8444458
21
-131.7006392
0
LINE
8
0
10
206.8444458
20
-131.7006392
11
202.5739316
21
-115.7628631
0
LINE
8
0
10
202.5739316
20
-115.7628631
11
185.6702296
21
-120.2921964
0
LINE
8
0
10
185.6702296
20
-120.2921964
11
189.9407438
21
-136.2299725
0
LINE
8
0
10
173.330536
20
-143.7864928
11
190.234238
21
-139.2571595
0
LINE
8
0
10
190.234238
20
-139.2571595
11
185.9637238
21
-123.3193834
0
LINE
8
0
10
185.9637238
20
-123.3193834
11
169.0600218
21
-127.8487167
0
LINE
8
0
10
169.0600218
20
-127.8487167
11
173.330536
21
-143.7864928
0
LINE
8
0
10
206.2971116
20
-185.6816583
11
223.2008136
21
-181.152325
0
LINE
8
0
10
223.2008136
20
-181.152325
11
218.9302994
21
-165.2145489
0
LINE
8
0
10
218.9302994
20
-165.2145489
11
202.0265974
21
-169.7438822
0
LINE
8
0
10
202.0265974
20
-169.7438822
11
206.2971116
21
-185.6816583
0
LINE
8
0
10
188.9104467
20
-190.3404011
11
205.8141487
21
-185.8110678
0
LINE
8
0
10
205.8141487
20
-185.8110678
11
201.5436345
21
-169.8732917
0
LINE
8
0
10
201.5436345
20
-169.8732917
11
184.6399325
21
-174.402625
0
LINE
8
0
10
184.6399325
20
-174.402625
11
188.9104467
21
-190.3404011
0
LINE
8
0
10
184.5105229
20
-173.9196621
11
201.4142249
21
-169.3903288
0
LINE
8
0
10
201.4142249
20
-169.3903288
11
197.1437107
21
-153.4525527
0
LINE
8
0
10
197.1437107
20
-153.4525527
11
180.2400087
21
-157.981886
0
LINE
8
0
10
180.2400087
20
-157.981886
11
184.5105229
21
-173.9196621
0
LINE
8
0
10
171.5237819
20
-194.9991439
11
188.4274839
21
-190.4698106
0
LINE
8
0
10
188.4274839
20
-190.4698106
11
184.1569697
21
-174.5320345
0
LINE
8
0
10
184.1569697
20
-174.5320345
11
167.2532677
21
-179.0613678
0
LINE
8
0
10
167.2532677
20
-179.0613678
11
171.5237819
21
-194.9991439
0
ENDSEC
0
EOF