0
SECTION
2
HEADER
9
$INSUNITS
70
4
0
ENDSEC
0
SECTION
2
TABLES
0
TABLE
2
LTYPE
0
LTYPE
72
65
70
64
2
CONTINUOUS
3
______
73
0
40
0
0
ENDTAB
0
TABLE
2
LAYER
0
ENDTAB
0
ENDSEC
0
SECTION
2
ENTITIES
0
LINE
8
0
10
60.12357
20
-128.1787085
11
77.027272
21
-132.7080418
0
LINE
8
0
10
77.027272
20
-132.7080418
11
81.2977862
21
-116.7702657
0
LINE
8
0
10
81.2977862
20
-116.7702657
11
64.3940842
21
-112.2409324
0
LINE
8
0
10
64.3940842
20
-112.2409324
11
60.12357
21
-128.1787085
0
LINE
8
0
10
64.5234938
20
-111.7579695
11
81.4271958
21
-116.2873028
0
LINE
8
0
10
81.4271958
20
-116.2873028
11
85.69771
21
-100.3495267
0
LINE
8
0
10
85.69771
20
-100.3495267
11
68.794008
21
-95.8201934
0
LINE
8
0
10
68.794008
20
-95.8201934
11
64.5234938
21
-111.7579695
0
LINE
8
0
10
78.286692
20
-129.9396739
11
95.190394
21
-134.4690072
0
LINE
8
0
10
95.190394
20
-134.4690072
11
99.4609082
21
-118.5312311
0
LINE
8
0
10
99.4609082
20
-118.5312311
11
82.5572062
21
-114.0018978
0
LINE
8
0
10
82.5572062
20
-114.0018978
11
78.286692
21
-129.9396739
0
LINE
8
0
10
82.6866158
20
-113.5189348
11
99.5903178
21
-118.0482681
0
LINE
8
0
10
99.5903178
20
-118.0482681
11
103.860832
21
-102.110492
0
LINE
8
0
10
103.860832
20
-102.110492
11
86.95713
21
-97.5811587
0
LINE
8
0
10
86.95713
20
-97.5811587
11
82.6866158
21
-113.5189348
0
LINE
8
0
10
96.449814
20
-131.7006392
11
113.353516
21
-136.2299725
0
LINE
8
0
10
113.353516
20
-136.2299725
11
117.6240302
21
-120.2921964
0
LINE
8
0
10
117.6240302
20
-120.2921964
11
100.7203282
21
-115.7628631
0
LINE
8
0
10
100.7203282
20
-115.7628631
11
96.449814
21
-131.7006392
0
LINE
8
0
10
100.8497378
20
-115.2799002
11
117.7534398
21
-119.8092335
0
LINE
8
0
10
117.7534398
20
-119.8092335
11
122.023954
21
-103.8714574
0
LINE
8
0
10
122.023954
20
-103.8714574
11
105.120252
21
-99.3421241
0
LINE
8
0
10
105.120252
20
-99.3421241
11
100.8497378
21
-115.2799002
0
LINE
8
0
10
113.0600218
20
-139.2571595
11
129.9637238
21
-143.7864928
0
LINE
8
0
10
129.9637238
20
-143.7864928
11
134.234238
21
-127.8487167
0
LINE
8
0
10
134.234238
20
-127.8487167
11
117.330536
21
-123.3193834
0
LINE
8
0
10
117.330536
20
-123.3193834
11
113.0600218
21
-139.2571595
0
LINE
8
0
10
117.4599455
20
-122.8364204
11
134.3636475
21
-127.3657537
0
LINE
8
0
10
134.3636475
20
-127.3657537
11
138.6341617
21
-111.4279776
0
LINE
8
0
10
138.6341617
20
-111.4279776
11
121.7304597
21
-106.8986443
0
LINE
8
0
10
121.7304597
20
-106.8986443
11
117.4599455
21
-122.8364204
0
LINE
8
0
10
79.05817
20
-185.0160283
11
95.961872
21
-189.5453616
0
LINE
8
0
10
95.961872
20
-189.5453616
11
100.2323862
21
-173.6075855
0
LINE
8
0
10
100.2323862
20
-173.6075855
11
83.3286842
21
-169.0782522
0
LINE
8
0
10
83.3286842
20
-169.0782522
11
79.05817
21
-185.0160283
0
LINE
8
0
10
96.4448349
20
-189.6747711
11
113.3485369
21
-194.2041044
0
LINE
8
0
10
113.3485369
20
-194.2041044
11
117.6190511
21
-178.2663283
0
LINE
8
0
10
117.6190511
20
-178.2663283
11
100.7153491
21
-173.736995
0
LINE
8
0
10
100.7153491
20
-173.736995
11
96.4448349
21
-189.6747711
0
LINE
8
0
10
100.8447587
20
-173.2540321
11
117.7484607
21
-177.7833654
0
LINE
8
0
10
117.7484607
20
-177.7833654
11
122.0189749
21
-161.8455893
0
LINE
8
0
10
122.0189749
20
-161.8455893
11
105.1152729
21
-157.316256
0
LINE
8
0
10
105.1152729
20
-157.316256
11
100.8447587
21
-173.2540321
0
LINE
8
0
10
113.8314997
20
-194.3335139
11
130.7352017
21
-198.8628472
0
LINE
8
0
10
130.7352017
20
-198.8628472
11
135.0057159
21
-182.9250711
0
LINE
8
0
10
135.0057159
20
-182.9250711
11
118.1020139
21
-178.3957378
0
LINE
8
0
10
118.1020139
20
-178.3957378
11
113.8314997
21
-194.3335139
0
LINE
8
0
10
147.25
20
-178.25
11
164.75
21
-178.25
0
LINE
8
0
10
164.75
20
-178.25
11
164.75
21
-161.75
0
LINE
8
0
10
164.75
20
-161.75
11
147.25
21
-161.75
0
LINE
8
0
10
147.25
20
-161.75
11
147.25
21
-178.25
0
LINE
8
0
10
235.0668352
20
-132.7080418
11
251.9705372
21
-128.1787085
0
LINE
8
0
10
251.9705372
20
-128.1787085
11
247.700023
21
-112.2409324
0
LINE
8
0
10
247.700023
20
-112.2409324
11
230.796321
21
-116.7702657
0
LINE
8
0
10
230.796321
20
-116.7702657
11
235.0668352
21
-132.7080418
0
LINE
8
0
10
230.6669114
20
-116.2873028
11
247.5706134
21
-111.7579695
0
LINE
8
0
10
247.5706134
20
-111.7579695
11
243.3000992
21
-95.8201934
0
LINE
8
0
10
243.3000992
20
-95.8201934
11
226.3963972
21
-100.3495267
0
LINE
8
0
10
226.3963972
20
-100.3495267
11
230.6669114
21
-116.2873028
0
LINE
8
0
10
216.9037132
20
-134.4690072
11
233.8074152
21
-129.9396739
0
LINE
8
0
10
233.8074152
20
-129.9396739
11
229.536901
21
-114.0018978
0
LINE
8
0
10
229.536901
20
-114.0018978
11
212.633199
21
-118.5312311
0
LINE
8
0
10
212.633199
20
-118.5312311
11
216.9037132
21
-134.4690072
0
LINE
8
0
10
212.5037894
20
-118.0482681
11
229.4074914
21
-113.5189348
0
LINE
8
0
10
229.4074914
20
-113.5189348
11
225.1369772
21
-97.5811587
0
LINE
8
0
10
225.1369772
20
-97.5811587
11
208.2332752
21
-102.110492
0
LINE
8
0
10
208.2332752
20
-102.110492
11
212.5037894
21
-118.0482681
0
LINE
8
0
10
198.7405912
20
-136.2299725
11
215.6442932
21
-131.7006392
0
LINE
8
0
10
215.6442932
20
-131.7006392
11
211.373779
21
-115.7628631
0
LINE
8
0
10
211.373779
20
-115.7628631
11
194.470077
21
-120.2921964
0
LINE
8
0
10
194.470077
20
-120.2921964
11
198.7405912
21
-136.2299725
0
LINE
8
0
10
194.3406674
20
-119.8092335
11
211.2443694
21
-115.2799002
0
LINE
8
0
10
211.2443694
20
-115.2799002
11
206.9738552
21
-99.3421241
0
LINE
8
0
10
206.9738552
20
-99.3421241
11
190.0701532
21
-103.8714574
0
LINE
8
0
10
190.0701532
20
-103.8714574
11
194.3406674
21
-119.8092335
0
LINE
8
0
10
182.1303834
20
-143.7864928
11
199.0340854
21
-139.2571595
0
LINE
8
0
10
199.0340854
20
-139.2571595
11
194.7635712
21
-123.3193834
0
LINE
8
0
10
194.7635712
20
-123.3193834
11
177.8598692
21
-127.8487167
0
LINE
8
0
10
177.8598692
20
-127.8487167
11
182.1303834
21
-143.7864928
0
LINE
8
0
10
177.7304597
20
-127.3657537
11
194.6341617
21
-122.8364204
0
LINE
8
0
10
194.6341617
20
-122.8364204
11
190.3636475
21
-106.8986443
0
LINE
8
0
10
190.3636475
20
-106.8986443
11
173.4599455
21
-111.4279776
0
LINE
8
0
10
173.4599455
20
-111.4279776
11
177.7304597
21
-127.3657537
0
LINE
8
0
10
216.1322352
20
-189.5453616
11
233.0359372
21
-185.0160283
0
LINE
8
0
10
233.0359372
20
-185.0160283
11
228.765423
21
-169.0782522
0
LINE
8
0
10
228.765423
20
-169.0782522
11
211.861721
21
-173.6075855
0
LINE
8
0
10
211.861721
20
-173.6075855
11
216.1322352
21
-189.5453616
0
LINE
8
0
10
198.7455703
20
-194.2041044
11
215.6492723
21
-189.6747711
0
LINE
8
0
10
215.6492723
20
-189.6747711
11
211.3787581
21
-173.736995
0
LINE
8
0
10
211.3787581
20
-173.736995
11
194.4750561
21
-178.2663283
0
LINE
8
0
10
194.4750561
20
-178.2663283
11
198.7455703
21
-194.2041044
0
LINE
8
0
10
194.3456465
20
-177.7833654
11
211.2493485
21
-173.2540321
0
LINE
8
0
10
211.2493485
20
-173.2540321
11
206.9788343
21
-157.316256
0
LINE
8
0
10
206.9788343
20
-157.316256
11
190.0751323
21
-161.8455893
0
LINE
8
0
10
190.0751323
20
-161.8455893
11
194.3456465
21
-177.7833654
0
LINE
8
0
10
181.3589055
20
-198.8628472
11
198.2626075
21
-194.3335139
0
LINE
8
0
10
198.2626075
20
-194.3335139
11
193.9920933
21
-178.3957378
0
LINE
8
0
10
193.9920933
20
-178.3957378
11
177.0883913
21
-182.9250711
0
LINE
8
0
10
177.0883913
20
-182.9250711
11
181.3589055
21
-198.8628472
0
ENDSEC
0
EOF