0
SECTION
2
HEADER
9
$INSUNITS
70
4
0
ENDSEC
0
SECTION
2
TABLES
0
TABLE
2
LTYPE
0
LTYPE
72
65
70
64
2
CONTINUOUS
3
______
73
0
40
0
0
ENDTAB
0
TABLE
2
LAYER
0
ENDTAB
0
ENDSEC
0
SECTION
2
ENTITIES
0
LINE
8
0
10
56.1431492
20
-130.4768056
11
79.325369
21
-136.6884626
0
LINE
8
0
10
79.325369
20
-136.6884626
11
80.1018261
21
-133.7906852
0
LINE
8
0
10
56.1431492
20
-130.4768056
11
66.495911
21
-91.8397726
0
LINE
8
0
10
83.8825759
20
-96.4985154
11
66.495911
21
-91.8397726
0
LINE
8
0
10
80.1018261
20
-133.7906852
11
97.488491
21
-138.449428
0
LINE
8
0
10
97.488491
20
-138.449428
11
98.2649481
21
-135.5516505
0
LINE
8
0
10
102.0456979
20
-98.2594807
11
84.659033
21
-93.6007379
0
LINE
8
0
10
84.659033
20
-93.6007379
11
83.8825759
21
-96.4985154
0
LINE
8
0
10
98.2649481
20
-135.5516505
11
109.8560581
21
-138.6574791
0
LINE
8
0
10
125.2279177
20
-104.4711378
11
126.0043748
21
-101.5733603
0
LINE
8
0
10
126.0043748
20
-101.5733603
11
102.822155
21
-95.3617033
0
LINE
8
0
10
102.822155
20
-95.3617033
11
102.0456979
21
-98.2594807
0
LINE
8
0
10
109.079601
20
-141.5552566
11
132.2618208
21
-147.7669136
0
LINE
8
0
10
132.2618208
20
-147.7669136
11
142.6145825
21
-109.1298805
0
LINE
8
0
10
109.8560581
20
-138.6574791
11
109.079601
21
-141.5552566
0
LINE
8
0
10
142.6145825
20
-109.1298805
11
125.2279177
21
-104.4711378
0
LINE
8
0
10
75.0777492
20
-187.3141254
11
133.0332987
21
-202.843268
0
LINE
8
0
10
98.4172521
20
-169.7565742
11
81.0305872
21
-165.0978314
0
LINE
8
0
10
81.0305872
20
-165.0978314
11
75.0777492
21
-187.3141254
0
LINE
8
0
10
121.5994719
20
-175.9682312
11
125.9993957
21
-159.5474922
0
LINE
8
0
10
125.9993957
20
-159.5474922
11
102.8171759
21
-153.3358352
0
LINE
8
0
10
102.8171759
20
-153.3358352
11
98.4172521
21
-169.7565742
0
LINE
8
0
10
133.0332987
20
-202.843268
11
138.9861367
21
-180.626974
0
LINE
8
0
10
138.9861367
20
-180.626974
11
121.5994719
21
-175.9682312
0
LINE
8
0
10
144
20
-181.5
11
168
21
-181.5
0
LINE
8
0
10
168
20
-181.5
11
168
21
-158.5
0
LINE
8
0
10
168
20
-158.5
11
144
21
-158.5
0
LINE
8
0
10
144
20
-158.5
11
144
21
-181.5
0
LINE
8
0
10
232.7687382
20
-136.6884626
11
255.950958
21
-130.4768056
0
LINE
8
0
10
245.5981962
20
-91.8397726
11
255.950958
21
-130.4768056
0
LINE
8
0
10
231.9922811
20
-133.7906852
11
232.7687382
21
-136.6884626
0
LINE
8
0
10
245.5981962
20
-91.8397726
11
228.2115313
21
-96.4985154
0
LINE
8
0
10
214.6056162
20
-138.449428
11
231.9922811
21
-133.7906852
0
LINE
8
0
10
213.8291591
20
-135.5516505
11
214.6056162
21
-138.449428
0
LINE
8
0
10
228.2115313
20
-96.4985154
11
227.4350742
21
-93.6007379
0
LINE
8
0
10
227.4350742
20
-93.6007379
11
210.0484093
21
-98.2594807
0
LINE
8
0
10
202.2380491
20
-138.6574791
11
213.8291591
21
-135.5516505
0
LINE
8
0
10
210.0484093
20
-98.2594807
11
209.2719522
21
-95.3617033
0
LINE
8
0
10
209.2719522
20
-95.3617033
11
186.0897324
21
-101.5733603
0
LINE
8
0
10
186.0897324
20
-101.5733603
11
186.8661895
21
-104.4711378
0
LINE
8
0
10
179.8322864
20
-147.7669136
11
203.0145062
21
-141.5552566
0
LINE
8
0
10
203.0145062
20
-141.5552566
11
202.2380491
21
-138.6574791
0
LINE
8
0
10
169.4795247
20
-109.1298805
11
179.8322864
21
-147.7669136
0
LINE
8
0
10
186.8661895
20
-104.4711378
11
169.4795247
21
-109.1298805
0
LINE
8
0
10
179.0608085
20
-202.843268
11
237.016358
21
-187.3141254
0
LINE
8
0
10
237.016358
20
-187.3141254
11
231.06352
21
-165.0978314
0
LINE
8
0
10
231.06352
20
-165.0978314
11
213.6768551
21
-169.7565742
0
LINE
8
0
10
213.6768551
20
-169.7565742
11
209.2769313
21
-153.3358352
0
LINE
8
0
10
209.2769313
20
-153.3358352
11
186.0947115
21
-159.5474922
0
LINE
8
0
10
186.0947115
20
-159.5474922
11
190.4946353
21
-175.9682312
0
LINE
8
0
10
190.4946353
20
-175.9682312
11
173.1079705
21
-180.626974
0
LINE
8
0
10
173.1079705
20
-180.626974
11
179.0608085
21
-202.843268
0
ENDSEC
0
EOF