0
SECTION
2
HEADER
9
$INSUNITS
70
4
0
ENDSEC
0
SECTION
2
TABLES
0
TABLE
2
LTYPE
0
LTYPE
72
65
70
64
2
CONTINUOUS
3
______
73
0
40
0
0
ENDTAB
0
TABLE
2
LAYER
0
ENDTAB
0
ENDSEC
0
SECTION
2
ENTITIES
0
LINE
8
0
10
56.1431492
20
-130.4768056
11
79.325369
21
-136.6884626
0
LINE
8
0
10
79.325369
20
-136.6884626
11
80.1018261
21
-133.7906852
0
LINE
8
0
10
79.4826521
20
-112.9192544
11
62.0959872
21
-108.2605116
0
LINE
8
0
10
62.0959872
20
-108.2605116
11
56.1431492
21
-130.4768056
0
LINE
8
0
10
80.1018261
20
-133.7906852
11
97.488491
21
-138.449428
0
LINE
8
0
10
97.488491
20
-138.449428
11
98.2649481
21
-135.5516505
0
LINE
8
0
10
97.6457741
20
-114.6802198
11
80.2591092
21
-110.021477
0
LINE
8
0
10
80.2591092
20
-110.021477
11
79.4826521
21
-112.9192544
0
LINE
8
0
10
98.2649481
20
-135.5516505
11
109.8560581
21
-138.6574791
0
LINE
8
0
10
120.8279939
20
-120.8918768
11
121.604451
21
-117.9940993
0
LINE
8
0
10
121.604451
20
-117.9940993
11
98.4222312
21
-111.7824423
0
LINE
8
0
10
98.4222312
20
-111.7824423
11
97.6457741
21
-114.6802198
0
LINE
8
0
10
109.079601
20
-141.5552566
11
132.2618208
21
-147.7669136
0
LINE
8
0
10
132.2618208
20
-147.7669136
11
138.2146588
21
-125.5506196
0
LINE
8
0
10
138.2146588
20
-125.5506196
11
120.8279939
21
-120.8918768
0
LINE
8
0
10
109.8560581
20
-138.6574791
11
109.079601
21
-141.5552566
0
LINE
8
0
10
76.1130254
20
-183.4504221
11
134.0685749
21
-198.9795647
0
LINE
8
0
10
99.4525283
20
-165.8928709
11
82.0658634
21
-161.2341281
0
LINE
8
0
10
82.0658634
20
-161.2341281
11
76.1130254
21
-183.4504221
0
LINE
8
0
10
122.6347481
20
-172.1045279
11
127.0346719
21
-155.6837889
0
LINE
8
0
10
127.0346719
20
-155.6837889
11
103.8524521
21
-149.4721319
0
LINE
8
0
10
103.8524521
20
-149.4721319
11
99.4525283
21
-165.8928709
0
LINE
8
0
10
134.0685749
20
-198.9795647
11
140
21
-176.8431847
0
LINE
8
0
10
140
20
-176.7575331
11
122.6347481
21
-172.1045279
0
LINE
8
0
10
140
20
-181.5
11
164
21
-181.5
0
LINE
8
0
10
164
20
-181.5
11
164
21
-179.477043
0
LINE
8
0
10
164
20
-176.5684306
11
164
21
-158.5
0
LINE
8
0
10
164
20
-158.5
11
140
21
-158.5
0
LINE
8
0
10
140
20
-158.5
11
140
21
-176.7575331
0
LINE
8
0
10
140
20
-176.8431847
11
140
21
-181.5
0
LINE
8
0
10
223.9688908
20
-136.6884626
11
247.1511106
21
-130.4768056
0
LINE
8
0
10
247.1511106
20
-130.4768056
11
241.1982726
21
-108.2605116
0
LINE
8
0
10
241.1982726
20
-108.2605116
11
223.8116077
21
-112.9192544
0
LINE
8
0
10
223.1924337
20
-133.7906852
11
223.9688908
21
-136.6884626
0
LINE
8
0
10
205.8057688
20
-138.449428
11
223.1924337
21
-133.7906852
0
LINE
8
0
10
223.8116077
20
-112.9192544
11
223.0351506
21
-110.021477
0
LINE
8
0
10
223.0351506
20
-110.021477
11
205.6484857
21
-114.6802198
0
LINE
8
0
10
205.0293117
20
-135.5516505
11
205.8057688
21
-138.449428
0
LINE
8
0
10
193.4382017
20
-138.6574791
11
205.0293117
21
-135.5516505
0
LINE
8
0
10
205.6484857
20
-114.6802198
11
204.8720286
21
-111.7824423
0
LINE
8
0
10
204.8720286
20
-111.7824423
11
181.6898088
21
-117.9940993
0
LINE
8
0
10
181.6898088
20
-117.9940993
11
182.4662659
21
-120.8918768
0
LINE
8
0
10
171.032439
20
-147.7669136
11
194.2146588
21
-141.5552566
0
LINE
8
0
10
194.2146588
20
-141.5552566
11
193.4382017
21
-138.6574791
0
LINE
8
0
10
182.4662659
20
-120.8918768
11
165.079601
21
-125.5506196
0
LINE
8
0
10
165.079601
20
-125.5506196
11
171.032439
21
-147.7669136
0
LINE
8
0
10
169.2256849
20
-198.9795647
11
227.1812344
21
-183.4504221
0
LINE
8
0
10
227.1812344
20
-183.4504221
11
221.2283964
21
-161.2341281
0
LINE
8
0
10
221.2283964
20
-161.2341281
11
203.8417315
21
-165.8928709
0
LINE
8
0
10
203.8417315
20
-165.8928709
11
199.4418077
21
-149.4721319
0
LINE
8
0
10
199.4418077
20
-149.4721319
11
176.2595879
21
-155.6837889
0
LINE
8
0
10
176.2595879
20
-155.6837889
11
180.6595117
21
-172.1045279
0
LINE
8
0
10
180.6595117
20
-172.1045279
11
164
21
-176.5684306
0
LINE
8
0
10
164
20
-179.477043
11
169.2256849
21
-198.9795647
0
ENDSEC
0
EOF