solid csg.js
facet normal 0 0 -1
outer loop
vertex 241.54723174697477 -106.01153231221744 0
vertex 241.8459105191269 -106.10190168316099 0
vertex 242.12689684614185 -106.23763051638832 0
endloop
endfacet
facet normal 0 0 -1
outer loop
vertex 241.54723174697477 -106.01153231221744 0
vertex 242.12689684614185 -106.23763051638832 0
vertex 242.38335042271697 -106.41541464166633 0
endloop
endfacet
facet normal 0 0 -1
outer loop
vertex 241.54723174697477 -106.01153231221744 0
vertex 242.38335042271697 -106.41541464166633 0
vertex 242.60902816656807 -106.63092609859865 0
endloop
endfacet
facet normal 0 0 -1
outer loop
vertex 241.54723174697477 -106.01153231221744 0
vertex 242.60902816656807 -106.63092609859865 0
vertex 242.7984361994534 -106.8789184960971 0
endloop
endfacet
facet normal 0 0 -1
outer loop
vertex 241.54723174697477 -106.01153231221744 0
vertex 242.7984361994534 -106.8789184960971 0
vertex 242.94696358964003 -107.15335473004478 0
endloop
endfacet
facet normal 0 0 -1
outer loop
vertex 241.54723174697477 -106.01153231221744 0
vertex 242.94696358964003 -107.15335473004478 0
vertex 243.05099459999988 -107.44755394999956 0
endloop
endfacet
facet normal 0 0 -1
outer loop
vertex 241.54723174697477 -106.01153231221744 0
vertex 243.05099459999988 -107.44755394999956 0
vertex 247.47465134225956 -123.9568680499998 0
endloop
endfacet
facet normal 0 0 -1
outer loop
vertex 241.54723174697477 -106.01153231221744 0
vertex 247.47465134225956 -123.9568680499998 0
vertex 163.0247535500004 -123.9568680499998 0
endloop
endfacet
facet normal 0 0 -1
outer loop
vertex 241.54723174697477 -106.01153231221744 0
vertex 163.0247535500004 -123.9568680499998 0
vertex 179.08965240000038 -116.64842889999983 0
endloop
endfacet
facet normal 0 0 -1
outer loop
vertex 241.54723174697477 -106.01153231221744 0
vertex 179.08965240000038 -116.64842889999983 0
vertex 179.24262569514653 -116.58632038304721 0
endloop
endfacet
facet normal 0 0 -1
outer loop
vertex 241.54723174697477 -106.01153231221744 0
vertex 179.24262569514653 -116.58632038304721 0
vertex 179.4001962000005 -116.53704444999984 0
endloop
endfacet
facet normal 0 0 -1
outer loop
vertex 241.54723174697477 -106.01153231221744 0
vertex 179.4001962000005 -116.53704444999984 0
vertex 206.12635769999997 -109.37579339999999 0
endloop
endfacet
facet normal 0 0 -1
outer loop
vertex 241.54723174697477 -106.01153231221744 0
vertex 206.12635769999997 -109.37579339999999 0
vertex 206.2874638909752 -109.33968108460158 0
endloop
endfacet
facet normal 0 0 -1
outer loop
vertex 241.54723174697477 -106.01153231221744 0
vertex 206.2874638909752 -109.33968108460158 0
vertex 206.4509988499999 -109.31697670000003 0
endloop
endfacet
facet normal 0 0 -1
outer loop
vertex 241.54723174697477 -106.01153231221744 0
vertex 206.4509988499999 -109.31697670000003 0
vertex 240.9261392000001 -105.9745179 0
endloop
endfacet
facet normal 0 0 -1
outer loop
vertex 241.54723174697477 -106.01153231221744 0
vertex 240.9261392000001 -105.9745179 0
vertex 241.2381315382478 -105.96872234721349 0
endloop
endfacet
facet normal 0 0 -1
outer loop
vertex 62.368124150000114 -105.97452285 0
vertex 96.84326470000019 -109.31697920000003 0
vertex 97.00679730902476 -109.33967898460156 0
endloop
endfacet
facet normal 0 0 -1
outer loop
vertex 62.368124150000114 -105.97452285 0
vertex 97.00679730902476 -109.33967898460156 0
vertex 97.16790235 -109.37579339999999 0
endloop
endfacet
facet normal 0 0 -1
outer loop
vertex 62.368124150000114 -105.97452285 0
vertex 97.16790235 -109.37579339999999 0
vertex 123.8940558999996 -116.53704444999984 0
endloop
endfacet
facet normal 0 0 -1
outer loop
vertex 62.368124150000114 -105.97452285 0
vertex 123.8940558999996 -116.53704444999984 0
vertex 124.05163358657721 -116.58632255267206 0
endloop
endfacet
facet normal 0 0 -1
outer loop
vertex 62.368124150000114 -105.97452285 0
vertex 124.05163358657721 -116.58632255267206 0
vertex 124.20461294999981 -116.64842889999983 0
endloop
endfacet
facet normal 0 0 -1
outer loop
vertex 62.368124150000114 -105.97452285 0
vertex 124.20461294999981 -116.64842889999983 0
vertex 140.2695130999999 -123.95687369999996 0
endloop
endfacet
facet normal 0 0 -1
outer loop
vertex 62.368124150000114 -105.97452285 0
vertex 140.2695130999999 -123.95687369999996 0
vertex 55.819605407226696 -123.95687369999996 0
endloop
endfacet
facet normal 0 0 -1
outer loop
vertex 62.368124150000114 -105.97452285 0
vertex 55.819605407226696 -123.95687369999996 0
vertex 60.24326829999997 -107.4475457000001 0
endloop
endfacet
facet normal 0 0 -1
outer loop
vertex 62.368124150000114 -105.97452285 0
vertex 60.24326829999997 -107.4475457000001 0
vertex 60.3472974554699 -107.15334619622104 0
endloop
endfacet
facet normal 0 0 -1
outer loop
vertex 62.368124150000114 -105.97452285 0
vertex 60.3472974554699 -107.15334619622104 0
vertex 60.49582648598194 -106.87891273099288 0
endloop
endfacet
facet normal 0 0 -1
outer loop
vertex 62.368124150000114 -105.97452285 0
vertex 60.49582648598194 -106.87891273099288 0
vertex 60.68523550281162 -106.6309231665244 0
endloop
endfacet
facet normal 0 0 -1
outer loop
vertex 62.368124150000114 -105.97452285 0
vertex 60.68523550281162 -106.6309231665244 0
vertex 60.910913599159116 -106.41541464166633 0
endloop
endfacet
facet normal 0 0 -1
outer loop
vertex 62.368124150000114 -105.97452285 0
vertex 60.910913599159116 -106.41541464166633 0
vertex 61.167366946448595 -106.2376329214698 0
endloop
endfacet
facet normal 0 0 -1
outer loop
vertex 62.368124150000114 -105.97452285 0
vertex 61.167366946448595 -106.2376329214698 0
vertex 61.44835253416903 -106.10190636093247 0
endloop
endfacet
facet normal 0 0 -1
outer loop
vertex 62.368124150000114 -105.97452285 0
vertex 61.44835253416903 -106.10190636093247 0
vertex 61.747030147535696 -106.01153887222488 0
endloop
endfacet
facet normal 0 0 -1
outer loop
vertex 62.368124150000114 -105.97452285 0
vertex 61.747030147535696 -106.01153887222488 0
vertex 62.05612888328551 -105.9687303298575 0
endloop
endfacet
facet normal 0 0 -1
outer loop
vertex 247.47465134225956 -123.9568680499998 0
vertex 247.49551740762723 -124.03474127734468 0
vertex 162.8260956405918 -124.03474127734468 0
endloop
endfacet
facet normal 0 0 -1
outer loop
vertex 247.47465134225956 -123.9568680499998 0
vertex 162.8260956405918 -124.03474127734468 0
vertex 163.0247535500004 -123.9568680499998 0
endloop
endfacet
facet normal 0 0 -1
outer loop
vertex 140.2695130999999 -123.95687369999996 0
vertex 140.4681697135699 -124.03474350350955 0
vertex 55.79874024782996 -124.03474350350955 0
endloop
endfacet
facet normal 0 0 -1
outer loop
vertex 140.2695130999999 -123.95687369999996 0
vertex 55.79874024782996 -124.03474350350955 0
vertex 55.819605407226696 -123.95687369999996 0
endloop
endfacet
facet normal 0 0 -1
outer loop
vertex 140.4681697135699 -124.03474350350955 0
vertex 140.67398830320084 -124.09100878569163 0
vertex 55.78366400481509 -124.09100878569163 0
endloop
endfacet
facet normal 0 0 -1
outer loop
vertex 140.4681697135699 -124.03474350350955 0
vertex 55.78366400481509 -124.09100878569163 0
vertex 55.79874024782996 -124.03474350350955 0
endloop
endfacet
facet normal 0 0 -1
outer loop
vertex 247.49551740762723 -124.03474127734468 0
vertex 247.510594238873 -124.09100878569163 0
vertex 162.62026587301446 -124.09100878569163 0
endloop
endfacet
facet normal 0 0 -1
outer loop
vertex 247.49551740762723 -124.03474127734468 0
vertex 162.62026587301446 -124.09100878569163 0
vertex 162.8260956405918 -124.03474127734468 0
endloop
endfacet
facet normal 0 0 -1
outer loop
vertex 247.510594238873 -124.09100878569163 0
vertex 247.51970888047464 -124.12502509615095 0
vertex 162.40963514835644 -124.12502509615095 0
endloop
endfacet
facet normal 0 0 -1
outer loop
vertex 247.510594238873 -124.09100878569163 0
vertex 162.40963514835644 -124.12502509615095 0
vertex 162.62026587301446 -124.09100878569163 0
endloop
endfacet
facet normal 0 0 -1
outer loop
vertex 140.67398830320084 -124.09100878569163 0
vertex 140.88462973936203 -124.12502729813238 0
vertex 55.77454876819543 -124.12502729813238 0
endloop
endfacet
facet normal 0 0 -1
outer loop
vertex 140.67398830320084 -124.09100878569163 0
vertex 55.77454876819543 -124.12502729813238 0
vertex 55.78366400481509 -124.09100878569163 0
endloop
endfacet
facet normal 0 0 -1
outer loop
vertex 247.51970888047464 -124.12502509615095 0
vertex 247.52275852399606 -124.13640652236052 0
vertex 162.19654919281973 -124.13640652236052 0
endloop
endfacet
facet normal 0 0 -1
outer loop
vertex 247.51970888047464 -124.12502509615095 0
vertex 162.19654919281973 -124.13640652236052 0
vertex 162.19655709999992 -124.13640609999844 0
endloop
endfacet
facet normal 0 0 -1
outer loop
vertex 247.51970888047464 -124.12502509615095 0
vertex 162.19655709999992 -124.13640609999844 0
vertex 162.40963514835644 -124.12502509615095 0
endloop
endfacet
facet normal 0 0 -1
outer loop
vertex 162.19654919281973 -124.13640652236052 0
vertex 247.52275852399606 -124.13640652236052 0
vertex 155.09957960149728 -124.13640914073838 0
endloop
endfacet
facet normal 0 0 -1
outer loop
vertex 162.19654919281973 -124.13640652236052 0
vertex 155.09957960149728 -124.13640914073838 0
vertex 160.64676135903588 -124.13640652236052 0
endloop
endfacet
facet normal 0 0 -1
outer loop
vertex 140.88462973936203 -124.12502729813238 0
vertex 141.09769654999988 -124.13641207407122 0
vertex 55.77149822544389 -124.13641207407122 0
endloop
endfacet
facet normal 0 0 -1
outer loop
vertex 140.88462973936203 -124.12502729813238 0
vertex 55.77149822544389 -124.13641207407122 0
vertex 55.77454876819543 -124.12502729813238 0
endloop
endfacet
facet normal 0 0 -1
outer loop
vertex 162.19655709999992 -124.13640609999844 0
vertex 162.19654919281973 -124.13640652236052 0
vertex 160.64676135903588 -124.13640652236052 0
endloop
endfacet
facet normal 0 0 -1
outer loop
vertex 162.19655709999992 -124.13640609999844 0
vertex 160.64676135903588 -124.13640652236052 0
vertex 155.09957960149728 -124.13640914073838 0
endloop
endfacet
facet normal 0 0 -1
outer loop
vertex 162.19655709999992 -124.13640609999844 0
vertex 155.09957960149728 -124.13640914073838 0
vertex 247.52275852399606 -124.13640652236052 0
endloop
endfacet
facet normal 0 0 -1
outer loop
vertex 162.19655709999992 -124.13640609999844 0
vertex 247.52275852399606 -124.13640652236052 0
vertex 155.09957960149728 -124.13640914073838 0
endloop
endfacet
facet normal 0 0 -1
outer loop
vertex 162.19655709999992 -124.13640609999844 0
vertex 155.09957960149728 -124.13640914073838 0
vertex 151.03897179884285 -124.13640914073838 0
endloop
endfacet
facet normal 0 0 -1
outer loop
vertex 162.19655709999992 -124.13640609999844 0
vertex 151.03897179884285 -124.13640914073838 0
vertex 140.27549699551713 -124.13641207407122 0
endloop
endfacet
facet normal 0 0 -1
outer loop
vertex 162.19655709999992 -124.13640609999844 0
vertex 140.27549699551713 -124.13641207407122 0
vertex 151.03897179884285 -124.13640914073838 0
endloop
endfacet
facet normal 0 0 -1
outer loop
vertex 141.09769654999988 -124.13641207407122 0
vertex 162.19655709999992 -124.13640609999844 0
vertex 247.52275852399606 -124.13640652236052 0
endloop
endfacet
facet normal 0 0 -1
outer loop
vertex 141.09769654999988 -124.13641207407122 0
vertex 247.52275852399606 -124.13640652236052 0
vertex 249.43412930000008 -131.26974040000047 0
endloop
endfacet
facet normal 0 0 -1
outer loop
vertex 141.09769654999988 -124.13641207407122 0
vertex 249.43412930000008 -131.26974040000047 0
vertex 249.48344228617472 -131.51356598099184 0
endloop
endfacet
facet normal 0 0 -1
outer loop
vertex 141.09769654999988 -124.13641207407122 0
vertex 249.48344228617472 -131.51356598099184 0
vertex 249.50211089783394 -131.76162300149272 0
endloop
endfacet
facet normal 0 0 -1
outer loop
vertex 141.09769654999988 -124.13641207407122 0
vertex 249.50211089783394 -131.76162300149272 0
vertex 249.48984167781012 -132.0100787696308 0
endloop
endfacet
facet normal 0 0 -1
outer loop
vertex 141.09769654999988 -124.13641207407122 0
vertex 249.48984167781012 -132.0100787696308 0
vertex 249.44682443339846 -132.2550896248276 0
endloop
endfacet
facet normal 0 0 -1
outer loop
vertex 141.09769654999988 -124.13641207407122 0
vertex 249.44682443339846 -132.2550896248276 0
vertex 249.3737246499998 -132.4928652000005 0
endloop
endfacet
facet normal 0 0 -1
outer loop
vertex 141.09769654999988 -124.13641207407122 0
vertex 249.3737246499998 -132.4928652000005 0
vertex 229.9928666999999 -183.90398870000018 0
endloop
endfacet
facet normal 0 0 -1
outer loop
vertex 141.09769654999988 -124.13641207407122 0
vertex 229.9928666999999 -183.90398870000018 0
vertex 229.85847171607173 -184.18980294922008 0
endloop
endfacet
facet normal 0 0 -1
outer loop
vertex 141.09769654999988 -124.13641207407122 0
vertex 229.85847171607173 -184.18980294922008 0
vertex 229.68075679188988 -184.4508954125986 0
endloop
endfacet
facet normal 0 0 -1
outer loop
vertex 141.09769654999988 -124.13641207407122 0
vertex 229.68075679188988 -184.4508954125986 0
vertex 229.46415542640003 -184.68075562485438 0
endloop
endfacet
facet normal 0 0 -1
outer loop
vertex 141.09769654999988 -124.13641207407122 0
vertex 229.46415542640003 -184.68075562485438 0
vertex 229.21406921734547 -184.87365133955848 0
endloop
endfacet
facet normal 0 0 -1
outer loop
vertex 141.09769654999988 -124.13641207407122 0
vertex 229.21406921734547 -184.87365133955848 0
vertex 228.93673480640024 -185.02477212970823 0
endloop
endfacet
facet normal 0 0 -1
outer loop
vertex 141.09769654999988 -124.13641207407122 0
vertex 228.93673480640024 -185.02477212970823 0
vertex 228.63906834999966 -185.13034935000013 0
endloop
endfacet
facet normal 0 0 -1
outer loop
vertex 141.09769654999988 -124.13641207407122 0
vertex 228.63906834999966 -185.13034935000013 0
vertex 168.0658041000005 -201.36090619999987 0
endloop
endfacet
facet normal 0 0 -1
outer loop
vertex 141.09769654999988 -124.13641207407122 0
vertex 168.0658041000005 -201.36090619999987 0
vertex 167.8954644399769 -201.3986692534543 0
endloop
endfacet
facet normal 0 0 -1
outer loop
vertex 141.09769654999988 -124.13641207407122 0
vertex 167.8954644399769 -201.3986692534543 0
vertex 167.7224789305594 -201.42144035424195 0
endloop
endfacet
facet normal 0 0 -1
outer loop
vertex 141.09769654999988 -124.13641207407122 0
vertex 167.7224789305594 -201.42144035424195 0
vertex 167.5481670500003 -201.42904810000002 0
endloop
endfacet
facet normal 0 0 -1
outer loop
vertex 141.09769654999988 -124.13641207407122 0
vertex 167.5481670500003 -201.42904810000002 0
vertex 135.7460937000001 -201.4290545 0
endloop
endfacet
facet normal 0 0 -1
outer loop
vertex 141.09769654999988 -124.13641207407122 0
vertex 135.7460937000001 -201.4290545 0
vertex 135.57178496944056 -201.42144450424195 0
endloop
endfacet
facet normal 0 0 -1
outer loop
vertex 141.09769654999988 -124.13641207407122 0
vertex 135.57178496944056 -201.42144450424195 0
vertex 135.39879946002327 -201.39867340345432 0
endloop
endfacet
facet normal 0 0 -1
outer loop
vertex 141.09769654999988 -124.13641207407122 0
vertex 135.39879946002327 -201.39867340345432 0
vertex 135.22845684999982 -201.36091224999996 0
endloop
endfacet
facet normal 0 0 -1
outer loop
vertex 141.09769654999988 -124.13641207407122 0
vertex 135.22845684999982 -201.36091224999996 0
vertex 74.65519369999944 -185.13034935000013 0
endloop
endfacet
facet normal 0 0 -1
outer loop
vertex 141.09769654999988 -124.13641207407122 0
vertex 74.65519369999944 -185.13034935000013 0
vertex 74.35752539360018 -185.02477212970823 0
endloop
endfacet
facet normal 0 0 -1
outer loop
vertex 141.09769654999988 -124.13641207407122 0
vertex 74.35752539360018 -185.02477212970823 0
vertex 74.08019098265424 -184.87365133955848 0
endloop
endfacet
facet normal 0 0 -1
outer loop
vertex 141.09769654999988 -124.13641207407122 0
vertex 74.08019098265424 -184.87365133955848 0
vertex 73.83010477359981 -184.68075562485438 0
endloop
endfacet
facet normal 0 0 -1
outer loop
vertex 141.09769654999988 -124.13641207407122 0
vertex 73.83010477359981 -184.68075562485438 0
vertex 73.61350340811026 -184.4508954125986 0
endloop
endfacet
facet normal 0 0 -1
outer loop
vertex 141.09769654999988 -124.13641207407122 0
vertex 73.61350340811026 -184.4508954125986 0
vertex 73.43578848392816 -184.18980294922008 0
endloop
endfacet
facet normal 0 0 -1
outer loop
vertex 141.09769654999988 -124.13641207407122 0
vertex 73.43578848392816 -184.18980294922008 0
vertex 73.30139184999993 -183.90398870000018 0
endloop
endfacet
facet normal 0 0 -1
outer loop
vertex 141.09769654999988 -124.13641207407122 0
vertex 73.30139184999993 -183.90398870000018 0
vertex 53.92054350000001 -132.4928693 0
endloop
endfacet
facet normal 0 0 -1
outer loop
vertex 141.09769654999988 -124.13641207407122 0
vertex 53.92054350000001 -132.4928693 0
vertex 53.84744297797724 -132.2550896248276 0
endloop
endfacet
facet normal 0 0 -1
outer loop
vertex 141.09769654999988 -124.13641207407122 0
vertex 53.84744297797724 -132.2550896248276 0
vertex 53.804421675825665 -132.0100787696308 0
endloop
endfacet
facet normal 0 0 -1
outer loop
vertex 141.09769654999988 -124.13641207407122 0
vertex 53.804421675825665 -132.0100787696308 0
vertex 53.79214839282743 -131.76162300149272 0
endloop
endfacet
facet normal 0 0 -1
outer loop
vertex 141.09769654999988 -124.13641207407122 0
vertex 53.79214839282743 -131.76162300149272 0
vertex 53.810812999448615 -131.51356598099184 0
endloop
endfacet
facet normal 0 0 -1
outer loop
vertex 141.09769654999988 -124.13641207407122 0
vertex 53.810812999448615 -131.51356598099184 0
vertex 53.86012675000002 -131.2697446499999 0
endloop
endfacet
facet normal 0 0 -1
outer loop
vertex 141.09769654999988 -124.13641207407122 0
vertex 53.86012675000002 -131.2697446499999 0
vertex 55.77149822544389 -124.13641207407122 0
endloop
endfacet
facet normal 0 0 1
outer loop
vertex 167.54816704999877 -201.42904810000005 1
vertex 167.72247893055987 -201.4214403542419 1
vertex 167.89546443997705 -201.3986692534543 1
endloop
endfacet
facet normal 0 0 1
outer loop
vertex 167.54816704999877 -201.42904810000005 1
vertex 167.89546443997705 -201.3986692534543 1
vertex 168.0658041000001 -201.3609062 1
endloop
endfacet
facet normal 0 0 1
outer loop
vertex 167.54816704999877 -201.42904810000005 1
vertex 168.0658041000001 -201.3609062 1
vertex 228.63906834999946 -185.1303496 1
endloop
endfacet
facet normal 0 0 1
outer loop
vertex 167.54816704999877 -201.42904810000005 1
vertex 228.63906834999946 -185.1303496 1
vertex 228.93673480640018 -185.0247725797082 1
endloop
endfacet
facet normal 0 0 1
outer loop
vertex 167.54816704999877 -201.42904810000005 1
vertex 228.93673480640018 -185.0247725797082 1
vertex 229.21406921734547 -184.87365178955824 1
endloop
endfacet
facet normal 0 0 1
outer loop
vertex 167.54816704999877 -201.42904810000005 1
vertex 229.21406921734547 -184.87365178955824 1
vertex 229.46415542639994 -184.68075607485437 1
endloop
endfacet
facet normal 0 0 1
outer loop
vertex 167.54816704999877 -201.42904810000005 1
vertex 229.46415542639994 -184.68075607485437 1
vertex 229.68075679188988 -184.45089586259868 1
endloop
endfacet
facet normal 0 0 1
outer loop
vertex 167.54816704999877 -201.42904810000005 1
vertex 229.68075679188988 -184.45089586259868 1
vertex 229.8584717160719 -184.18980339921998 1
endloop
endfacet
facet normal 0 0 1
outer loop
vertex 167.54816704999877 -201.42904810000005 1
vertex 229.8584717160719 -184.18980339921998 1
vertex 229.9928666999998 -183.90398979999983 1
endloop
endfacet
facet normal 0 0 1
outer loop
vertex 167.54816704999877 -201.42904810000005 1
vertex 229.9928666999998 -183.90398979999983 1
vertex 249.37372464999967 -132.49286520000084 1
endloop
endfacet
facet normal 0 0 1
outer loop
vertex 167.54816704999877 -201.42904810000005 1
vertex 249.37372464999967 -132.49286520000084 1
vertex 249.4468244333985 -132.25508962482752 1
endloop
endfacet
facet normal 0 0 1
outer loop
vertex 167.54816704999877 -201.42904810000005 1
vertex 249.4468244333985 -132.25508962482752 1
vertex 249.48984167781012 -132.0100787696309 1
endloop
endfacet
facet normal 0 0 1
outer loop
vertex 167.54816704999877 -201.42904810000005 1
vertex 249.48984167781012 -132.0100787696309 1
vertex 249.50211089783394 -131.76162300149286 1
endloop
endfacet
facet normal 0 0 1
outer loop
vertex 167.54816704999877 -201.42904810000005 1
vertex 249.50211089783394 -131.76162300149286 1
vertex 249.4834422861747 -131.51356598099153 1
endloop
endfacet
facet normal 0 0 1
outer loop
vertex 167.54816704999877 -201.42904810000005 1
vertex 249.4834422861747 -131.51356598099153 1
vertex 249.4341293000002 -131.26974040000076 1
endloop
endfacet
facet normal 0 0 1
outer loop
vertex 167.54816704999877 -201.42904810000005 1
vertex 249.4341293000002 -131.26974040000076 1
vertex 247.52276001157227 -124.13641207407125 1
endloop
endfacet
facet normal 0 0 1
outer loop
vertex 167.54816704999877 -201.42904810000005 1
vertex 247.52276001157227 -124.13641207407125 1
vertex 162.1965491928196 -124.1364065223605 1
endloop
endfacet
facet normal 0 0 1
outer loop
vertex 167.54816704999877 -201.42904810000005 1
vertex 162.1965491928196 -124.1364065223605 1
vertex 141.0976965500003 -124.13641207407125 1
endloop
endfacet
facet normal 0 0 1
outer loop
vertex 167.54816704999877 -201.42904810000005 1
vertex 141.0976965500003 -124.13641207407125 1
vertex 55.7714982254439 -124.13641207407125 1
endloop
endfacet
facet normal 0 0 1
outer loop
vertex 167.54816704999877 -201.42904810000005 1
vertex 55.7714982254439 -124.13641207407125 1
vertex 53.86012674999998 -131.26974465000012 1
endloop
endfacet
facet normal 0 0 1
outer loop
vertex 167.54816704999877 -201.42904810000005 1
vertex 53.86012674999998 -131.26974465000012 1
vertex 53.810812999448615 -131.51356598099153 1
endloop
endfacet
facet normal 0 0 1
outer loop
vertex 167.54816704999877 -201.42904810000005 1
vertex 53.810812999448615 -131.51356598099153 1
vertex 53.79214839282743 -131.76162300149286 1
endloop
endfacet
facet normal 0 0 1
outer loop
vertex 167.54816704999877 -201.42904810000005 1
vertex 53.79214839282743 -131.76162300149286 1
vertex 53.80442167582565 -132.0100787696309 1
endloop
endfacet
facet normal 0 0 1
outer loop
vertex 167.54816704999877 -201.42904810000005 1
vertex 53.80442167582565 -132.0100787696309 1
vertex 53.84744297797724 -132.25508962482752 1
endloop
endfacet
facet normal 0 0 1
outer loop
vertex 167.54816704999877 -201.42904810000005 1
vertex 53.84744297797724 -132.25508962482752 1
vertex 53.92054350000001 -132.49286930000002 1
endloop
endfacet
facet normal 0 0 1
outer loop
vertex 167.54816704999877 -201.42904810000005 1
vertex 53.92054350000001 -132.49286930000002 1
vertex 73.30139184999996 -183.90398979999983 1
endloop
endfacet
facet normal 0 0 1
outer loop
vertex 167.54816704999877 -201.42904810000005 1
vertex 73.30139184999996 -183.90398979999983 1
vertex 73.4357884839282 -184.18980339921998 1
endloop
endfacet
facet normal 0 0 1
outer loop
vertex 167.54816704999877 -201.42904810000005 1
vertex 73.4357884839282 -184.18980339921998 1
vertex 73.61350340811019 -184.45089586259868 1
endloop
endfacet
facet normal 0 0 1
outer loop
vertex 167.54816704999877 -201.42904810000005 1
vertex 73.61350340811019 -184.45089586259868 1
vertex 73.83010477359996 -184.68075607485437 1
endloop
endfacet
facet normal 0 0 1
outer loop
vertex 167.54816704999877 -201.42904810000005 1
vertex 73.83010477359996 -184.68075607485437 1
vertex 74.08019098265423 -184.87365178955824 1
endloop
endfacet
facet normal 0 0 1
outer loop
vertex 167.54816704999877 -201.42904810000005 1
vertex 74.08019098265423 -184.87365178955824 1
vertex 74.35752539359989 -185.0247725797082 1
endloop
endfacet
facet normal 0 0 1
outer loop
vertex 167.54816704999877 -201.42904810000005 1
vertex 74.35752539359989 -185.0247725797082 1
vertex 74.65519370000004 -185.1303496 1
endloop
endfacet
facet normal 0 0 1
outer loop
vertex 167.54816704999877 -201.42904810000005 1
vertex 74.65519370000004 -185.1303496 1
vertex 135.22845685 -201.36091224999998 1
endloop
endfacet
facet normal 0 0 1
outer loop
vertex 167.54816704999877 -201.42904810000005 1
vertex 135.22845685 -201.36091224999998 1
vertex 135.39879946002344 -201.39867340345435 1
endloop
endfacet
facet normal 0 0 1
outer loop
vertex 167.54816704999877 -201.42904810000005 1
vertex 135.39879946002344 -201.39867340345435 1
vertex 135.57178496944064 -201.42144450424195 1
endloop
endfacet
facet normal 0 0 1
outer loop
vertex 167.54816704999877 -201.42904810000005 1
vertex 135.57178496944064 -201.42144450424195 1
vertex 135.7460937000003 -201.42905450000003 1
endloop
endfacet
facet normal 0 0 -1
outer loop
vertex 151.03897179884288 -124.1364091407384 1
vertex 247.52276001157227 -124.13641207407125 1
vertex 151.03897179884288 -124.1364091407384 1
endloop
endfacet
facet normal 0 0 -1
outer loop
vertex 151.03897179884288 -124.1364091407384 1
vertex 151.03897179884288 -124.1364091407384 1
vertex 140.27549699551707 -124.13641207407125 1
endloop
endfacet
facet normal 0 0 -1
outer loop
vertex 160.64676135903588 -124.1364065223605 1
vertex 247.52276001157227 -124.13641207407125 1
vertex 160.64676135903588 -124.1364065223605 1
endloop
endfacet
facet normal 0 0 -1
outer loop
vertex 160.64676135903588 -124.1364065223605 1
vertex 160.64676135903588 -124.1364065223605 1
vertex 155.09957960149717 -124.1364091407384 1
endloop
endfacet
facet normal 0 0 1
outer loop
vertex 141.0976965500003 -124.13641207407125 1
vertex 140.88462689157765 -124.12502729813237 1
vertex 55.77454876819545 -124.12502729813237 1
endloop
endfacet
facet normal 0 0 1
outer loop
vertex 141.0976965500003 -124.13641207407125 1
vertex 55.77454876819545 -124.12502729813237 1
vertex 55.7714982254439 -124.13641207407125 1
endloop
endfacet
facet normal 0 0 1
outer loop
vertex 247.52276001157227 -124.13641207407125 1
vertex 247.51970888047464 -124.12502509615092 1
vertex 162.40963514835698 -124.12502509615092 1
endloop
endfacet
facet normal 0 0 1
outer loop
vertex 247.52276001157227 -124.13641207407125 1
vertex 162.40963514835698 -124.12502509615092 1
vertex 162.40962544600916 -124.12502509615092 1
endloop
endfacet
facet normal 0 0 1
outer loop
vertex 247.52276001157227 -124.13641207407125 1
vertex 162.40962544600916 -124.12502509615092 1
vertex 162.19655709999992 -124.13640609999844 1
endloop
endfacet
facet normal 0 0 1
outer loop
vertex 247.52276001157227 -124.13641207407125 1
vertex 162.19655709999992 -124.13640609999844 1
vertex 162.1965491928196 -124.1364065223605 1
endloop
endfacet
facet normal 0 0 1
outer loop
vertex 140.88462689157765 -124.12502729813237 1
vertex 140.67398830320104 -124.09100878569167 1
vertex 55.783664004815094 -124.09100878569167 1
endloop
endfacet
facet normal 0 0 1
outer loop
vertex 140.88462689157765 -124.12502729813237 1
vertex 55.783664004815094 -124.09100878569167 1
vertex 55.77454876819545 -124.12502729813237 1
endloop
endfacet
facet normal 0 0 1
outer loop
vertex 247.51970888047464 -124.12502509615092 1
vertex 247.51059423887304 -124.09100878569167 1
vertex 162.62027202380028 -124.09100878569167 1
endloop
endfacet
facet normal 0 0 1
outer loop
vertex 247.51970888047464 -124.12502509615092 1
vertex 162.62027202380028 -124.09100878569167 1
vertex 162.40963514835698 -124.12502509615092 1
endloop
endfacet
facet normal 0 0 1
outer loop
vertex 140.67398830320104 -124.09100878569167 1
vertex 140.4681697135699 -124.03474350350956 1
vertex 55.798740247829976 -124.03474350350956 1
endloop
endfacet
facet normal 0 0 1
outer loop
vertex 140.67398830320104 -124.09100878569167 1
vertex 55.798740247829976 -124.03474350350956 1
vertex 55.783664004815094 -124.09100878569167 1
endloop
endfacet
facet normal 0 0 1
outer loop
vertex 247.51059423887304 -124.09100878569167 1
vertex 247.49551740762726 -124.0347412773447 1
vertex 162.82609564059177 -124.0347412773447 1
endloop
endfacet
facet normal 0 0 1
outer loop
vertex 247.51059423887304 -124.09100878569167 1
vertex 162.82609564059177 -124.0347412773447 1
vertex 162.62027202380028 -124.09100878569167 1
endloop
endfacet
facet normal 0 0 1
outer loop
vertex 140.4681697135699 -124.03474350350956 1
vertex 140.26951309999998 -123.95687369999999 1
vertex 55.8196054072267 -123.95687369999999 1
endloop
endfacet
facet normal 0 0 1
outer loop
vertex 140.4681697135699 -124.03474350350956 1
vertex 55.8196054072267 -123.95687369999999 1
vertex 55.798740247829976 -124.03474350350956 1
endloop
endfacet
facet normal 0 0 1
outer loop
vertex 247.49551740762726 -124.0347412773447 1
vertex 247.47465134225956 -123.9568680499997 1
vertex 163.02475355000067 -123.9568680499997 1
endloop
endfacet
facet normal 0 0 1
outer loop
vertex 247.49551740762726 -124.0347412773447 1
vertex 163.02475355000067 -123.9568680499997 1
vertex 162.82609564059177 -124.0347412773447 1
endloop
endfacet
facet normal 0 0 1
outer loop
vertex 140.26951309999998 -123.95687369999999 1
vertex 124.20461295000031 -116.6484288999996 1
vertex 124.05163358657727 -116.58632255267207 1
endloop
endfacet
facet normal 0 0 1
outer loop
vertex 140.26951309999998 -123.95687369999999 1
vertex 124.05163358657727 -116.58632255267207 1
vertex 123.89405589999988 -116.53704445 1
endloop
endfacet
facet normal 0 0 1
outer loop
vertex 140.26951309999998 -123.95687369999999 1
vertex 123.89405589999988 -116.53704445 1
vertex 97.16790235000022 -109.37579339999992 1
endloop
endfacet
facet normal 0 0 1
outer loop
vertex 140.26951309999998 -123.95687369999999 1
vertex 97.16790235000022 -109.37579339999992 1
vertex 97.0067973090246 -109.33967898460153 1
endloop
endfacet
facet normal 0 0 1
outer loop
vertex 140.26951309999998 -123.95687369999999 1
vertex 97.0067973090246 -109.33967898460153 1
vertex 96.84326470000053 -109.31697920000008 1
endloop
endfacet
facet normal 0 0 1
outer loop
vertex 140.26951309999998 -123.95687369999999 1
vertex 96.84326470000053 -109.31697920000008 1
vertex 62.368124149999844 -105.97452285 1
endloop
endfacet
facet normal 0 0 1
outer loop
vertex 140.26951309999998 -123.95687369999999 1
vertex 62.368124149999844 -105.97452285 1
vertex 62.05612888328554 -105.9687303298575 1
endloop
endfacet
facet normal 0 0 1
outer loop
vertex 140.26951309999998 -123.95687369999999 1
vertex 62.05612888328554 -105.9687303298575 1
vertex 61.74703014753575 -106.01153887222488 1
endloop
endfacet
facet normal 0 0 1
outer loop
vertex 140.26951309999998 -123.95687369999999 1
vertex 61.74703014753575 -106.01153887222488 1
vertex 61.44835253416889 -106.10190636093255 1
endloop
endfacet
facet normal 0 0 1
outer loop
vertex 140.26951309999998 -123.95687369999999 1
vertex 61.44835253416889 -106.10190636093255 1
vertex 61.16736694644858 -106.23763292146981 1
endloop
endfacet
facet normal 0 0 1
outer loop
vertex 140.26951309999998 -123.95687369999999 1
vertex 61.16736694644858 -106.23763292146981 1
vertex 60.9109135991591 -106.41541464166633 1
endloop
endfacet
facet normal 0 0 1
outer loop
vertex 140.26951309999998 -123.95687369999999 1
vertex 60.9109135991591 -106.41541464166633 1
vertex 60.68523550281165 -106.63092316652437 1
endloop
endfacet
facet normal 0 0 1
outer loop
vertex 140.26951309999998 -123.95687369999999 1
vertex 60.68523550281165 -106.63092316652437 1
vertex 60.49582648598184 -106.87891273099301 1
endloop
endfacet
facet normal 0 0 1
outer loop
vertex 140.26951309999998 -123.95687369999999 1
vertex 60.49582648598184 -106.87891273099301 1
vertex 60.34729745546991 -107.15334619622098 1
endloop
endfacet
facet normal 0 0 1
outer loop
vertex 140.26951309999998 -123.95687369999999 1
vertex 60.34729745546991 -107.15334619622098 1
vertex 60.243268299999954 -107.44754570000015 1
endloop
endfacet
facet normal 0 0 1
outer loop
vertex 140.26951309999998 -123.95687369999999 1
vertex 60.243268299999954 -107.44754570000015 1
vertex 55.8196054072267 -123.95687369999999 1
endloop
endfacet
facet normal 0 0 1
outer loop
vertex 247.47465134225956 -123.9568680499997 1
vertex 243.05099459999985 -107.44755394999947 1
vertex 242.94696358964 -107.1533547300447 1
endloop
endfacet
facet normal 0 0 1
outer loop
vertex 247.47465134225956 -123.9568680499997 1
vertex 242.94696358964 -107.1533547300447 1
vertex 242.79843619945353 -106.87891849609734 1
endloop
endfacet
facet normal 0 0 1
outer loop
vertex 247.47465134225956 -123.9568680499997 1
vertex 242.79843619945353 -106.87891849609734 1
vertex 242.60902816656795 -106.63092609859854 1
endloop
endfacet
facet normal 0 0 1
outer loop
vertex 247.47465134225956 -123.9568680499997 1
vertex 242.60902816656795 -106.63092609859854 1
vertex 242.38335042271697 -106.41541464166633 1
endloop
endfacet
facet normal 0 0 1
outer loop
vertex 247.47465134225956 -123.9568680499997 1
vertex 242.38335042271697 -106.41541464166633 1
vertex 242.12689684614182 -106.23763051638831 1
endloop
endfacet
facet normal 0 0 1
outer loop
vertex 247.47465134225956 -123.9568680499997 1
vertex 242.12689684614182 -106.23763051638831 1
vertex 241.84591051912682 -106.10190168316093 1
endloop
endfacet
facet normal 0 0 1
outer loop
vertex 247.47465134225956 -123.9568680499997 1
vertex 241.84591051912682 -106.10190168316093 1
vertex 241.547231746975 -106.01153231221748 1
endloop
endfacet
facet normal 0 0 1
outer loop
vertex 247.47465134225956 -123.9568680499997 1
vertex 241.547231746975 -106.01153231221748 1
vertex 241.23813153824764 -105.96872234721347 1
endloop
endfacet
facet normal 0 0 1
outer loop
vertex 247.47465134225956 -123.9568680499997 1
vertex 241.23813153824764 -105.96872234721347 1
vertex 240.9261392000003 -105.97451789999997 1
endloop
endfacet
facet normal 0 0 1
outer loop
vertex 247.47465134225956 -123.9568680499997 1
vertex 240.9261392000003 -105.97451789999997 1
vertex 206.4509988499999 -109.31697670000003 1
endloop
endfacet
facet normal 0 0 1
outer loop
vertex 247.47465134225956 -123.9568680499997 1
vertex 206.4509988499999 -109.31697670000003 1
vertex 206.28746389097523 -109.33968108460158 1
endloop
endfacet
facet normal 0 0 1
outer loop
vertex 247.47465134225956 -123.9568680499997 1
vertex 206.28746389097523 -109.33968108460158 1
vertex 206.12635770000034 -109.37579339999992 1
endloop
endfacet
facet normal 0 0 1
outer loop
vertex 247.47465134225956 -123.9568680499997 1
vertex 206.12635770000034 -109.37579339999992 1
vertex 179.40019619999998 -116.53704445 1
endloop
endfacet
facet normal 0 0 1
outer loop
vertex 247.47465134225956 -123.9568680499997 1
vertex 179.40019619999998 -116.53704445 1
vertex 179.24262569514627 -116.5863203830473 1
endloop
endfacet
facet normal 0 0 1
outer loop
vertex 247.47465134225956 -123.9568680499997 1
vertex 179.24262569514627 -116.5863203830473 1
vertex 179.08965240000092 -116.6484288999996 1
endloop
endfacet
facet normal 0 0 1
outer loop
vertex 247.47465134225956 -123.9568680499997 1
vertex 179.08965240000092 -116.6484288999996 1
vertex 163.02475355000067 -123.9568680499997 1
endloop
endfacet
facet normal -0.9049453834353776 -0.42552773470009886 0
outer loop
vertex 73.4357884839282 -184.18980339921998 1
vertex 73.30139184999996 -183.90398979999983 1
vertex 73.30139184999993 -183.90398870000018 0
endloop
endfacet
facet normal -0.9049453834353776 -0.42552773470009886 0
outer loop
vertex 73.4357884839282 -184.18980339921998 1
vertex 73.30139184999993 -183.90398870000018 0
vertex 73.43578848392816 -184.18980294922008 0
endloop
endfacet
facet normal -0.8266731185265925 -0.5626824638333048 0
outer loop
vertex 73.61350340811019 -184.45089586259868 1
vertex 73.4357884839282 -184.18980339921998 1
vertex 73.43578848392816 -184.18980294922008 0
endloop
endfacet
facet normal -0.8266731185265925 -0.5626824638333048 0
outer loop
vertex 73.61350340811019 -184.45089586259868 1
vertex 73.43578848392816 -184.18980294922008 0
vertex 73.61350340811026 -184.4508954125986 0
endloop
endfacet
facet normal -0.7277853065214135 -0.6858050361520628 0
outer loop
vertex 73.83010477359996 -184.68075607485437 1
vertex 73.61350340811019 -184.45089586259868 1
vertex 73.61350340811026 -184.4508954125986 0
endloop
endfacet
facet normal -0.7277853065214135 -0.6858050361520628 0
outer loop
vertex 73.83010477359996 -184.68075607485437 1
vertex 73.61350340811026 -184.4508954125986 0
vertex 73.83010477359981 -184.68075562485438 0
endloop
endfacet
facet normal -0.6107480084298765 -0.7918250249890689 0
outer loop
vertex 74.08019098265423 -184.87365178955824 1
vertex 73.83010477359996 -184.68075607485437 1
vertex 73.83010477359981 -184.68075562485438 0
endloop
endfacet
facet normal -0.6107480084298765 -0.7918250249890689 0
outer loop
vertex 74.08019098265423 -184.87365178955824 1
vertex 73.83010477359981 -184.68075562485438 0
vertex 74.08019098265424 -184.87365133955848 0
endloop
endfacet
facet normal -0.47847989655031187 -0.8780985073425435 0
outer loop
vertex 74.35752539359989 -185.0247725797082 1
vertex 74.08019098265423 -184.87365178955824 1
vertex 74.08019098265424 -184.87365133955848 0
endloop
endfacet
facet normal -0.47847989655031187 -0.8780985073425435 0
outer loop
vertex 74.35752539359989 -185.0247725797082 1
vertex 74.08019098265424 -184.87365133955848 0
vertex 74.35752539360018 -185.02477212970823 0
endloop
endfacet
facet normal -0.33427706084680164 -0.9424748519677455 0
outer loop
vertex 74.65519370000004 -185.1303496 1
vertex 74.35752539359989 -185.0247725797082 1
vertex 74.35752539360018 -185.02477212970823 0
endloop
endfacet
facet normal -0.33427706084680164 -0.9424748519677455 0
outer loop
vertex 74.65519370000004 -185.1303496 1
vertex 74.35752539360018 -185.02477212970823 0
vertex 74.65519369999944 -185.13034935000013 0
endloop
endfacet
facet normal -0.2588191299980741 -0.9659258035413693 0
outer loop
vertex 135.22845685 -201.36091224999998 1
vertex 74.65519370000004 -185.1303496 1
vertex 74.65519369999944 -185.13034935000013 0
endloop
endfacet
facet normal -0.2588191299980741 -0.9659258035413693 0
outer loop
vertex 135.22845685 -201.36091224999998 1
vertex 74.65519369999944 -185.13034935000013 0
vertex 135.22845684999982 -201.36091224999996 0
endloop
endfacet
facet normal -0.21642380424705712 -0.9762995119097578 0
outer loop
vertex 135.39879946002344 -201.39867340345435 1
vertex 135.22845685 -201.36091224999998 1
vertex 135.22845684999982 -201.36091224999996 0
endloop
endfacet
facet normal -0.21642380424705712 -0.9762995119097578 0
outer loop
vertex 135.39879946002344 -201.39867340345435 1
vertex 135.22845684999982 -201.36091224999996 0
vertex 135.39879946002327 -201.39867340345432 0
endloop
endfacet
facet normal -0.13051000323213216 -0.9914469925600404 0
outer loop
vertex 135.57178496944064 -201.42144450424195 1
vertex 135.39879946002344 -201.39867340345435 1
vertex 135.39879946002327 -201.39867340345432 0
endloop
endfacet
facet normal -0.13051000323213216 -0.9914469925600404 0
outer loop
vertex 135.57178496944064 -201.42144450424195 1
vertex 135.39879946002327 -201.39867340345432 0
vertex 135.57178496944056 -201.42144450424195 0
endloop
endfacet
facet normal -0.04361659700597898 -0.9990483434076742 0
outer loop
vertex 135.7460937000003 -201.42905450000003 1
vertex 135.57178496944064 -201.42144450424195 1
vertex 135.57178496944056 -201.42144450424195 0
endloop
endfacet
facet normal -0.04361659700597898 -0.9990483434076742 0
outer loop
vertex 135.7460937000003 -201.42905450000003 1
vertex 135.57178496944056 -201.42144450424195 0
vertex 135.7460937000001 -201.4290545 0
endloop
endfacet
facet normal 2.0124474531257874e-7 -0.9999999999999798 0
outer loop
vertex 167.54816704999877 -201.42904810000005 1
vertex 135.7460937000003 -201.42905450000003 1
vertex 135.7460937000001 -201.4290545 0
endloop
endfacet
facet normal 2.0124474531257874e-7 -0.9999999999999798 0
outer loop
vertex 167.54816704999877 -201.42904810000005 1
vertex 135.7460937000001 -201.4290545 0
vertex 167.5481670500003 -201.42904810000002 0
endloop
endfacet
facet normal 0.04360293921368456 -0.9990489395880102 0
outer loop
vertex 167.72247893055987 -201.4214403542419 1
vertex 167.54816704999877 -201.42904810000005 1
vertex 167.5481670500003 -201.42904810000002 0
endloop
endfacet
facet normal 0.04360293921368456 -0.9990489395880102 0
outer loop
vertex 167.72247893055987 -201.4214403542419 1
vertex 167.5481670500003 -201.42904810000002 0
vertex 167.7224789305594 -201.42144035424195 0
endloop
endfacet
facet normal 0.13051000323210377 -0.9914469925600442 0
outer loop
vertex 167.89546443997705 -201.3986692534543 1
vertex 167.72247893055987 -201.4214403542419 1
vertex 167.7224789305594 -201.42144035424195 0
endloop
endfacet
facet normal 0.13051000323210377 -0.9914469925600442 0
outer loop
vertex 167.89546443997705 -201.3986692534543 1
vertex 167.7224789305594 -201.42144035424195 0
vertex 167.8954644399769 -201.3986692534543 0
endloop
endfacet
facet normal 0.21643775647703534 -0.9762964189072842 0
outer loop
vertex 168.0658041000001 -201.3609062 1
vertex 167.89546443997705 -201.3986692534543 1
vertex 167.8954644399769 -201.3986692534543 0
endloop
endfacet
facet normal 0.21643775647703534 -0.9762964189072842 0
outer loop
vertex 168.0658041000001 -201.3609062 1
vertex 167.8954644399769 -201.3986692534543 0
vertex 168.0658041000005 -201.36090619999987 0
endloop
endfacet
facet normal 0.25881903931929134 -0.96592582783868 0
outer loop
vertex 228.63906834999946 -185.1303496 1
vertex 168.0658041000001 -201.3609062 1
vertex 168.0658041000005 -201.36090619999987 0
endloop
endfacet
facet normal 0.25881903931929134 -0.96592582783868 0
outer loop
vertex 228.63906834999946 -185.1303496 1
vertex 168.0658041000005 -201.36090619999987 0
vertex 228.63906834999966 -185.13034935000013 0
endloop
endfacet
facet normal 0.33427946871560893 -0.9424739979411688 0
outer loop
vertex 228.93673480640018 -185.0247725797082 1
vertex 228.63906834999946 -185.1303496 1
vertex 228.63906834999966 -185.13034935000013 0
endloop
endfacet
facet normal 0.33427946871560893 -0.9424739979411688 0
outer loop
vertex 228.93673480640018 -185.0247725797082 1
vertex 228.63906834999966 -185.13034935000013 0
vertex 228.93673480640024 -185.02477212970823 0
endloop
endfacet
facet normal 0.47847989655034573 -0.878098507342525 0
outer loop
vertex 229.21406921734547 -184.87365178955824 1
vertex 228.93673480640018 -185.0247725797082 1
vertex 228.93673480640024 -185.02477212970823 0
endloop
endfacet
facet normal 0.47847989655034573 -0.878098507342525 0
outer loop
vertex 229.21406921734547 -184.87365178955824 1
vertex 228.93673480640024 -185.02477212970823 0
vertex 229.21406921734547 -184.87365133955848 0
endloop
endfacet
facet normal 0.61074800842988 -0.7918250249890662 0
outer loop
vertex 229.46415542639994 -184.68075607485437 1
vertex 229.21406921734547 -184.87365178955824 1
vertex 229.21406921734547 -184.87365133955848 0
endloop
endfacet
facet normal 0.61074800842988 -0.7918250249890662 0
outer loop
vertex 229.46415542639994 -184.68075607485437 1
vertex 229.21406921734547 -184.87365133955848 0
vertex 229.46415542640003 -184.68075562485438 0
endloop
endfacet
facet normal 0.7277853065214411 -0.6858050361520336 0
outer loop
vertex 229.68075679188988 -184.45089586259868 1
vertex 229.46415542639994 -184.68075607485437 1
vertex 229.46415542640003 -184.68075562485438 0
endloop
endfacet
facet normal 0.7277853065214411 -0.6858050361520336 0
outer loop
vertex 229.68075679188988 -184.45089586259868 1
vertex 229.46415542640003 -184.68075562485438 0
vertex 229.68075679188988 -184.4508954125986 0
endloop
endfacet
facet normal 0.8266731185265915 -0.5626824638333063 0
outer loop
vertex 229.8584717160719 -184.18980339921998 1
vertex 229.68075679188988 -184.45089586259868 1
vertex 229.68075679188988 -184.4508954125986 0
endloop
endfacet
facet normal 0.8266731185265915 -0.5626824638333063 0
outer loop
vertex 229.8584717160719 -184.18980339921998 1
vertex 229.68075679188988 -184.4508954125986 0
vertex 229.85847171607173 -184.18980294922008 0
endloop
endfacet
facet normal 0.9049477678267919 -0.4255226639149869 0
outer loop
vertex 229.9928666999998 -183.90398979999983 1
vertex 229.8584717160719 -184.18980339921998 1
vertex 229.85847171607173 -184.18980294922008 0
endloop
endfacet
facet normal 0.9049477678267919 -0.4255226639149869 0
outer loop
vertex 229.9928666999998 -183.90398979999983 1
vertex 229.85847171607173 -184.18980294922008 0
vertex 229.9928666999999 -183.90398870000018 0
endloop
endfacet
facet normal 0.9357192994210779 -0.3527455069748261 0
outer loop
vertex 249.37372464999967 -132.49286520000084 1
vertex 229.9928666999998 -183.90398979999983 1
vertex 229.9928666999999 -183.90398870000018 0
endloop
endfacet
facet normal 0.9357192994210779 -0.3527455069748261 0
outer loop
vertex 249.37372464999967 -132.49286520000084 1
vertex 229.9928666999999 -183.90398870000018 0
vertex 249.3737246499998 -132.4928652000005 0
endloop
endfacet
facet normal 0.9558489608711168 -0.29385840808390457 0
outer loop
vertex 249.4468244333985 -132.25508962482752 1
vertex 249.37372464999967 -132.49286520000084 1
vertex 249.3737246499998 -132.4928652000005 0
endloop
endfacet
facet normal 0.9558489608711168 -0.29385840808390457 0
outer loop
vertex 249.4468244333985 -132.25508962482752 1
vertex 249.3737246499998 -132.4928652000005 0
vertex 249.44682443339846 -132.2550896248276 0
endloop
endfacet
facet normal 0.9849345172355651 -0.17292772119571959 0
outer loop
vertex 249.48984167781012 -132.0100787696309 1
vertex 249.4468244333985 -132.25508962482752 1
vertex 249.44682443339846 -132.2550896248276 0
endloop
endfacet
facet normal 0.9849345172355651 -0.17292772119571959 0
outer loop
vertex 249.48984167781012 -132.0100787696309 1
vertex 249.44682443339846 -132.2550896248276 0
vertex 249.48984167781012 -132.0100787696308 0
endloop
endfacet
facet normal 0.9987829390205528 -0.0493218077676261 0
outer loop
vertex 249.50211089783394 -131.76162300149286 1
vertex 249.48984167781012 -132.0100787696309 1
vertex 249.48984167781012 -132.0100787696308 0
endloop
endfacet
facet normal 0.9987829390205528 -0.0493218077676261 0
outer loop
vertex 249.50211089783394 -131.76162300149286 1
vertex 249.48984167781012 -132.0100787696308 0
vertex 249.50211089783394 -131.76162300149272 0
endloop
endfacet
facet normal 0.9971799883627444 0.07504712392142202 0
outer loop
vertex 249.4834422861747 -131.51356598099153 1
vertex 249.50211089783394 -131.76162300149286 1
vertex 249.50211089783394 -131.76162300149272 0
endloop
endfacet
facet normal 0.9971799883627444 0.07504712392142202 0
outer loop
vertex 249.4834422861747 -131.51356598099153 1
vertex 249.50211089783394 -131.76162300149272 0
vertex 249.48344228617472 -131.51356598099184 0
endloop
endfacet
facet normal 0.9801548537330724 0.19823335416498294 0
outer loop
vertex 249.4341293000002 -131.26974040000076 1
vertex 249.4834422861747 -131.51356598099153 1
vertex 249.48344228617472 -131.51356598099184 0
endloop
endfacet
facet normal 0.9801548537330724 0.19823335416498294 0
outer loop
vertex 249.4341293000002 -131.26974040000076 1
vertex 249.48344228617472 -131.51356598099184 0
vertex 249.43412930000008 -131.26974040000047 0
endloop
endfacet
facet normal 0 0 1
outer loop
vertex 243.05099459999985 -107.44755394999947 1
vertex 247.47465134225956 -123.9568680499997 1
vertex 247.49551740762726 -124.0347412773447 1
endloop
endfacet
facet normal 0 0 1
outer loop
vertex 243.05099459999985 -107.44755394999947 1
vertex 247.49551740762726 -124.0347412773447 1
vertex 247.51059423887304 -124.09100878569167 1
endloop
endfacet
facet normal 0 0 1
outer loop
vertex 243.05099459999985 -107.44755394999947 1
vertex 247.51059423887304 -124.09100878569167 1
vertex 247.51970888047464 -124.12502509615092 1
endloop
endfacet
facet normal 0 0 1
outer loop
vertex 243.05099459999985 -107.44755394999947 1
vertex 247.51970888047464 -124.12502509615092 1
vertex 247.52276001157227 -124.13641207407125 1
endloop
endfacet
facet normal 0 0 1
outer loop
vertex 243.05099459999985 -107.44755394999947 1
vertex 247.52276001157227 -124.13641207407125 1
vertex 249.4341293000002 -131.26974040000076 1
endloop
endfacet
facet normal 0 0 1
outer loop
vertex 243.05099459999985 -107.44755394999947 1
vertex 249.4341293000002 -131.26974040000076 1
vertex 249.43412930000008 -131.26974040000047 0
endloop
endfacet
facet normal 0 0 1
outer loop
vertex 243.05099459999985 -107.44755394999947 1
vertex 249.43412930000008 -131.26974040000047 0
vertex 247.52275852399606 -124.13640652236052 0
endloop
endfacet
facet normal 0 0 1
outer loop
vertex 243.05099459999985 -107.44755394999947 1
vertex 247.52275852399606 -124.13640652236052 0
vertex 247.51970888047464 -124.12502509615095 0
endloop
endfacet
facet normal 0 0 1
outer loop
vertex 243.05099459999985 -107.44755394999947 1
vertex 247.51970888047464 -124.12502509615095 0
vertex 247.510594238873 -124.09100878569163 0
endloop
endfacet
facet normal 0 0 1
outer loop
vertex 243.05099459999985 -107.44755394999947 1
vertex 247.510594238873 -124.09100878569163 0
vertex 247.49551740762723 -124.03474127734468 0
endloop
endfacet
facet normal 0 0 1
outer loop
vertex 243.05099459999985 -107.44755394999947 1
vertex 247.49551740762723 -124.03474127734468 0
vertex 247.47465134225956 -123.9568680499998 0
endloop
endfacet
facet normal 0 0 1
outer loop
vertex 243.05099459999985 -107.44755394999947 1
vertex 247.47465134225956 -123.9568680499998 0
vertex 243.05099459999988 -107.44755394999956 0
endloop
endfacet
facet normal 0.9427930489492086 0.33337856387754633 0
outer loop
vertex 242.94696358964 -107.1533547300447 1
vertex 243.05099459999985 -107.44755394999947 1
vertex 243.05099459999988 -107.44755394999956 0
endloop
endfacet
facet normal 0.9427930489492086 0.33337856387754633 0
outer loop
vertex 242.94696358964 -107.1533547300447 1
vertex 243.05099459999988 -107.44755394999956 0
vertex 242.94696358964003 -107.15335473004478 0
endloop
endfacet
facet normal 0.8794604342754565 0.47597199974791143 0
outer loop
vertex 242.79843619945353 -106.87891849609734 1
vertex 242.94696358964 -107.1533547300447 1
vertex 242.94696358964003 -107.15335473004478 0
endloop
endfacet
facet normal 0.8794604342754565 0.47597199974791143 0
outer loop
vertex 242.79843619945353 -106.87891849609734 1
vertex 242.94696358964003 -107.15335473004478 0
vertex 242.7984361994534 -106.8789184960971 0
endloop
endfacet
facet normal 0.7947183156695824 0.6069784170292237 0
outer loop
vertex 242.60902816656795 -106.63092609859854 1
vertex 242.79843619945353 -106.87891849609734 1
vertex 242.7984361994534 -106.8789184960971 0
endloop
endfacet
facet normal 0.7947183156695824 0.6069784170292237 0
outer loop
vertex 242.60902816656795 -106.63092609859854 1
vertex 242.7984361994534 -106.8789184960971 0
vertex 242.60902816656807 -106.63092609859865 0
endloop
endfacet
facet normal 0.6906296474735846 0.7232086075473055 0
outer loop
vertex 242.38335042271697 -106.41541464166633 1
vertex 242.60902816656795 -106.63092609859854 1
vertex 242.60902816656807 -106.63092609859865 0
endloop
endfacet
facet normal 0.6906296474735846 0.7232086075473055 0
outer loop
vertex 242.38335042271697 -106.41541464166633 1
vertex 242.60902816656807 -106.63092609859865 0
vertex 242.38335042271697 -106.41541464166633 0
endloop
endfacet
facet normal 0.569728354653378 0.8218330742334206 0
outer loop
vertex 242.12689684614182 -106.23763051638831 1
vertex 242.38335042271697 -106.41541464166633 1
vertex 242.38335042271697 -106.41541464166633 0
endloop
endfacet
facet normal 0.569728354653378 0.8218330742334206 0
outer loop
vertex 242.12689684614182 -106.23763051638831 1
vertex 242.38335042271697 -106.41541464166633 0
vertex 242.12689684614185 -106.23763051638832 0
endloop
endfacet
facet normal 0.43495764716273994 0.9004509121404972 0
outer loop
vertex 241.84591051912682 -106.10190168316093 1
vertex 242.12689684614182 -106.23763051638831 1
vertex 242.12689684614185 -106.23763051638832 0
endloop
endfacet
facet normal 0.43495764716273994 0.9004509121404972 0
outer loop
vertex 241.84591051912682 -106.10190168316093 1
vertex 242.12689684614185 -106.23763051638832 0
vertex 241.8459105191269 -106.10190168316099 0
endloop
endfacet
facet normal 0.2895983707106321 0.9571482558526382 0
outer loop
vertex 241.547231746975 -106.01153231221748 1
vertex 241.84591051912682 -106.10190168316093 1
vertex 241.8459105191269 -106.10190168316099 0
endloop
endfacet
facet normal 0.2895983707106321 0.9571482558526382 0
outer loop
vertex 241.547231746975 -106.01153231221748 1
vertex 241.8459105191269 -106.10190168316099 0
vertex 241.54723174697477 -106.01153231221744 0
endloop
endfacet
facet normal 0.13718913815492334 0.9905448704487392 0
outer loop
vertex 241.23813153824764 -105.96872234721347 1
vertex 241.547231746975 -106.01153231221748 1
vertex 241.54723174697477 -106.01153231221744 0
endloop
endfacet
facet normal 0.13718913815492334 0.9905448704487392 0
outer loop
vertex 241.23813153824764 -105.96872234721347 1
vertex 241.54723174697477 -106.01153231221744 0
vertex 241.2381315382478 -105.96872234721349 0
endloop
endfacet
facet normal -0.018572741735681575 0.9998275117561128 0
outer loop
vertex 240.9261392000003 -105.97451789999997 1
vertex 241.23813153824764 -105.96872234721347 1
vertex 241.2381315382478 -105.96872234721349 0
endloop
endfacet
facet normal -0.018572741735681575 0.9998275117561128 0
outer loop
vertex 240.9261392000003 -105.97451789999997 1
vertex 241.2381315382478 -105.96872234721349 0
vertex 240.9261392000001 -105.9745179 0
endloop
endfacet
facet normal -0.09650024279699217 0.9953329609432824 0
outer loop
vertex 206.4509988499999 -109.31697670000003 1
vertex 240.9261392000003 -105.97451789999997 1
vertex 240.9261392000001 -105.9745179 0
endloop
endfacet
facet normal -0.09650024279699217 0.9953329609432824 0
outer loop
vertex 206.4509988499999 -109.31697670000003 1
vertex 240.9261392000001 -105.9745179 0
vertex 206.4509988499999 -109.31697670000003 0
endloop
endfacet
facet normal -0.13751605522139695 0.9904995378880022 0
outer loop
vertex 206.28746389097523 -109.33968108460158 1
vertex 206.4509988499999 -109.31697670000003 1
vertex 206.4509988499999 -109.31697670000003 0
endloop
endfacet
facet normal -0.13751605522139695 0.9904995378880022 0
outer loop
vertex 206.28746389097523 -109.33968108460158 1
vertex 206.4509988499999 -109.31697670000003 0
vertex 206.2874638909752 -109.33968108460158 0
endloop
endfacet
facet normal -0.21872476196020413 0.9757865947559702 0
outer loop
vertex 206.12635770000034 -109.37579339999992 1
vertex 206.28746389097523 -109.33968108460158 1
vertex 206.2874638909752 -109.33968108460158 0
endloop
endfacet
facet normal -0.21872476196020413 0.9757865947559702 0
outer loop
vertex 206.12635770000034 -109.37579339999992 1
vertex 206.2874638909752 -109.33968108460158 0
vertex 206.12635769999997 -109.37579339999999 0
endloop
endfacet
facet normal -0.2588189661725268 0.965925847438293 0
outer loop
vertex 179.40019619999998 -116.53704445 1
vertex 206.12635770000034 -109.37579339999992 1
vertex 206.12635769999997 -109.37579339999999 0
endloop
endfacet
facet normal -0.2588189661725268 0.965925847438293 0
outer loop
vertex 179.40019619999998 -116.53704445 1
vertex 206.12635769999997 -109.37579339999999 0
vertex 179.4001962000005 -116.53704444999984 0
endloop
endfacet
facet normal -0.2984689534848987 0.9544193437926692 0
outer loop
vertex 179.24262569514627 -116.5863203830473 1
vertex 179.40019619999998 -116.53704445 1
vertex 179.4001962000005 -116.53704444999984 0
endloop
endfacet
facet normal -0.2984689534848987 0.9544193437926692 0
outer loop
vertex 179.24262569514627 -116.5863203830473 1
vertex 179.4001962000005 -116.53704444999984 0
vertex 179.24262569514653 -116.58632038304721 0
endloop
endfacet
facet normal -0.3761852822024421 0.9265444584337382 0
outer loop
vertex 179.08965240000092 -116.6484288999996 1
vertex 179.24262569514627 -116.5863203830473 1
vertex 179.24262569514653 -116.58632038304721 0
endloop
endfacet
facet normal -0.3761852822024421 0.9265444584337382 0
outer loop
vertex 179.08965240000092 -116.6484288999996 1
vertex 179.24262569514653 -116.58632038304721 0
vertex 179.08965240000038 -116.64842889999983 0
endloop
endfacet
facet normal -0.41409464352469394 0.9102338305095876 0
outer loop
vertex 163.02475355000067 -123.9568680499997 1
vertex 179.08965240000092 -116.6484288999996 1
vertex 179.08965240000038 -116.64842889999983 0
endloop
endfacet
facet normal -0.41409464352469394 0.9102338305095876 0
outer loop
vertex 163.02475355000067 -123.9568680499997 1
vertex 179.08965240000038 -116.64842889999983 0
vertex 163.0247535500004 -123.9568680499998 0
endloop
endfacet
facet normal -0.3649582139972532 0.931023899819943 0
outer loop
vertex 162.82609564059177 -124.0347412773447 1
vertex 163.02475355000067 -123.9568680499997 1
vertex 163.0247535500004 -123.9568680499998 0
endloop
endfacet
facet normal -0.3649582139972532 0.931023899819943 0
outer loop
vertex 162.82609564059177 -124.0347412773447 1
vertex 163.0247535500004 -123.9568680499998 0
vertex 162.8260956405918 -124.03474127734468 0
endloop
endfacet
facet normal -0.26369365183751303 0.9646064783011759 0
outer loop
vertex 162.62027202380028 -124.09100878569167 1
vertex 162.82609564059177 -124.0347412773447 1
vertex 162.8260956405918 -124.03474127734468 0
endloop
endfacet
facet normal -0.26369365183751303 0.9646064783011759 0
outer loop
vertex 162.62027202380028 -124.09100878569167 1
vertex 162.8260956405918 -124.03474127734468 0
vertex 162.62026587301446 -124.09100878569163 0
endloop
endfacet
facet normal -0.15942764912733753 0.9872096153774692 0
outer loop
vertex 162.40963514835698 -124.12502509615092 1
vertex 162.62027202380028 -124.09100878569167 1
vertex 162.62026587301446 -124.09100878569163 0
endloop
endfacet
facet normal -0.15942764912733753 0.9872096153774692 0
outer loop
vertex 162.40963514835698 -124.12502509615092 1
vertex 162.62026587301446 -124.09100878569163 0
vertex 162.40963514835644 -124.12502509615095 0
endloop
endfacet
facet normal 0 0 -1
outer loop
vertex 162.19655709999992 -124.13640609999844 1
vertex 162.40962544600916 -124.12502509615092 1
vertex 162.40963514835698 -124.12502509615092 1
endloop
endfacet
facet normal 0 0 -1
outer loop
vertex 162.19655709999992 -124.13640609999844 1
vertex 162.40963514835698 -124.12502509615092 1
vertex 162.40963514835644 -124.12502509615095 0
endloop
endfacet
facet normal 0 0 -1
outer loop
vertex 162.19655709999992 -124.13640609999844 1
vertex 162.40963514835644 -124.12502509615095 0
vertex 162.19655709999992 -124.13640609999844 0
endloop
endfacet
facet normal 0 0 1
outer loop
vertex 141.0976965500003 -124.13641207407125 1
vertex 162.1965491928196 -124.1364065223605 1
vertex 162.19655709999992 -124.13640609999844 1
endloop
endfacet
facet normal 0 0 1
outer loop
vertex 141.0976965500003 -124.13641207407125 1
vertex 162.19655709999992 -124.13640609999844 1
vertex 162.19655709999992 -124.13640609999844 0
endloop
endfacet
facet normal 0 0 1
outer loop
vertex 141.0976965500003 -124.13641207407125 1
vertex 162.19655709999992 -124.13640609999844 0
vertex 141.09769654999988 -124.13641207407122 0
endloop
endfacet
facet normal 0.05335573062423291 0.9985755685022313 0
outer loop
vertex 140.88462689157765 -124.12502729813237 1
vertex 141.0976965500003 -124.13641207407125 1
vertex 141.09769654999988 -124.13641207407122 0
endloop
endfacet
facet normal 0.05335573062423291 0.9985755685022313 0
outer loop
vertex 140.88462689157765 -124.12502729813237 1
vertex 141.09769654999988 -124.13641207407122 0
vertex 140.88462973936203 -124.12502729813238 0
endloop
endfacet
facet normal 0.15943381936577344 0.987208618906076 0
outer loop
vertex 140.67398830320104 -124.09100878569167 1
vertex 140.88462689157765 -124.12502729813237 1
vertex 140.88462973936203 -124.12502729813238 0
endloop
endfacet
facet normal 0.15943381936577344 0.987208618906076 0
outer loop
vertex 140.67398830320104 -124.09100878569167 1
vertex 140.88462973936203 -124.12502729813238 0
vertex 140.67398830320084 -124.09100878569163 0
endloop
endfacet
facet normal 0.2636972692914414 0.9646054893935847 0
outer loop
vertex 140.4681697135699 -124.03474350350956 1
vertex 140.67398830320104 -124.09100878569167 1
vertex 140.67398830320084 -124.09100878569163 0
endloop
endfacet
facet normal 0.2636972692914414 0.9646054893935847 0
outer loop
vertex 140.4681697135699 -124.03474350350956 1
vertex 140.67398830320084 -124.09100878569163 0
vertex 140.4681697135699 -124.03474350350955 0
endloop
endfacet
facet normal 0.36494636856241336 0.9310285431033288 0
outer loop
vertex 140.26951309999998 -123.95687369999999 1
vertex 140.4681697135699 -124.03474350350956 1
vertex 140.4681697135699 -124.03474350350955 0
endloop
endfacet
facet normal 0.36494636856241336 0.9310285431033288 0
outer loop
vertex 140.26951309999998 -123.95687369999999 1
vertex 140.4681697135699 -124.03474350350955 0
vertex 140.2695130999999 -123.95687369999996 0
endloop
endfacet
facet normal 0.41409495141154923 0.9102336904418924 0
outer loop
vertex 124.20461295000031 -116.6484288999996 1
vertex 140.26951309999998 -123.95687369999999 1
vertex 140.2695130999999 -123.95687369999996 0
endloop
endfacet
facet normal 0.41409495141154923 0.9102336904418924 0
outer loop
vertex 124.20461295000031 -116.6484288999996 1
vertex 140.2695130999999 -123.95687369999996 0
vertex 124.20461294999981 -116.64842889999983 0
endloop
endfacet
facet normal 0.37615339060633246 0.9265574060657873 0
outer loop
vertex 124.05163358657727 -116.58632255267207 1
vertex 124.20461295000031 -116.6484288999996 1
vertex 124.20461294999981 -116.64842889999983 0
endloop
endfacet
facet normal 0.37615339060633246 0.9265574060657873 0
outer loop
vertex 124.05163358657727 -116.58632255267207 1
vertex 124.20461294999981 -116.64842889999983 0
vertex 124.05163358657721 -116.58632255267206 0
endloop
endfacet
facet normal 0.29846660166484146 0.9544200792578922 0
outer loop
vertex 123.89405589999988 -116.53704445 1
vertex 124.05163358657727 -116.58632255267207 1
vertex 124.05163358657721 -116.58632255267206 0
endloop
endfacet
facet normal 0.29846660166484146 0.9544200792578922 0
outer loop
vertex 123.89405589999988 -116.53704445 1
vertex 124.05163358657721 -116.58632255267206 0
vertex 123.8940558999996 -116.53704444999984 0
endloop
endfacet
facet normal 0.2588190093414368 0.9659258358712213 0
outer loop
vertex 97.16790235000022 -109.37579339999992 1
vertex 123.89405589999988 -116.53704445 1
vertex 123.8940558999996 -116.53704444999984 0
endloop
endfacet
facet normal 0.2588190093414368 0.9659258358712213 0
outer loop
vertex 97.16790235000022 -109.37579339999992 1
vertex 123.8940558999996 -116.53704444999984 0
vertex 97.16790235 -109.37579339999999 0
endloop
endfacet
facet normal 0.21874527976207533 0.9757819954179374 0
outer loop
vertex 97.0067973090246 -109.33967898460153 1
vertex 97.16790235000022 -109.37579339999992 1
vertex 97.16790235 -109.37579339999999 0
endloop
endfacet
facet normal 0.21874527976207533 0.9757819954179374 0
outer loop
vertex 97.0067973090246 -109.33967898460153 1
vertex 97.16790235 -109.37579339999999 0
vertex 97.00679730902476 -109.33967898460156 0
endloop
endfacet
facet normal 0.13749065902703697 0.9905030634381256 0
outer loop
vertex 96.84326470000053 -109.31697920000008 1
vertex 97.0067973090246 -109.33967898460153 1
vertex 97.00679730902476 -109.33967898460156 0
endloop
endfacet
facet normal 0.13749065902703697 0.9905030634381256 0
outer loop
vertex 96.84326470000053 -109.31697920000008 1
vertex 97.00679730902476 -109.33967898460156 0
vertex 96.84326470000019 -109.31697920000003 0
endloop
endfacet
facet normal 0.0965001721670263 0.9953329677910475 0
outer loop
vertex 62.368124149999844 -105.97452285 1
vertex 96.84326470000053 -109.31697920000008 1
vertex 96.84326470000019 -109.31697920000003 0
endloop
endfacet
facet normal 0.0965001721670263 0.9953329677910475 0
outer loop
vertex 62.368124149999844 -105.97452285 1
vertex 96.84326470000019 -109.31697920000003 0
vertex 62.368124150000114 -105.97452285 0
endloop
endfacet
facet normal 0.01856285233330368 0.9998276954121905 0
outer loop
vertex 62.05612888328554 -105.9687303298575 1
vertex 62.368124149999844 -105.97452285 1
vertex 62.368124150000114 -105.97452285 0
endloop
endfacet
facet normal 0.01856285233330368 0.9998276954121905 0
outer loop
vertex 62.05612888328554 -105.9687303298575 1
vertex 62.368124150000114 -105.97452285 0
vertex 62.05612888328551 -105.9687303298575 0
endloop
endfacet
facet normal -0.1371853063986635 0.9905454011342968 0
outer loop
vertex 61.74703014753575 -106.01153887222488 1
vertex 62.05612888328554 -105.9687303298575 1
vertex 62.05612888328551 -105.9687303298575 0
endloop
endfacet
facet normal -0.1371853063986635 0.9905454011342968 0
outer loop
vertex 61.74703014753575 -106.01153887222488 1
vertex 62.05612888328551 -105.9687303298575 0
vertex 61.747030147535696 -106.01153887222488 0
endloop
endfacet
facet normal -0.2895938740553126 0.9571496163660286 0
outer loop
vertex 61.44835253416889 -106.10190636093255 1
vertex 61.74703014753575 -106.01153887222488 1
vertex 61.747030147535696 -106.01153887222488 0
endloop
endfacet
facet normal -0.2895938740553126 0.9571496163660286 0
outer loop
vertex 61.44835253416889 -106.10190636093255 1
vertex 61.747030147535696 -106.01153887222488 0
vertex 61.44835253416903 -106.10190636093247 0
endloop
endfacet
facet normal -0.4349526698185855 0.9004533164010695 0
outer loop
vertex 61.16736694644858 -106.23763292146981 1
vertex 61.44835253416889 -106.10190636093255 1
vertex 61.44835253416903 -106.10190636093247 0
endloop
endfacet
facet normal -0.4349526698185855 0.9004533164010695 0
outer loop
vertex 61.16736694644858 -106.23763292146981 1
vertex 61.44835253416903 -106.10190636093247 0
vertex 61.167366946448595 -106.2376329214698 0
endloop
endfacet
facet normal -0.5697231300492152 0.8218366961184717 0
outer loop
vertex 60.9109135991591 -106.41541464166633 1
vertex 61.16736694644858 -106.23763292146981 1
vertex 61.167366946448595 -106.2376329214698 0
endloop
endfacet
facet normal -0.5697231300492152 0.8218366961184717 0
outer loop
vertex 60.9109135991591 -106.41541464166633 1
vertex 61.167366946448595 -106.2376329214698 0
vertex 60.910913599159116 -106.41541464166633 0
endloop
endfacet
facet normal -0.6906244498418678 0.7232135710014141 0
outer loop
vertex 60.68523550281165 -106.63092316652437 1
vertex 60.9109135991591 -106.41541464166633 1
vertex 60.910913599159116 -106.41541464166633 0
endloop
endfacet
facet normal -0.6906244498418678 0.7232135710014141 0
outer loop
vertex 60.68523550281165 -106.63092316652437 1
vertex 60.910913599159116 -106.41541464166633 0
vertex 60.68523550281162 -106.6309231665244 0
endloop
endfacet
facet normal -0.7947134497906801 0.6069847878833506 0
outer loop
vertex 60.49582648598184 -106.87891273099301 1
vertex 60.68523550281165 -106.63092316652437 1
vertex 60.68523550281162 -106.6309231665244 0
endloop
endfacet
facet normal -0.7947134497906801 0.6069847878833506 0
outer loop
vertex 60.49582648598184 -106.87891273099301 1
vertex 60.68523550281162 -106.6309231665244 0
vertex 60.49582648598194 -106.87891273099288 0
endloop
endfacet
facet normal -0.879456223718796 0.4759797795729091 0
outer loop
vertex 60.34729745546991 -107.15334619622098 1
vertex 60.49582648598184 -106.87891273099301 1
vertex 60.49582648598194 -106.87891273099288 0
endloop
endfacet
facet normal -0.879456223718796 0.4759797795729091 0
outer loop
vertex 60.34729745546991 -107.15334619622098 1
vertex 60.49582648598194 -106.87891273099288 0
vertex 60.3472974554699 -107.15334619622104 0
endloop
endfacet
facet normal -0.9427950183248262 0.3333729944399976 0
outer loop
vertex 60.243268299999954 -107.44754570000015 1
vertex 60.34729745546991 -107.15334619622098 1
vertex 60.3472974554699 -107.15334619622104 0
endloop
endfacet
facet normal -0.9427950183248262 0.3333729944399976 0
outer loop
vertex 60.243268299999954 -107.44754570000015 1
vertex 60.3472974554699 -107.15334619622104 0
vertex 60.24326829999997 -107.4475457000001 0
endloop
endfacet
facet normal 0 0 -1
outer loop
vertex 53.86012674999998 -131.26974465000012 1
vertex 55.7714982254439 -124.13641207407125 1
vertex 55.77454876819545 -124.12502729813237 1
endloop
endfacet
facet normal 0 0 -1
outer loop
vertex 53.86012674999998 -131.26974465000012 1
vertex 55.77454876819545 -124.12502729813237 1
vertex 55.783664004815094 -124.09100878569167 1
endloop
endfacet
facet normal 0 0 -1
outer loop
vertex 53.86012674999998 -131.26974465000012 1
vertex 55.783664004815094 -124.09100878569167 1
vertex 55.798740247829976 -124.03474350350956 1
endloop
endfacet
facet normal 0 0 -1
outer loop
vertex 53.86012674999998 -131.26974465000012 1
vertex 55.798740247829976 -124.03474350350956 1
vertex 55.8196054072267 -123.95687369999999 1
endloop
endfacet
facet normal 0 0 -1
outer loop
vertex 53.86012674999998 -131.26974465000012 1
vertex 55.8196054072267 -123.95687369999999 1
vertex 60.243268299999954 -107.44754570000015 1
endloop
endfacet
facet normal 0 0 -1
outer loop
vertex 53.86012674999998 -131.26974465000012 1
vertex 60.243268299999954 -107.44754570000015 1
vertex 60.24326829999997 -107.4475457000001 0
endloop
endfacet
facet normal 0 0 -1
outer loop
vertex 53.86012674999998 -131.26974465000012 1
vertex 60.24326829999997 -107.4475457000001 0
vertex 55.819605407226696 -123.95687369999996 0
endloop
endfacet
facet normal 0 0 -1
outer loop
vertex 53.86012674999998 -131.26974465000012 1
vertex 55.819605407226696 -123.95687369999996 0
vertex 55.79874024782996 -124.03474350350955 0
endloop
endfacet
facet normal 0 0 -1
outer loop
vertex 53.86012674999998 -131.26974465000012 1
vertex 55.79874024782996 -124.03474350350955 0
vertex 55.78366400481509 -124.09100878569163 0
endloop
endfacet
facet normal 0 0 -1
outer loop
vertex 53.86012674999998 -131.26974465000012 1
vertex 55.78366400481509 -124.09100878569163 0
vertex 55.77454876819543 -124.12502729813238 0
endloop
endfacet
facet normal 0 0 -1
outer loop
vertex 53.86012674999998 -131.26974465000012 1
vertex 55.77454876819543 -124.12502729813238 0
vertex 55.77149822544389 -124.13641207407122 0
endloop
endfacet
facet normal 0 0 -1
outer loop
vertex 53.86012674999998 -131.26974465000012 1
vertex 55.77149822544389 -124.13641207407122 0
vertex 53.86012675000002 -131.2697446499999 0
endloop
endfacet
facet normal -0.9801536559142551 0.1982392766278169 0
outer loop
vertex 53.810812999448615 -131.51356598099153 1
vertex 53.86012674999998 -131.26974465000012 1
vertex 53.86012675000002 -131.2697446499999 0
endloop
endfacet
facet normal -0.9801536559142551 0.1982392766278169 0
outer loop
vertex 53.810812999448615 -131.51356598099153 1
vertex 53.86012675000002 -131.2697446499999 0
vertex 53.810812999448615 -131.51356598099184 0
endloop
endfacet
facet normal -0.9971812046104329 0.07503096142050936 0
outer loop
vertex 53.79214839282743 -131.76162300149286 1
vertex 53.810812999448615 -131.51356598099153 1
vertex 53.810812999448615 -131.51356598099184 0
endloop
endfacet
facet normal -0.9971812046104329 0.07503096142050936 0
outer loop
vertex 53.79214839282743 -131.76162300149286 1
vertex 53.810812999448615 -131.51356598099184 0
vertex 53.79214839282743 -131.76162300149272 0
endloop
endfacet
facet normal -0.9987821343585035 -0.04933809974322402 0
outer loop
vertex 53.80442167582565 -132.0100787696309 1
vertex 53.79214839282743 -131.76162300149286 1
vertex 53.79214839282743 -131.76162300149272 0
endloop
endfacet
facet normal -0.9987821343585035 -0.04933809974322402 0
outer loop
vertex 53.80442167582565 -132.0100787696309 1
vertex 53.79214839282743 -131.76162300149272 0
vertex 53.804421675825665 -132.0100787696308 0
endloop
endfacet
facet normal -0.9849316784128964 -0.17294388933626698 0
outer loop
vertex 53.84744297797724 -132.25508962482752 1
vertex 53.80442167582565 -132.0100787696309 1
vertex 53.804421675825665 -132.0100787696308 0
endloop
endfacet
facet normal -0.9849316784128964 -0.17294388933626698 0
outer loop
vertex 53.84744297797724 -132.25508962482752 1
vertex 53.804421675825665 -132.0100787696308 0
vertex 53.84744297797724 -132.2550896248276 0
endloop
endfacet
facet normal -0.9558493904772074 -0.29385701067755926 0
outer loop
vertex 53.92054350000001 -132.49286930000002 1
vertex 53.84744297797724 -132.25508962482752 1
vertex 53.84744297797724 -132.2550896248276 0
endloop
endfacet
facet normal -0.9558493904772074 -0.29385701067755926 0
outer loop
vertex 53.92054350000001 -132.49286930000002 1
vertex 53.84744297797724 -132.2550896248276 0
vertex 53.92054350000001 -132.4928693 0
endloop
endfacet
facet normal -0.9357193502992007 -0.35274537201165623 0
outer loop
vertex 73.30139184999996 -183.90398979999983 1
vertex 53.92054350000001 -132.49286930000002 1
vertex 53.92054350000001 -132.4928693 0
endloop
endfacet
facet normal -0.9357193502992007 -0.35274537201165623 0
outer loop
vertex 73.30139184999996 -183.90398979999983 1
vertex 53.92054350000001 -132.4928693 0
vertex 73.30139184999993 -183.90398870000018 0
endloop
endfacet
endsolid csg.js
