solid csg.js
facet normal 0 0 -1
outer loop
vertex 245.94715854697486 -89.59079276221745 0
vertex 246.2458373191267 -89.6811621331609 0
vertex 246.526823646142 -89.8168909663884 0
endloop
endfacet
facet normal 0 0 -1
outer loop
vertex 245.94715854697486 -89.59079276221745 0
vertex 246.526823646142 -89.8168909663884 0
vertex 246.7832772227169 -89.99467509166625 0
endloop
endfacet
facet normal 0 0 -1
outer loop
vertex 245.94715854697486 -89.59079276221745 0
vertex 246.7832772227169 -89.99467509166625 0
vertex 247.0089549665678 -90.2101865485984 0
endloop
endfacet
facet normal 0 0 -1
outer loop
vertex 245.94715854697486 -89.59079276221745 0
vertex 247.0089549665678 -90.2101865485984 0
vertex 247.1983629994536 -90.45817894609749 0
endloop
endfacet
facet normal 0 0 -1
outer loop
vertex 245.94715854697486 -89.59079276221745 0
vertex 247.1983629994536 -90.45817894609749 0
vertex 247.34689038963998 -90.73261518004469 0
endloop
endfacet
facet normal 0 0 -1
outer loop
vertex 245.94715854697486 -89.59079276221745 0
vertex 247.34689038963998 -90.73261518004469 0
vertex 247.45092139999994 -91.02681439999981 0
endloop
endfacet
facet normal 0 0 -1
outer loop
vertex 245.94715854697486 -89.59079276221745 0
vertex 247.45092139999994 -91.02681439999981 0
vertex 251.87457584013052 -107.53612850000013 0
endloop
endfacet
facet normal 0 0 -1
outer loop
vertex 245.94715854697486 -89.59079276221745 0
vertex 251.87457584013052 -107.53612850000013 0
vertex 167.42466539999975 -107.53612850000013 0
endloop
endfacet
facet normal 0 0 -1
outer loop
vertex 245.94715854697486 -89.59079276221745 0
vertex 167.42466539999975 -107.53612850000013 0
vertex 183.48957600000023 -100.2276898999999 0
endloop
endfacet
facet normal 0 0 -1
outer loop
vertex 245.94715854697486 -89.59079276221745 0
vertex 183.48957600000023 -100.2276898999999 0
vertex 183.64255236342282 -100.16558510267205 0
endloop
endfacet
facet normal 0 0 -1
outer loop
vertex 245.94715854697486 -89.59079276221745 0
vertex 183.64255236342282 -100.16558510267205 0
vertex 183.80013299999987 -100.11630995000004 0
endloop
endfacet
facet normal 0 0 -1
outer loop
vertex 245.94715854697486 -89.59079276221745 0
vertex 183.80013299999987 -100.11630995000004 0
vertex 210.52628129999982 -92.95505440000005 0
endloop
endfacet
facet normal 0 0 -1
outer loop
vertex 245.94715854697486 -89.59079276221745 0
vertex 210.52628129999982 -92.95505440000005 0
vertex 210.68738569097587 -92.91894158460146 0
endloop
endfacet
facet normal 0 0 -1
outer loop
vertex 245.94715854697486 -89.59079276221745 0
vertex 210.68738569097587 -92.91894158460146 0
vertex 210.85092064999975 -92.89623720000002 0
endloop
endfacet
facet normal 0 0 -1
outer loop
vertex 245.94715854697486 -89.59079276221745 0
vertex 210.85092064999975 -92.89623720000002 0
vertex 245.3260627999999 -89.5537788 0
endloop
endfacet
facet normal 0 0 -1
outer loop
vertex 245.94715854697486 -89.59079276221745 0
vertex 245.3260627999999 -89.5537788 0
vertex 245.63805833824782 -89.54798279721348 0
endloop
endfacet
facet normal 0 0 -1
outer loop
vertex 66.76803605000005 -89.55378335 0
vertex 101.2431884999999 -92.89624019999998 0
vertex 101.40672378274478 -92.91893955730788 0
endloop
endfacet
facet normal 0 0 -1
outer loop
vertex 66.76803605000005 -89.55378335 0
vertex 101.40672378274478 -92.91893955730788 0
vertex 101.56782924999999 -92.9550451 0
endloop
endfacet
facet normal 0 0 -1
outer loop
vertex 66.76803605000005 -89.55378335 0
vertex 101.56782924999999 -92.9550451 0
vertex 128.29397969999994 -100.11630579999999 0
endloop
endfacet
facet normal 0 0 -1
outer loop
vertex 66.76803605000005 -89.55378335 0
vertex 128.29397969999994 -100.11630579999999 0
vertex 128.45155548657718 -100.16558305267206 0
endloop
endfacet
facet normal 0 0 -1
outer loop
vertex 66.76803605000005 -89.55378335 0
vertex 128.45155548657718 -100.16558305267206 0
vertex 128.60453485000008 -100.22768790000003 0
endloop
endfacet
facet normal 0 0 -1
outer loop
vertex 66.76803605000005 -89.55378335 0
vertex 128.60453485000008 -100.22768790000003 0
vertex 144.66943679999997 -107.53613459999997 0
endloop
endfacet
facet normal 0 0 -1
outer loop
vertex 66.76803605000005 -89.55378335 0
vertex 144.66943679999997 -107.53613459999997 0
vertex 60.21953560896534 -107.53613459999997 0
endloop
endfacet
facet normal 0 0 -1
outer loop
vertex 66.76803605000005 -89.55378335 0
vertex 60.21953560896534 -107.53613459999997 0
vertex 64.64319209999998 -91.02680670000002 0
endloop
endfacet
facet normal 0 0 -1
outer loop
vertex 66.76803605000005 -89.55378335 0
vertex 64.64319209999998 -91.02680670000002 0
vertex 64.74722867170922 -90.73260898544862 0
endloop
endfacet
facet normal 0 0 -1
outer loop
vertex 66.76803605000005 -89.55378335 0
vertex 64.74722867170922 -90.73260898544862 0
vertex 64.89575634226843 -90.45817894609749 0
endloop
endfacet
facet normal 0 0 -1
outer loop
vertex 66.76803605000005 -89.55378335 0
vertex 64.89575634226843 -90.45817894609749 0
vertex 65.08516341135774 -90.21018944797916 0
endloop
endfacet
facet normal 0 0 -1
outer loop
vertex 66.76803605000005 -89.55378335 0
vertex 65.08516341135774 -90.21018944797916 0
vertex 65.31083909010948 -89.99468167890014 0
endloop
endfacet
facet normal 0 0 -1
outer loop
vertex 66.76803605000005 -89.55378335 0
vertex 65.31083909010948 -89.99468167890014 0
vertex 65.56728969282197 -89.81690035569108 0
endloop
endfacet
facet normal 0 0 -1
outer loop
vertex 66.76803605000005 -89.55378335 0
vertex 65.56728969282197 -89.81690035569108 0
vertex 65.84827237127503 -89.68117325846022 0
endloop
endfacet
facet normal 0 0 -1
outer loop
vertex 66.76803605000005 -89.55378335 0
vertex 65.84827237127503 -89.68117325846022 0
vertex 66.14694708611856 -89.59080442961698 0
endloop
endfacet
facet normal 0 0 -1
outer loop
vertex 66.76803605000005 -89.55378335 0
vertex 66.14694708611856 -89.59080442961698 0
vertex 66.45604311584883 -89.54799374265079 0
endloop
endfacet
facet normal 0 0 -1
outer loop
vertex 251.87457584013052 -107.53612850000013 0
vertex 251.8954414729315 -107.61400015350944 0
vertex 167.2260122364305 -107.61400015350944 0
endloop
endfacet
facet normal 0 0 -1
outer loop
vertex 251.87457584013052 -107.53612850000013 0
vertex 167.2260122364305 -107.61400015350944 0
vertex 167.42466539999975 -107.53612850000013 0
endloop
endfacet
facet normal 0 0 -1
outer loop
vertex 144.66943679999997 -107.53613459999997 0
vertex 144.8680913094078 -107.61400552734456 0
vertex 60.19867017850703 -107.61400552734456 0
endloop
endfacet
facet normal 0 0 -1
outer loop
vertex 144.66943679999997 -107.53613459999997 0
vertex 60.19867017850703 -107.61400552734456 0
vertex 60.21953560896534 -107.53613459999997 0
endloop
endfacet
facet normal 0 0 -1
outer loop
vertex 251.8954414729315 -107.61400015350944 0
vertex 251.91051769983244 -107.67026543569163 0
vertex 167.02019364679904 -107.67026543569163 0
endloop
endfacet
facet normal 0 0 -1
outer loop
vertex 251.8954414729315 -107.61400015350944 0
vertex 167.02019364679904 -107.67026543569163 0
vertex 167.2260122364305 -107.61400015350944 0
endloop
endfacet
facet normal 0 0 -1
outer loop
vertex 144.8680913094078 -107.61400552734456 0
vertex 145.0739149262 -107.67027135425663 0
vertex 60.18359381125873 -107.67027135425663 0
endloop
endfacet
facet normal 0 0 -1
outer loop
vertex 144.8680913094078 -107.61400552734456 0
vertex 60.18359381125873 -107.67027135425663 0
vertex 60.19867017850703 -107.61400552734456 0
endloop
endfacet
facet normal 0 0 -1
outer loop
vertex 251.91051769983244 -107.67026543569163 0
vertex 251.91963292670943 -107.70428394813237 0
vertex 166.8095522106379 -107.70428394813237 0
endloop
endfacet
facet normal 0 0 -1
outer loop
vertex 251.91051769983244 -107.67026543569163 0
vertex 166.8095522106379 -107.70428394813237 0
vertex 167.02019364679904 -107.67026543569163 0
endloop
endfacet
facet normal 0 0 -1
outer loop
vertex 145.0739149262 -107.67027135425663 0
vertex 145.28456150399046 -107.70428934615089 0
vertex 60.174478727254915 -107.70428934615089 0
endloop
endfacet
facet normal 0 0 -1
outer loop
vertex 145.0739149262 -107.67027135425663 0
vertex 60.174478727254915 -107.70428934615089 0
vertex 60.18359381125873 -107.67027135425663 0
endloop
endfacet
facet normal 0 0 -1
outer loop
vertex 251.91963292670943 -107.70428394813237 0
vertex 251.92268310865077 -107.71566738967678 0
vertex 166.5964735059118 -107.71566738967678 0
endloop
endfacet
facet normal 0 0 -1
outer loop
vertex 251.91963292670943 -107.70428394813237 0
vertex 166.5964735059118 -107.71566738967678 0
vertex 166.8095522106379 -107.70428394813237 0
endloop
endfacet
facet normal 0 0 -1
outer loop
vertex 166.5964735059118 -107.71566738967678 0
vertex 251.92268310865077 -107.71566738967678 0
vertex 159.49758419838977 -107.7156698027535 0
endloop
endfacet
facet normal 0 0 -1
outer loop
vertex 166.5964735059118 -107.71566738967678 0
vertex 159.49758419838977 -107.7156698027535 0
vertex 165.04521074888987 -107.71566738967678 0
endloop
endfacet
facet normal 0 0 -1
outer loop
vertex 145.28456150399046 -107.70428934615089 0
vertex 145.49763339999998 -107.71567250612419 0
vertex 60.17142862189573 -107.71567250612419 0
endloop
endfacet
facet normal 0 0 -1
outer loop
vertex 145.28456150399046 -107.70428934615089 0
vertex 60.17142862189573 -107.71567250612419 0
vertex 60.174478727254915 -107.70428934615089 0
endloop
endfacet
facet normal 0 0 1
outer loop
vertex 166.5964735059118 -107.71566738967678 0
vertex 165.04521074888987 -107.71566738967678 0
vertex 159.49758419838977 -107.7156698027535 0
endloop
endfacet
facet normal 0 0 1
outer loop
vertex 166.5964735059118 -107.71566738967678 0
vertex 159.49758419838977 -107.7156698027535 0
vertex 251.92268310865077 -107.71566738967678 0
endloop
endfacet
facet normal 0 0 1
outer loop
vertex 166.5964735059118 -107.71566738967678 0
vertex 251.92268310865077 -107.71566738967678 0
vertex 159.49758419838977 -107.7156698027535 0
endloop
endfacet
facet normal 0 0 1
outer loop
vertex 166.5964735059118 -107.71566738967678 0
vertex 159.49758419838977 -107.7156698027535 0
vertex 155.4389584836465 -107.7156698027535 0
endloop
endfacet
facet normal 0 0 1
outer loop
vertex 166.5964735059118 -107.71566738967678 0
vertex 155.4389584836465 -107.7156698027535 0
vertex 144.6770705926627 -107.71567250612419 0
endloop
endfacet
facet normal 0 0 1
outer loop
vertex 166.5964735059118 -107.71566738967678 0
vertex 144.6770705926627 -107.71567250612419 0
vertex 155.4389584836465 -107.7156698027535 0
endloop
endfacet
facet normal 0 0 -1
outer loop
vertex 145.49763339999998 -107.71567250612419 0
vertex 166.5964735059118 -107.71566738967678 0
vertex 251.92268310865077 -107.71566738967678 0
endloop
endfacet
facet normal 0 0 -1
outer loop
vertex 145.49763339999998 -107.71567250612419 0
vertex 251.92268310865077 -107.71566738967678 0
vertex 253.87996130000013 -115.02033390000058 0
endloop
endfacet
facet normal 0 0 -1
outer loop
vertex 145.49763339999998 -107.71567250612419 0
vertex 253.87996130000013 -115.02033390000058 0
vertex 253.92642880608662 -115.24426777580742 0
endloop
endfacet
facet normal 0 0 -1
outer loop
vertex 145.49763339999998 -107.71567250612419 0
vertex 253.92642880608662 -115.24426777580742 0
vertex 253.9470224191401 -115.47204394237241 0
endloop
endfacet
facet normal 0 0 -1
outer loop
vertex 145.49763339999998 -107.71567250612419 0
vertex 253.9470224191401 -115.47204394237241 0
vertex 253.94147719637292 -115.7006819301563 0
endloop
endfacet
facet normal 0 0 -1
outer loop
vertex 145.49763339999998 -107.71567250612419 0
vertex 253.94147719637292 -115.7006819301563 0
vertex 253.90986564999992 -115.92719195000053 0
endloop
endfacet
facet normal 0 0 -1
outer loop
vertex 145.49763339999998 -107.71567250612419 0
vertex 253.90986564999992 -115.92719195000053 0
vertex 239.70801300000022 -187.50777169999907 0
endloop
endfacet
facet normal 0 0 -1
outer loop
vertex 145.49763339999998 -107.71567250612419 0
vertex 239.70801300000022 -187.50777169999907 0
vertex 239.62162574675716 -187.8135082514967 0
endloop
endfacet
facet normal 0 0 -1
outer loop
vertex 145.49763339999998 -107.71567250612419 0
vertex 239.62162574675716 -187.8135082514967 0
vertex 239.48791738412115 -188.10170414572335 0
endloop
endfacet
facet normal 0 0 -1
outer loop
vertex 145.49763339999998 -107.71567250612419 0
vertex 239.48791738412115 -188.10170414572335 0
vertex 239.31026036879155 -188.3650912839668 0
endloop
endfacet
facet normal 0 0 -1
outer loop
vertex 145.49763339999998 -107.71567250612419 0
vertex 239.31026036879155 -188.3650912839668 0
vertex 239.09313764458147 -188.5970234342181 0
endloop
endfacet
facet normal 0 0 -1
outer loop
vertex 145.49763339999998 -107.71567250612419 0
vertex 239.09313764458147 -188.5970234342181 0
vertex 238.84202802116138 -188.791648090194 0
endloop
endfacet
facet normal 0 0 -1
outer loop
vertex 145.49763339999998 -107.71567250612419 0
vertex 238.84202802116138 -188.791648090194 0
vertex 238.56326792341537 -188.944054151729 0
endloop
endfacet
facet normal 0 0 -1
outer loop
vertex 145.49763339999998 -107.71567250612419 0
vertex 238.56326792341537 -188.944054151729 0
vertex 238.26389150000048 -189.05039584999986 0
endloop
endfacet
facet normal 0 0 -1
outer loop
vertex 145.49763339999998 -107.71567250612419 0
vertex 238.26389150000048 -189.05039584999986 0
vertex 177.90092769999913 -205.2246095000002 0
endloop
endfacet
facet normal 0 0 -1
outer loop
vertex 145.49763339999998 -107.71567250612419 0
vertex 177.90092769999913 -205.2246095000002 0
vertex 177.7305868347139 -205.26237263736334 0
endloop
endfacet
facet normal 0 0 -1
outer loop
vertex 145.49763339999998 -107.71567250612419 0
vertex 177.7305868347139 -205.26237263736334 0
vertex 177.55760132087386 -205.28515042235549 0
endloop
endfacet
facet normal 0 0 -1
outer loop
vertex 145.49763339999998 -107.71567250612419 0
vertex 177.55760132087386 -205.28515042235549 0
vertex 177.38328885000004 -205.29276474999998 0
endloop
endfacet
facet normal 0 0 -1
outer loop
vertex 145.49763339999998 -107.71567250612419 0
vertex 177.38328885000004 -205.29276474999998 0
vertex 134.71081750000008 -205.2927578 0
endloop
endfacet
facet normal 0 0 -1
outer loop
vertex 145.49763339999998 -107.71567250612419 0
vertex 134.71081750000008 -205.2927578 0
vertex 134.53650686944084 -205.28514615424194 0
endloop
endfacet
facet normal 0 0 -1
outer loop
vertex 145.49763339999998 -107.71567250612419 0
vertex 134.53650686944084 -205.28514615424194 0
vertex 134.3635213600232 -205.2623750534543 0
endloop
endfacet
facet normal 0 0 -1
outer loop
vertex 145.49763339999998 -107.71567250612419 0
vertex 134.3635213600232 -205.2623750534543 0
vertex 134.19317875000007 -205.2246139 0
endloop
endfacet
facet normal 0 0 -1
outer loop
vertex 145.49763339999998 -107.71567250612419 0
vertex 134.19317875000007 -205.2246139 0
vertex 73.83021740000034 -189.0504026000001 0
endloop
endfacet
facet normal 0 0 -1
outer loop
vertex 145.49763339999998 -107.71567250612419 0
vertex 73.83021740000034 -189.0504026000001 0
vertex 73.53083526503815 -188.94406294874236 0
endloop
endfacet
facet normal 0 0 -1
outer loop
vertex 145.49763339999998 -107.71567250612419 0
vertex 73.53083526503815 -188.94406294874236 0
vertex 73.25207363007455 -188.79165459415066 0
endloop
endfacet
facet normal 0 0 -1
outer loop
vertex 145.49763339999998 -107.71567250612419 0
vertex 73.25207363007455 -188.79165459415066 0
vertex 73.00096309099347 -188.59702712219698 0
endloop
endfacet
facet normal 0 0 -1
outer loop
vertex 145.49763339999998 -107.71567250612419 0
vertex 73.00096309099347 -188.59702712219698 0
vertex 72.783840193466 -188.3650912839668 0
endloop
endfacet
facet normal 0 0 -1
outer loop
vertex 145.49763339999998 -107.71567250612419 0
vertex 72.783840193466 -188.3650912839668 0
vertex 72.60618383599511 -188.10170124405593 0
endloop
endfacet
facet normal 0 0 -1
outer loop
vertex 145.49763339999998 -107.71567250612419 0
vertex 72.60618383599511 -188.10170124405593 0
vertex 72.47247701490228 -187.81350193512188 0
endloop
endfacet
facet normal 0 0 -1
outer loop
vertex 145.49763339999998 -107.71567250612419 0
vertex 72.47247701490228 -187.81350193512188 0
vertex 72.3860937 -187.50776630000001 0
endloop
endfacet
facet normal 0 0 -1
outer loop
vertex 145.49763339999998 -107.71567250612419 0
vertex 72.3860937 -187.50776630000001 0
vertex 58.18423640000002 -115.92719195000053 0
endloop
endfacet
facet normal 0 0 -1
outer loop
vertex 145.49763339999998 -107.71567250612419 0
vertex 58.18423640000002 -115.92719195000053 0
vertex 58.15262659158715 -115.7006819301563 0
endloop
endfacet
facet normal 0 0 -1
outer loop
vertex 145.49763339999998 -107.71567250612419 0
vertex 58.15262659158715 -115.7006819301563 0
vertex 58.14708639198592 -115.47204394237241 0
endloop
endfacet
facet normal 0 0 -1
outer loop
vertex 145.49763339999998 -107.71567250612419 0
vertex 58.14708639198592 -115.47204394237241 0
vertex 58.16768504783278 -115.24426777580742 0
endloop
endfacet
facet normal 0 0 -1
outer loop
vertex 145.49763339999998 -107.71567250612419 0
vertex 58.16768504783278 -115.24426777580742 0
vertex 58.21415319999991 -115.02033140000036 0
endloop
endfacet
facet normal 0 0 -1
outer loop
vertex 145.49763339999998 -107.71567250612419 0
vertex 58.21415319999991 -115.02033140000036 0
vertex 60.17142862189573 -107.71567250612419 0
endloop
endfacet
facet normal 0 0 1
outer loop
vertex 177.55760132087437 -205.28515042235546 1
vertex 177.73058683471356 -205.26237263736343 1
vertex 177.90092769999956 -205.22460950000013 1
endloop
endfacet
facet normal 0 0 1
outer loop
vertex 177.55760132087437 -205.28515042235546 1
vertex 177.90092769999956 -205.22460950000013 1
vertex 238.2638915000001 -189.05039584999997 1
endloop
endfacet
facet normal 0 0 1
outer loop
vertex 177.55760132087437 -205.28515042235546 1
vertex 238.2638915000001 -189.05039584999997 1
vertex 238.5632679234154 -188.944054151729 1
endloop
endfacet
facet normal 0 0 1
outer loop
vertex 177.55760132087437 -205.28515042235546 1
vertex 238.5632679234154 -188.944054151729 1
vertex 238.84202802116113 -188.79164809019417 1
endloop
endfacet
facet normal 0 0 1
outer loop
vertex 177.55760132087437 -205.28515042235546 1
vertex 238.84202802116113 -188.79164809019417 1
vertex 239.09313764458182 -188.59702343421782 1
endloop
endfacet
facet normal 0 0 1
outer loop
vertex 177.55760132087437 -205.28515042235546 1
vertex 239.09313764458182 -188.59702343421782 1
vertex 239.31026036879138 -188.36509177981418 1
endloop
endfacet
facet normal 0 0 1
outer loop
vertex 177.55760132087437 -205.28515042235546 1
vertex 239.31026036879138 -188.36509177981418 1
vertex 239.48791738412092 -188.1017041457237 1
endloop
endfacet
facet normal 0 0 1
outer loop
vertex 177.55760132087437 -205.28515042235546 1
vertex 239.48791738412092 -188.1017041457237 1
vertex 239.62162574675725 -187.81350825149636 1
endloop
endfacet
facet normal 0 0 1
outer loop
vertex 177.55760132087437 -205.28515042235546 1
vertex 239.62162574675725 -187.81350825149636 1
vertex 239.70801300000014 -187.50777169999932 1
endloop
endfacet
facet normal 0 0 1
outer loop
vertex 177.55760132087437 -205.28515042235546 1
vertex 239.70801300000014 -187.50777169999932 1
vertex 253.90986564999986 -115.92719195000075 1
endloop
endfacet
facet normal 0 0 1
outer loop
vertex 177.55760132087437 -205.28515042235546 1
vertex 253.90986564999986 -115.92719195000075 1
vertex 253.94147719637292 -115.70068193015612 1
endloop
endfacet
facet normal 0 0 1
outer loop
vertex 177.55760132087437 -205.28515042235546 1
vertex 253.94147719637292 -115.70068193015612 1
vertex 253.9470224191401 -115.47204394237241 1
endloop
endfacet
facet normal 0 0 1
outer loop
vertex 177.55760132087437 -205.28515042235546 1
vertex 253.9470224191401 -115.47204394237241 1
vertex 253.92642880608662 -115.24426777580759 1
endloop
endfacet
facet normal 0 0 1
outer loop
vertex 177.55760132087437 -205.28515042235546 1
vertex 253.92642880608662 -115.24426777580759 1
vertex 253.87996129999996 -115.02033389999991 1
endloop
endfacet
facet normal 0 0 1
outer loop
vertex 177.55760132087437 -205.28515042235546 1
vertex 253.87996129999996 -115.02033389999991 1
vertex 251.92268447959785 -107.7156725061242 1
endloop
endfacet
facet normal 0 0 1
outer loop
vertex 177.55760132087437 -205.28515042235546 1
vertex 251.92268447959785 -107.7156725061242 1
vertex 166.59647350591203 -107.71566738967678 1
endloop
endfacet
facet normal 0 0 1
outer loop
vertex 177.55760132087437 -205.28515042235546 1
vertex 166.59647350591203 -107.71566738967678 1
vertex 145.49763340000038 -107.7156725061242 1
endloop
endfacet
facet normal 0 0 1
outer loop
vertex 177.55760132087437 -205.28515042235546 1
vertex 145.49763340000038 -107.7156725061242 1
vertex 60.171428621895735 -107.7156725061242 1
endloop
endfacet
facet normal 0 0 1
outer loop
vertex 177.55760132087437 -205.28515042235546 1
vertex 60.171428621895735 -107.7156725061242 1
vertex 58.21415319999997 -115.02033140000006 1
endloop
endfacet
facet normal 0 0 1
outer loop
vertex 177.55760132087437 -205.28515042235546 1
vertex 58.21415319999997 -115.02033140000006 1
vertex 58.16768504783278 -115.24426777580759 1
endloop
endfacet
facet normal 0 0 1
outer loop
vertex 177.55760132087437 -205.28515042235546 1
vertex 58.16768504783278 -115.24426777580759 1
vertex 58.14708639198592 -115.47204394237241 1
endloop
endfacet
facet normal 0 0 1
outer loop
vertex 177.55760132087437 -205.28515042235546 1
vertex 58.14708639198592 -115.47204394237241 1
vertex 58.15262659158715 -115.70068193015612 1
endloop
endfacet
facet normal 0 0 1
outer loop
vertex 177.55760132087437 -205.28515042235546 1
vertex 58.15262659158715 -115.70068193015612 1
vertex 58.1842364 -115.92719195000075 1
endloop
endfacet
facet normal 0 0 1
outer loop
vertex 177.55760132087437 -205.28515042235546 1
vertex 58.1842364 -115.92719195000075 1
vertex 72.38609370000005 -187.5077663000002 1
endloop
endfacet
facet normal 0 0 1
outer loop
vertex 177.55760132087437 -205.28515042235546 1
vertex 72.38609370000005 -187.5077663000002 1
vertex 72.47247701490222 -187.8135019351217 1
endloop
endfacet
facet normal 0 0 1
outer loop
vertex 177.55760132087437 -205.28515042235546 1
vertex 72.47247701490222 -187.8135019351217 1
vertex 72.6061838359952 -188.10170124405607 1
endloop
endfacet
facet normal 0 0 1
outer loop
vertex 177.55760132087437 -205.28515042235546 1
vertex 72.6061838359952 -188.10170124405607 1
vertex 72.78384019346595 -188.36509177981418 1
endloop
endfacet
facet normal 0 0 1
outer loop
vertex 177.55760132087437 -205.28515042235546 1
vertex 72.78384019346595 -188.36509177981418 1
vertex 73.0009630909935 -188.597027122197 1
endloop
endfacet
facet normal 0 0 1
outer loop
vertex 177.55760132087437 -205.28515042235546 1
vertex 73.0009630909935 -188.597027122197 1
vertex 73.2520736300746 -188.7916545941507 1
endloop
endfacet
facet normal 0 0 1
outer loop
vertex 177.55760132087437 -205.28515042235546 1
vertex 73.2520736300746 -188.7916545941507 1
vertex 73.5308352650381 -188.94406294874236 1
endloop
endfacet
facet normal 0 0 1
outer loop
vertex 177.55760132087437 -205.28515042235546 1
vertex 73.5308352650381 -188.94406294874236 1
vertex 73.83021739999991 -189.05040259999998 1
endloop
endfacet
facet normal 0 0 1
outer loop
vertex 177.55760132087437 -205.28515042235546 1
vertex 73.83021739999991 -189.05040259999998 1
vertex 134.19317874999922 -205.2246138999998 1
endloop
endfacet
facet normal 0 0 1
outer loop
vertex 177.55760132087437 -205.28515042235546 1
vertex 134.19317874999922 -205.2246138999998 1
vertex 134.36352136002327 -205.26237505345432 1
endloop
endfacet
facet normal 0 0 1
outer loop
vertex 177.55760132087437 -205.28515042235546 1
vertex 134.36352136002327 -205.26237505345432 1
vertex 134.53650686944056 -205.28514615424194 1
endloop
endfacet
facet normal 0 0 1
outer loop
vertex 177.55760132087437 -205.28515042235546 1
vertex 134.53650686944056 -205.28514615424194 1
vertex 134.7108174999998 -205.2927578 1
endloop
endfacet
facet normal 0 0 1
outer loop
vertex 177.55760132087437 -205.28515042235546 1
vertex 134.7108174999998 -205.2927578 1
vertex 177.38328884999981 -205.29276474999998 1
endloop
endfacet
facet normal 0 0 -1
outer loop
vertex 155.4389584836465 -107.7156698027535 1
vertex 251.92268447959785 -107.7156725061242 1
vertex 155.4389584836465 -107.7156698027535 1
endloop
endfacet
facet normal 0 0 -1
outer loop
vertex 155.4389584836465 -107.7156698027535 1
vertex 155.4389584836465 -107.7156698027535 1
vertex 144.6770705926627 -107.7156725061242 1
endloop
endfacet
facet normal 0 0 1
outer loop
vertex 145.49763340000038 -107.7156725061242 1
vertex 145.28455888632232 -107.70428934615087 1
vertex 60.17447872725493 -107.70428934615087 1
endloop
endfacet
facet normal 0 0 1
outer loop
vertex 145.49763340000038 -107.7156725061242 1
vertex 60.17447872725493 -107.70428934615087 1
vertex 60.171428621895735 -107.7156725061242 1
endloop
endfacet
facet normal 0 0 1
outer loop
vertex 251.92268447959785 -107.7156725061242 1
vertex 251.91963292670943 -107.70428394813237 1
vertex 166.80955221063812 -107.70428394813237 1
endloop
endfacet
facet normal 0 0 1
outer loop
vertex 251.92268447959785 -107.7156725061242 1
vertex 166.80955221063812 -107.70428394813237 1
vertex 166.59647350591203 -107.71566738967678 1
endloop
endfacet
facet normal 0 0 1
outer loop
vertex 145.28455888632232 -107.70428934615087 1
vertex 145.07391492619988 -107.6702713542566 1
vertex 60.183593811258746 -107.6702713542566 1
endloop
endfacet
facet normal 0 0 1
outer loop
vertex 145.28455888632232 -107.70428934615087 1
vertex 60.183593811258746 -107.6702713542566 1
vertex 60.17447872725493 -107.70428934615087 1
endloop
endfacet
facet normal 0 0 1
outer loop
vertex 251.91963292670943 -107.70428394813237 1
vertex 251.91051769983244 -107.67026543569166 1
vertex 167.0201936467991 -107.67026543569166 1
endloop
endfacet
facet normal 0 0 1
outer loop
vertex 251.91963292670943 -107.70428394813237 1
vertex 167.0201936467991 -107.67026543569166 1
vertex 166.80955221063812 -107.70428394813237 1
endloop
endfacet
facet normal 0 0 1
outer loop
vertex 145.07391492619988 -107.6702713542566 1
vertex 144.86809130940782 -107.61400552734459 1
vertex 60.19867017850703 -107.61400552734459 1
endloop
endfacet
facet normal 0 0 1
outer loop
vertex 145.07391492619988 -107.6702713542566 1
vertex 60.19867017850703 -107.61400552734459 1
vertex 60.183593811258746 -107.6702713542566 1
endloop
endfacet
facet normal 0 0 1
outer loop
vertex 251.91051769983244 -107.67026543569166 1
vertex 251.89544147293154 -107.6140001535096 1
vertex 167.22601223643005 -107.6140001535096 1
endloop
endfacet
facet normal 0 0 1
outer loop
vertex 251.91051769983244 -107.67026543569166 1
vertex 167.22601223643005 -107.6140001535096 1
vertex 167.0201936467991 -107.67026543569166 1
endloop
endfacet
facet normal 0 0 1
outer loop
vertex 144.86809130940782 -107.61400552734459 1
vertex 144.66943679999983 -107.53613459999993 1
vertex 60.21953560896536 -107.53613459999993 1
endloop
endfacet
facet normal 0 0 1
outer loop
vertex 144.86809130940782 -107.61400552734459 1
vertex 60.21953560896536 -107.53613459999993 1
vertex 60.19867017850703 -107.61400552734459 1
endloop
endfacet
facet normal 0 0 1
outer loop
vertex 251.89544147293154 -107.6140001535096 1
vertex 251.8745758401305 -107.53612850000006 1
vertex 167.4246653999999 -107.53612850000006 1
endloop
endfacet
facet normal 0 0 1
outer loop
vertex 251.89544147293154 -107.6140001535096 1
vertex 167.4246653999999 -107.53612850000006 1
vertex 167.22601223643005 -107.6140001535096 1
endloop
endfacet
facet normal 0 0 1
outer loop
vertex 144.66943679999983 -107.53613459999993 1
vertex 128.60453484999988 -100.22768789999995 1
vertex 128.4515554865773 -100.1655830526721 1
endloop
endfacet
facet normal 0 0 1
outer loop
vertex 144.66943679999983 -107.53613459999993 1
vertex 128.4515554865773 -100.1655830526721 1
vertex 128.2939796999998 -100.11630579999995 1
endloop
endfacet
facet normal 0 0 1
outer loop
vertex 144.66943679999983 -107.53613459999993 1
vertex 128.2939796999998 -100.11630579999995 1
vertex 101.56782924999955 -92.95504509999991 1
endloop
endfacet
facet normal 0 0 1
outer loop
vertex 144.66943679999983 -107.53613459999993 1
vertex 101.56782924999955 -92.95504509999991 1
vertex 101.4067237827447 -92.91893955730785 1
endloop
endfacet
facet normal 0 0 1
outer loop
vertex 144.66943679999983 -107.53613459999993 1
vertex 101.4067237827447 -92.91893955730785 1
vertex 101.24318850000033 -92.89624020000002 1
endloop
endfacet
facet normal 0 0 1
outer loop
vertex 144.66943679999983 -107.53613459999993 1
vertex 101.24318850000033 -92.89624020000002 1
vertex 66.76803604999988 -89.55378334999999 1
endloop
endfacet
facet normal 0 0 1
outer loop
vertex 144.66943679999983 -107.53613459999993 1
vertex 66.76803604999988 -89.55378334999999 1
vertex 66.45604311584893 -89.54799374265077 1
endloop
endfacet
facet normal 0 0 1
outer loop
vertex 144.66943679999983 -107.53613459999993 1
vertex 66.45604311584893 -89.54799374265077 1
vertex 66.14694708611863 -89.59080442961697 1
endloop
endfacet
facet normal 0 0 1
outer loop
vertex 144.66943679999983 -107.53613459999993 1
vertex 66.14694708611863 -89.59080442961697 1
vertex 65.84827237127502 -89.68117325846023 1
endloop
endfacet
facet normal 0 0 1
outer loop
vertex 144.66943679999983 -107.53613459999993 1
vertex 65.84827237127502 -89.68117325846023 1
vertex 65.56728969282199 -89.81690035569108 1
endloop
endfacet
facet normal 0 0 1
outer loop
vertex 144.66943679999983 -107.53613459999993 1
vertex 65.56728969282199 -89.81690035569108 1
vertex 65.31083909010947 -89.99468167890016 1
endloop
endfacet
facet normal 0 0 1
outer loop
vertex 144.66943679999983 -107.53613459999993 1
vertex 65.31083909010947 -89.99468167890016 1
vertex 65.08516341135768 -90.21018944797922 1
endloop
endfacet
facet normal 0 0 1
outer loop
vertex 144.66943679999983 -107.53613459999993 1
vertex 65.08516341135768 -90.21018944797922 1
vertex 64.89575634226846 -90.45817894609735 1
endloop
endfacet
facet normal 0 0 1
outer loop
vertex 144.66943679999983 -107.53613459999993 1
vertex 64.89575634226846 -90.45817894609735 1
vertex 64.74722867170924 -90.7326089854486 1
endloop
endfacet
facet normal 0 0 1
outer loop
vertex 144.66943679999983 -107.53613459999993 1
vertex 64.74722867170924 -90.7326089854486 1
vertex 64.64319209999991 -91.02680670000024 1
endloop
endfacet
facet normal 0 0 1
outer loop
vertex 144.66943679999983 -107.53613459999993 1
vertex 64.64319209999991 -91.02680670000024 1
vertex 60.21953560896536 -107.53613459999993 1
endloop
endfacet
facet normal 0 0 1
outer loop
vertex 251.8745758401305 -107.53612850000006 1
vertex 247.45092139999997 -91.0268143999999 1
vertex 247.34689038964 -90.73261518004476 1
endloop
endfacet
facet normal 0 0 1
outer loop
vertex 251.8745758401305 -107.53612850000006 1
vertex 247.34689038964 -90.73261518004476 1
vertex 247.1983629994535 -90.45817894609735 1
endloop
endfacet
facet normal 0 0 1
outer loop
vertex 251.8745758401305 -107.53612850000006 1
vertex 247.1983629994535 -90.45817894609735 1
vertex 247.00895496656793 -90.21018654859856 1
endloop
endfacet
facet normal 0 0 1
outer loop
vertex 251.8745758401305 -107.53612850000006 1
vertex 247.00895496656793 -90.21018654859856 1
vertex 246.78327722271672 -89.99467509166614 1
endloop
endfacet
facet normal 0 0 1
outer loop
vertex 251.8745758401305 -107.53612850000006 1
vertex 246.78327722271672 -89.99467509166614 1
vertex 246.52682364614205 -89.81689096638844 1
endloop
endfacet
facet normal 0 0 1
outer loop
vertex 251.8745758401305 -107.53612850000006 1
vertex 246.52682364614205 -89.81689096638844 1
vertex 246.24583731912665 -89.68116213316088 1
endloop
endfacet
facet normal 0 0 1
outer loop
vertex 251.8745758401305 -107.53612850000006 1
vertex 246.24583731912665 -89.68116213316088 1
vertex 245.94715854697495 -89.59079276221748 1
endloop
endfacet
facet normal 0 0 1
outer loop
vertex 251.8745758401305 -107.53612850000006 1
vertex 245.94715854697495 -89.59079276221748 1
vertex 245.63805833824776 -89.54798279721349 1
endloop
endfacet
facet normal 0 0 1
outer loop
vertex 251.8745758401305 -107.53612850000006 1
vertex 245.63805833824776 -89.54798279721349 1
vertex 245.32606280000005 -89.55377880000002 1
endloop
endfacet
facet normal 0 0 1
outer loop
vertex 251.8745758401305 -107.53612850000006 1
vertex 245.32606280000005 -89.55377880000002 1
vertex 210.85092064999958 -92.89623720000006 1
endloop
endfacet
facet normal 0 0 1
outer loop
vertex 251.8745758401305 -107.53612850000006 1
vertex 210.85092064999958 -92.89623720000006 1
vertex 210.6873856909756 -92.91894158460153 1
endloop
endfacet
facet normal 0 0 1
outer loop
vertex 251.8745758401305 -107.53612850000006 1
vertex 210.6873856909756 -92.91894158460153 1
vertex 210.52628129999977 -92.95505440000008 1
endloop
endfacet
facet normal 0 0 1
outer loop
vertex 251.8745758401305 -107.53612850000006 1
vertex 210.52628129999977 -92.95505440000008 1
vertex 183.8001329999994 -100.11630995000019 1
endloop
endfacet
facet normal 0 0 1
outer loop
vertex 251.8745758401305 -107.53612850000006 1
vertex 183.8001329999994 -100.11630995000019 1
vertex 183.64255236342288 -100.16558510267203 1
endloop
endfacet
facet normal 0 0 1
outer loop
vertex 251.8745758401305 -107.53612850000006 1
vertex 183.64255236342288 -100.16558510267203 1
vertex 183.48957600000028 -100.22768989999987 1
endloop
endfacet
facet normal 0 0 1
outer loop
vertex 251.8745758401305 -107.53612850000006 1
vertex 183.48957600000028 -100.22768989999987 1
vertex 167.4246653999999 -107.53612850000006 1
endloop
endfacet
facet normal -0.9623260690207147 -0.2718980266260472 0
outer loop
vertex 72.47247701490222 -187.8135019351217 1
vertex 72.38609370000005 -187.5077663000002 1
vertex 72.3860937 -187.50776630000001 0
endloop
endfacet
facet normal -0.9623260690207147 -0.2718980266260472 0
outer loop
vertex 72.47247701490222 -187.8135019351217 1
vertex 72.3860937 -187.50776630000001 0
vertex 72.47247701490228 -187.81350193512188 0
endloop
endfacet
facet normal -0.9071291540828483 -0.4208523468069726 0
outer loop
vertex 72.6061838359952 -188.10170124405607 1
vertex 72.47247701490222 -187.8135019351217 1
vertex 72.47247701490228 -187.81350193512188 0
endloop
endfacet
facet normal -0.9071291540828483 -0.4208523468069726 0
outer loop
vertex 72.6061838359952 -188.10170124405607 1
vertex 72.47247701490228 -187.81350193512188 0
vertex 72.60618383599511 -188.10170124405593 0
endloop
endfacet
facet normal -0.8290416614096328 -0.559186841446717 0
outer loop
vertex 72.78384019346595 -188.36509177981418 1
vertex 72.6061838359952 -188.10170124405607 1
vertex 72.60618383599511 -188.10170124405593 0
endloop
endfacet
facet normal -0.8290416614096328 -0.559186841446717 0
outer loop
vertex 72.78384019346595 -188.36509177981418 1
vertex 72.60618383599511 -188.10170124405593 0
vertex 72.783840193466 -188.3650912839668 0
endloop
endfacet
facet normal -0.7300340577346884 -0.6834107656069122 0
outer loop
vertex 73.0009630909935 -188.597027122197 1
vertex 72.78384019346595 -188.36509177981418 1
vertex 72.783840193466 -188.3650912839668 0
endloop
endfacet
facet normal -0.7300340577346884 -0.6834107656069122 0
outer loop
vertex 73.0009630909935 -188.597027122197 1
vertex 72.783840193466 -188.3650912839668 0
vertex 73.00096309099347 -188.59702712219698 0
endloop
endfacet
facet normal -0.6126047097328057 -0.790389441739441 0
outer loop
vertex 73.2520736300746 -188.7916545941507 1
vertex 73.0009630909935 -188.597027122197 1
vertex 73.00096309099347 -188.59702712219698 0
endloop
endfacet
facet normal -0.6126047097328057 -0.790389441739441 0
outer loop
vertex 73.2520736300746 -188.7916545941507 1
vertex 73.00096309099347 -188.59702712219698 0
vertex 73.25207363007455 -188.79165459415066 0
endloop
endfacet
facet normal -0.4797168400132249 -0.8774233604182908 0
outer loop
vertex 73.5308352650381 -188.94406294874236 1
vertex 73.2520736300746 -188.7916545941507 1
vertex 73.25207363007455 -188.79165459415066 0
endloop
endfacet
facet normal -0.4797168400132249 -0.8774233604182908 0
outer loop
vertex 73.5308352650381 -188.94406294874236 1
vertex 73.25207363007455 -188.79165459415066 0
vertex 73.53083526503815 -188.94406294874236 0
endloop
endfacet
facet normal -0.33470973840948787 -0.942321278022444 0
outer loop
vertex 73.83021739999991 -189.05040259999998 1
vertex 73.5308352650381 -188.94406294874236 1
vertex 73.53083526503815 -188.94406294874236 0
endloop
endfacet
facet normal -0.33470973840948787 -0.942321278022444 0
outer loop
vertex 73.83021739999991 -189.05040259999998 1
vertex 73.53083526503815 -188.94406294874236 0
vertex 73.83021740000034 -189.0504026000001 0
endloop
endfacet
facet normal -0.258819113086673 -0.9659258080727671 0
outer loop
vertex 134.19317874999922 -205.2246138999998 1
vertex 73.83021739999991 -189.05040259999998 1
vertex 73.83021740000034 -189.0504026000001 0
endloop
endfacet
facet normal -0.258819113086673 -0.9659258080727671 0
outer loop
vertex 134.19317874999922 -205.2246138999998 1
vertex 73.83021740000034 -189.0504026000001 0
vertex 134.19317875000007 -205.2246139 0
endloop
endfacet
facet normal -0.21642380424708574 -0.9762995119097516 0
outer loop
vertex 134.36352136002327 -205.26237505345432 1
vertex 134.19317874999922 -205.2246138999998 1
vertex 134.19317875000007 -205.2246139 0
endloop
endfacet
facet normal -0.21642380424708574 -0.9762995119097516 0
outer loop
vertex 134.36352136002327 -205.26237505345432 1
vertex 134.19317875000007 -205.2246139 0
vertex 134.3635213600232 -205.2623750534543 0
endloop
endfacet
facet normal -0.13051000323210377 -0.9914469925600442 0
outer loop
vertex 134.53650686944056 -205.28514615424194 1
vertex 134.36352136002327 -205.26237505345432 1
vertex 134.3635213600232 -205.2623750534543 0
endloop
endfacet
facet normal -0.13051000323210377 -0.9914469925600442 0
outer loop
vertex 134.53650686944056 -205.28514615424194 1
vertex 134.3635213600232 -205.2623750534543 0
vertex 134.53650686944084 -205.28514615424194 0
endloop
endfacet
facet normal -0.043625561341571015 -0.9990479520011204 0
outer loop
vertex 134.7108174999998 -205.2927578 1
vertex 134.53650686944056 -205.28514615424194 1
vertex 134.53650686944084 -205.28514615424194 0
endloop
endfacet
facet normal -0.043625561341571015 -0.9990479520011204 0
outer loop
vertex 134.7108174999998 -205.2927578 1
vertex 134.53650686944084 -205.28514615424194 0
vertex 134.71081750000008 -205.2927578 0
endloop
endfacet
facet normal -1.6286847426272288e-7 -0.9999999999999869 0
outer loop
vertex 177.38328884999981 -205.29276474999998 1
vertex 134.7108174999998 -205.2927578 1
vertex 134.71081750000008 -205.2927578 0
endloop
endfacet
facet normal -1.6286847426272288e-7 -0.9999999999999869 0
outer loop
vertex 177.38328884999981 -205.29276474999998 1
vertex 134.71081750000008 -205.2927578 0
vertex 177.38328885000004 -205.29276474999998 0
endloop
endfacet
facet normal 0.04364044323358482 -0.9990473020404872 0
outer loop
vertex 177.55760132087437 -205.28515042235546 1
vertex 177.38328884999981 -205.29276474999998 1
vertex 177.38328885000004 -205.29276474999998 0
endloop
endfacet
facet normal 0.04364044323358482 -0.9990473020404872 0
outer loop
vertex 177.55760132087437 -205.28515042235546 1
vertex 177.38328885000004 -205.29276474999998 0
vertex 177.55760132087386 -205.28515042235549 0
endloop
endfacet
facet normal 0.13054765691046555 -0.9914420352573252 0
outer loop
vertex 177.73058683471356 -205.26237263736343 1
vertex 177.55760132087437 -205.28515042235546 1
vertex 177.55760132087386 -205.28515042235549 0
endloop
endfacet
facet normal 0.13054765691046555 -0.9914420352573252 0
outer loop
vertex 177.73058683471356 -205.26237263736343 1
vertex 177.55760132087386 -205.28515042235549 0
vertex 177.7305868347139 -205.26237263736334 0
endloop
endfacet
facet normal 0.21643675518046757 -0.9762966408868518 0
outer loop
vertex 177.90092769999956 -205.22460950000013 1
vertex 177.73058683471356 -205.26237263736343 1
vertex 177.7305868347139 -205.26237263736334 0
endloop
endfacet
facet normal 0.21643675518046757 -0.9762966408868518 0
outer loop
vertex 177.90092769999956 -205.22460950000013 1
vertex 177.7305868347139 -205.26237263736334 0
vertex 177.90092769999913 -205.2246095000002 0
endloop
endfacet
facet normal 0.25881913837105236 -0.9659258012978358 0
outer loop
vertex 238.2638915000001 -189.05039584999997 1
vertex 177.90092769999956 -205.22460950000013 1
vertex 177.90092769999913 -205.2246095000002 0
endloop
endfacet
facet normal 0.25881913837105236 -0.9659258012978358 0
outer loop
vertex 238.2638915000001 -189.05039584999997 1
vertex 177.90092769999913 -205.2246095000002 0
vertex 238.26389150000048 -189.05039584999986 0
endloop
endfacet
facet normal 0.3347211299600864 -0.9423172316997301 0
outer loop
vertex 238.5632679234154 -188.944054151729 1
vertex 238.2638915000001 -189.05039584999997 1
vertex 238.26389150000048 -189.05039584999986 0
endloop
endfacet
facet normal 0.3347211299600864 -0.9423172316997301 0
outer loop
vertex 238.5632679234154 -188.944054151729 1
vertex 238.26389150000048 -189.05039584999986 0
vertex 238.56326792341537 -188.944054151729 0
endloop
endfacet
facet normal 0.4797133199790235 -0.8774252849301205 0
outer loop
vertex 238.84202802116113 -188.79164809019417 1
vertex 238.5632679234154 -188.944054151729 1
vertex 238.56326792341537 -188.944054151729 0
endloop
endfacet
facet normal 0.4797133199790235 -0.8774252849301205 0
outer loop
vertex 238.84202802116113 -188.79164809019417 1
vertex 238.56326792341537 -188.944054151729 0
vertex 238.84202802116138 -188.791648090194 0
endloop
endfacet
facet normal 0.6126005680329727 -0.7903926518166015 0
outer loop
vertex 239.09313764458182 -188.59702343421782 1
vertex 238.84202802116113 -188.79164809019417 1
vertex 238.84202802116138 -188.791648090194 0
endloop
endfacet
facet normal 0.6126005680329727 -0.7903926518166015 0
outer loop
vertex 239.09313764458182 -188.59702343421782 1
vertex 238.84202802116138 -188.791648090194 0
vertex 239.09313764458147 -188.5970234342181 0
endloop
endfacet
facet normal 0.7300296371810765 -0.6834154877066116 0
outer loop
vertex 239.31026036879138 -188.36509177981418 1
vertex 239.09313764458182 -188.59702343421782 1
vertex 239.09313764458147 -188.5970234342181 0
endloop
endfacet
facet normal 0.7300296371810765 -0.6834154877066116 0
outer loop
vertex 239.31026036879138 -188.36509177981418 1
vertex 239.09313764458147 -188.5970234342181 0
vertex 239.31026036879155 -188.3650912839668 0
endloop
endfacet
facet normal 0.8290373575304358 -0.5591932222577024 0
outer loop
vertex 239.48791738412092 -188.1017041457237 1
vertex 239.31026036879138 -188.36509177981418 1
vertex 239.31026036879155 -188.3650912839668 0
endloop
endfacet
facet normal 0.8290373575304358 -0.5591932222577024 0
outer loop
vertex 239.48791738412092 -188.1017041457237 1
vertex 239.31026036879155 -188.3650912839668 0
vertex 239.48791738412115 -188.10170414572335 0
endloop
endfacet
facet normal 0.9071253979756869 -0.4208604428399651 0
outer loop
vertex 239.62162574675725 -187.81350825149636 1
vertex 239.48791738412092 -188.1017041457237 1
vertex 239.48791738412115 -188.10170414572335 0
endloop
endfacet
facet normal 0.9071253979756869 -0.4208604428399651 0
outer loop
vertex 239.62162574675725 -187.81350825149636 1
vertex 239.48791738412115 -188.10170414572335 0
vertex 239.62162574675716 -187.8135082514967 0
endloop
endfacet
facet normal 0.9623230386872422 -0.2719087516277333 0
outer loop
vertex 239.70801300000014 -187.50777169999932 1
vertex 239.62162574675725 -187.81350825149636 1
vertex 239.62162574675716 -187.8135082514967 0
endloop
endfacet
facet normal 0.9623230386872422 -0.2719087516277333 0
outer loop
vertex 239.70801300000014 -187.50777169999932 1
vertex 239.62162574675716 -187.8135082514967 0
vertex 239.70801300000022 -187.50777169999907 0
endloop
endfacet
facet normal 0.98088062934569 -0.19461035680149033 0
outer loop
vertex 253.90986564999986 -115.92719195000075 1
vertex 239.70801300000014 -187.50777169999932 1
vertex 239.70801300000022 -187.50777169999907 0
endloop
endfacet
facet normal 0.98088062934569 -0.19461035680149033 0
outer loop
vertex 253.90986564999986 -115.92719195000075 1
vertex 239.70801300000022 -187.50777169999907 0
vertex 253.90986564999992 -115.92719195000053 0
endloop
endfacet
facet normal 0.9904016053166079 -0.1382196085448302 0
outer loop
vertex 253.94147719637292 -115.70068193015612 1
vertex 253.90986564999986 -115.92719195000075 1
vertex 253.90986564999992 -115.92719195000053 0
endloop
endfacet
facet normal 0.9904016053166079 -0.1382196085448302 0
outer loop
vertex 253.94147719637292 -115.70068193015612 1
vertex 253.90986564999992 -115.92719195000053 0
vertex 253.94147719637292 -115.7006819301563 0
endloop
endfacet
facet normal 0.9997060187199516 -0.024246157120330736 0
outer loop
vertex 253.9470224191401 -115.47204394237241 1
vertex 253.94147719637292 -115.70068193015612 1
vertex 253.94147719637292 -115.7006819301563 0
endloop
endfacet
facet normal 0.9997060187199516 -0.024246157120330736 0
outer loop
vertex 253.9470224191401 -115.47204394237241 1
vertex 253.94147719637292 -115.7006819301563 0
vertex 253.9470224191401 -115.47204394237241 0
endloop
endfacet
facet normal 0.9959377566369221 0.09004434965623874 0
outer loop
vertex 253.92642880608662 -115.24426777580759 1
vertex 253.9470224191401 -115.47204394237241 1
vertex 253.9470224191401 -115.47204394237241 0
endloop
endfacet
facet normal 0.9959377566369221 0.09004434965623874 0
outer loop
vertex 253.92642880608662 -115.24426777580759 1
vertex 253.9470224191401 -115.47204394237241 0
vertex 253.92642880608662 -115.24426777580742 0
endloop
endfacet
facet normal 0.9791419591998061 0.20317732091541493 0
outer loop
vertex 253.87996129999996 -115.02033389999991 1
vertex 253.92642880608662 -115.24426777580759 1
vertex 253.92642880608662 -115.24426777580742 0
endloop
endfacet
facet normal 0.9791419591998061 0.20317732091541493 0
outer loop
vertex 253.87996129999996 -115.02033389999991 1
vertex 253.92642880608662 -115.24426777580742 0
vertex 253.87996130000013 -115.02033390000058 0
endloop
endfacet
facet normal 0 0 1
outer loop
vertex 247.45092139999997 -91.0268143999999 1
vertex 251.8745758401305 -107.53612850000006 1
vertex 251.89544147293154 -107.6140001535096 1
endloop
endfacet
facet normal 0 0 1
outer loop
vertex 247.45092139999997 -91.0268143999999 1
vertex 251.89544147293154 -107.6140001535096 1
vertex 251.91051769983244 -107.67026543569166 1
endloop
endfacet
facet normal 0 0 1
outer loop
vertex 247.45092139999997 -91.0268143999999 1
vertex 251.91051769983244 -107.67026543569166 1
vertex 251.91963292670943 -107.70428394813237 1
endloop
endfacet
facet normal 0 0 1
outer loop
vertex 247.45092139999997 -91.0268143999999 1
vertex 251.91963292670943 -107.70428394813237 1
vertex 251.92268447959785 -107.7156725061242 1
endloop
endfacet
facet normal 0 0 1
outer loop
vertex 247.45092139999997 -91.0268143999999 1
vertex 251.92268447959785 -107.7156725061242 1
vertex 253.87996129999996 -115.02033389999991 1
endloop
endfacet
facet normal 0 0 1
outer loop
vertex 247.45092139999997 -91.0268143999999 1
vertex 253.87996129999996 -115.02033389999991 1
vertex 253.87996130000013 -115.02033390000058 0
endloop
endfacet
facet normal 0 0 1
outer loop
vertex 247.45092139999997 -91.0268143999999 1
vertex 253.87996130000013 -115.02033390000058 0
vertex 251.92268310865077 -107.71566738967678 0
endloop
endfacet
facet normal 0 0 1
outer loop
vertex 247.45092139999997 -91.0268143999999 1
vertex 251.92268310865077 -107.71566738967678 0
vertex 251.91963292670943 -107.70428394813237 0
endloop
endfacet
facet normal 0 0 1
outer loop
vertex 247.45092139999997 -91.0268143999999 1
vertex 251.91963292670943 -107.70428394813237 0
vertex 251.91051769983244 -107.67026543569163 0
endloop
endfacet
facet normal 0 0 1
outer loop
vertex 247.45092139999997 -91.0268143999999 1
vertex 251.91051769983244 -107.67026543569163 0
vertex 251.8954414729315 -107.61400015350944 0
endloop
endfacet
facet normal 0 0 1
outer loop
vertex 247.45092139999997 -91.0268143999999 1
vertex 251.8954414729315 -107.61400015350944 0
vertex 251.87457584013052 -107.53612850000013 0
endloop
endfacet
facet normal 0 0 1
outer loop
vertex 247.45092139999997 -91.0268143999999 1
vertex 251.87457584013052 -107.53612850000013 0
vertex 247.45092139999994 -91.02681439999981 0
endloop
endfacet
facet normal 0.9427930489491989 0.33337856387757386 0
outer loop
vertex 247.34689038964 -90.73261518004476 1
vertex 247.45092139999997 -91.0268143999999 1
vertex 247.45092139999994 -91.02681439999981 0
endloop
endfacet
facet normal 0.9427930489491989 0.33337856387757386 0
outer loop
vertex 247.34689038964 -90.73261518004476 1
vertex 247.45092139999994 -91.02681439999981 0
vertex 247.34689038963998 -90.73261518004469 0
endloop
endfacet
facet normal 0.8794604342754866 0.47597199974785553 0
outer loop
vertex 247.1983629994535 -90.45817894609735 1
vertex 247.34689038964 -90.73261518004476 1
vertex 247.34689038963998 -90.73261518004469 0
endloop
endfacet
facet normal 0.8794604342754866 0.47597199974785553 0
outer loop
vertex 247.1983629994535 -90.45817894609735 1
vertex 247.34689038963998 -90.73261518004469 0
vertex 247.1983629994536 -90.45817894609749 0
endloop
endfacet
facet normal 0.7947183156695703 0.6069784170292395 0
outer loop
vertex 247.00895496656793 -90.21018654859856 1
vertex 247.1983629994535 -90.45817894609735 1
vertex 247.1983629994536 -90.45817894609749 0
endloop
endfacet
facet normal 0.7947183156695703 0.6069784170292395 0
outer loop
vertex 247.00895496656793 -90.21018654859856 1
vertex 247.1983629994536 -90.45817894609749 0
vertex 247.0089549665678 -90.2101865485984 0
endloop
endfacet
facet normal 0.6906296474735699 0.7232086075473193 0
outer loop
vertex 246.78327722271672 -89.99467509166614 1
vertex 247.00895496656793 -90.21018654859856 1
vertex 247.0089549665678 -90.2101865485984 0
endloop
endfacet
facet normal 0.6906296474735699 0.7232086075473193 0
outer loop
vertex 246.78327722271672 -89.99467509166614 1
vertex 247.0089549665678 -90.2101865485984 0
vertex 246.7832772227169 -89.99467509166625 0
endloop
endfacet
facet normal 0.5697283546533926 0.8218330742334105 0
outer loop
vertex 246.52682364614205 -89.81689096638844 1
vertex 246.78327722271672 -89.99467509166614 1
vertex 246.7832772227169 -89.99467509166625 0
endloop
endfacet
facet normal 0.5697283546533926 0.8218330742334105 0
outer loop
vertex 246.52682364614205 -89.81689096638844 1
vertex 246.7832772227169 -89.99467509166625 0
vertex 246.526823646142 -89.8168909663884 0
endloop
endfacet
facet normal 0.4349576471627293 0.9004509121405025 0
outer loop
vertex 246.24583731912665 -89.68116213316088 1
vertex 246.52682364614205 -89.81689096638844 1
vertex 246.526823646142 -89.8168909663884 0
endloop
endfacet
facet normal 0.4349576471627293 0.9004509121405025 0
outer loop
vertex 246.24583731912665 -89.68116213316088 1
vertex 246.526823646142 -89.8168909663884 0
vertex 246.2458373191267 -89.6811621331609 0
endloop
endfacet
facet normal 0.28959837071064604 0.957148255852634 0
outer loop
vertex 245.94715854697495 -89.59079276221748 1
vertex 246.24583731912665 -89.68116213316088 1
vertex 246.2458373191267 -89.6811621331609 0
endloop
endfacet
facet normal 0.28959837071064604 0.957148255852634 0
outer loop
vertex 245.94715854697495 -89.59079276221748 1
vertex 246.2458373191267 -89.6811621331609 0
vertex 245.94715854697486 -89.59079276221745 0
endloop
endfacet
facet normal 0.13718913815492323 0.9905448704487392 0
outer loop
vertex 245.63805833824776 -89.54798279721349 1
vertex 245.94715854697495 -89.59079276221748 1
vertex 245.94715854697486 -89.59079276221745 0
endloop
endfacet
facet normal 0.13718913815492323 0.9905448704487392 0
outer loop
vertex 245.63805833824776 -89.54798279721349 1
vertex 245.94715854697486 -89.59079276221745 0
vertex 245.63805833824782 -89.54798279721348 0
endloop
endfacet
facet normal -0.018573992891106176 0.9998274885139342 0
outer loop
vertex 245.32606280000005 -89.55377880000002 1
vertex 245.63805833824776 -89.54798279721349 1
vertex 245.63805833824782 -89.54798279721348 0
endloop
endfacet
facet normal -0.018573992891106176 0.9998274885139342 0
outer loop
vertex 245.32606280000005 -89.55377880000002 1
vertex 245.63805833824782 -89.54798279721348 0
vertex 245.3260627999999 -89.5537788 0
endloop
endfacet
facet normal -0.09650022636459706 0.9953329625364478 0
outer loop
vertex 210.85092064999958 -92.89623720000006 1
vertex 245.32606280000005 -89.55377880000002 1
vertex 245.3260627999999 -89.5537788 0
endloop
endfacet
facet normal -0.09650022636459706 0.9953329625364478 0
outer loop
vertex 210.85092064999958 -92.89623720000006 1
vertex 245.3260627999999 -89.5537788 0
vertex 210.85092064999975 -92.89623720000002 0
endloop
endfacet
facet normal -0.13751605522142532 0.9904995378879982 0
outer loop
vertex 210.6873856909756 -92.91894158460153 1
vertex 210.85092064999958 -92.89623720000006 1
vertex 210.85092064999975 -92.89623720000002 0
endloop
endfacet
facet normal -0.13751605522142532 0.9904995378879982 0
outer loop
vertex 210.6873856909756 -92.91894158460153 1
vertex 210.85092064999975 -92.89623720000002 0
vertex 210.68738569097587 -92.91894158460146 0
endloop
endfacet
facet normal -0.21872997237221592 0.9757854268157777 0
outer loop
vertex 210.52628129999977 -92.95505440000008 1
vertex 210.6873856909756 -92.91894158460153 1
vertex 210.68738569097587 -92.91894158460146 0
endloop
endfacet
facet normal -0.21872997237221592 0.9757854268157777 0
outer loop
vertex 210.52628129999977 -92.95505440000008 1
vertex 210.68738569097587 -92.91894158460146 0
vertex 210.52628129999982 -92.95505440000005 0
endloop
endfacet
facet normal -0.25881923718233724 0.9659257748214162 0
outer loop
vertex 183.8001329999994 -100.11630995000019 1
vertex 210.52628129999977 -92.95505440000008 1
vertex 210.52628129999982 -92.95505440000005 0
endloop
endfacet
facet normal -0.25881923718233724 0.9659257748214162 0
outer loop
vertex 183.8001329999994 -100.11630995000019 1
vertex 210.52628129999982 -92.95505440000005 0
vertex 183.80013299999987 -100.11630995000004 0
endloop
endfacet
facet normal -0.2984471671324801 0.9544261566148518 0
outer loop
vertex 183.64255236342288 -100.16558510267203 1
vertex 183.8001329999994 -100.11630995000019 1
vertex 183.80013299999987 -100.11630995000004 0
endloop
endfacet
facet normal -0.2984471671324801 0.9544261566148518 0
outer loop
vertex 183.64255236342288 -100.16558510267203 1
vertex 183.80013299999987 -100.11630995000004 0
vertex 183.64255236342282 -100.16558510267205 0
endloop
endfacet
facet normal -0.3761594635458594 0.926554940618683 0
outer loop
vertex 183.48957600000028 -100.22768989999987 1
vertex 183.64255236342288 -100.16558510267203 1
vertex 183.64255236342282 -100.16558510267205 0
endloop
endfacet
facet normal -0.3761594635458594 0.926554940618683 0
outer loop
vertex 183.48957600000028 -100.22768989999987 1
vertex 183.64255236342282 -100.16558510267205 0
vertex 183.48957600000023 -100.2276898999999 0
endloop
endfacet
facet normal -0.41409436676815525 0.910233956414987 0
outer loop
vertex 167.4246653999999 -107.53612850000006 1
vertex 183.48957600000028 -100.22768989999987 1
vertex 183.48957600000023 -100.2276898999999 0
endloop
endfacet
facet normal -0.41409436676815525 0.910233956414987 0
outer loop
vertex 167.4246653999999 -107.53612850000006 1
vertex 183.48957600000023 -100.2276898999999 0
vertex 167.42466539999975 -107.53612850000013 0
endloop
endfacet
facet normal -0.364959377956126 0.9310234435511695 0
outer loop
vertex 167.22601223643005 -107.6140001535096 1
vertex 167.4246653999999 -107.53612850000006 1
vertex 167.42466539999975 -107.53612850000013 0
endloop
endfacet
facet normal -0.364959377956126 0.9310234435511695 0
outer loop
vertex 167.22601223643005 -107.6140001535096 1
vertex 167.42466539999975 -107.53612850000013 0
vertex 167.2260122364305 -107.61400015350944 0
endloop
endfacet
facet normal -0.2636972692914414 0.9646054893935847 0
outer loop
vertex 167.0201936467991 -107.67026543569166 1
vertex 167.22601223643005 -107.6140001535096 1
vertex 167.2260122364305 -107.61400015350944 0
endloop
endfacet
facet normal -0.2636972692914414 0.9646054893935847 0
outer loop
vertex 167.0201936467991 -107.67026543569166 1
vertex 167.2260122364305 -107.61400015350944 0
vertex 167.02019364679904 -107.67026543569163 0
endloop
endfacet
facet normal -0.15943381936574494 0.9872086189060807 0
outer loop
vertex 166.80955221063812 -107.70428394813237 1
vertex 167.0201936467991 -107.67026543569166 1
vertex 167.02019364679904 -107.67026543569163 0
endloop
endfacet
facet normal -0.15943381936574494 0.9872086189060807 0
outer loop
vertex 166.80955221063812 -107.70428394813237 1
vertex 167.02019364679904 -107.67026543569163 0
vertex 166.8095522106379 -107.70428394813237 0
endloop
endfacet
facet normal -0.05334757214829723 0.9985760043911942 0
outer loop
vertex 166.59647350591203 -107.71566738967678 1
vertex 166.80955221063812 -107.70428394813237 1
vertex 166.8095522106379 -107.70428394813237 0
endloop
endfacet
facet normal -0.05334757214829723 0.9985760043911942 0
outer loop
vertex 166.59647350591203 -107.71566738967678 1
vertex 166.8095522106379 -107.70428394813237 0
vertex 166.5964735059118 -107.71566738967678 0
endloop
endfacet
facet normal -2.511985712772003e-7 0.9999999999999685 0
outer loop
vertex 145.49763340000038 -107.7156725061242 1
vertex 166.59647350591203 -107.71566738967678 1
vertex 166.5964735059118 -107.71566738967678 0
endloop
endfacet
facet normal -2.511985712772003e-7 0.9999999999999685 0
outer loop
vertex 145.49763340000038 -107.7156725061242 1
vertex 166.5964735059118 -107.71566738967678 0
vertex 145.49763339999998 -107.71567250612419 0
endloop
endfacet
facet normal 0.053346992906796245 0.9985760353362194 0
outer loop
vertex 145.28455888632232 -107.70428934615087 1
vertex 145.49763340000038 -107.7156725061242 1
vertex 145.49763339999998 -107.71567250612419 0
endloop
endfacet
facet normal 0.053346992906796245 0.9985760353362194 0
outer loop
vertex 145.28455888632232 -107.70428934615087 1
vertex 145.49763339999998 -107.71567250612419 0
vertex 145.28456150399046 -107.70428934615089 0
endloop
endfacet
facet normal 0.15942764912735194 0.9872096153774669 0
outer loop
vertex 145.07391492619988 -107.6702713542566 1
vertex 145.28455888632232 -107.70428934615087 1
vertex 145.28456150399046 -107.70428934615089 0
endloop
endfacet
facet normal 0.15942764912735194 0.9872096153774669 0
outer loop
vertex 145.07391492619988 -107.6702713542566 1
vertex 145.28456150399046 -107.70428934615089 0
vertex 145.0739149262 -107.67027135425663 0
endloop
endfacet
facet normal 0.2636936518375064 0.9646064783011774 0
outer loop
vertex 144.86809130940782 -107.61400552734459 1
vertex 145.07391492619988 -107.6702713542566 1
vertex 145.0739149262 -107.67027135425663 0
endloop
endfacet
facet normal 0.2636936518375064 0.9646064783011774 0
outer loop
vertex 144.86809130940782 -107.61400552734459 1
vertex 145.0739149262 -107.67027135425663 0
vertex 144.8680913094078 -107.61400552734456 0
endloop
endfacet
facet normal 0.364954284775003 0.9310254400521857 0
outer loop
vertex 144.66943679999983 -107.53613459999993 1
vertex 144.86809130940782 -107.61400552734459 1
vertex 144.8680913094078 -107.61400552734456 0
endloop
endfacet
facet normal 0.364954284775003 0.9310254400521857 0
outer loop
vertex 144.66943679999983 -107.53613459999993 1
vertex 144.8680913094078 -107.61400552734456 0
vertex 144.66943679999997 -107.53613459999997 0
endloop
endfacet
facet normal 0.41409493174765494 0.9102336993876382 0
outer loop
vertex 128.60453484999988 -100.22768789999995 1
vertex 144.66943679999983 -107.53613459999993 1
vertex 144.66943679999997 -107.53613459999997 0
endloop
endfacet
facet normal 0.41409493174765494 0.9102336993876382 0
outer loop
vertex 128.60453484999988 -100.22768789999995 1
vertex 144.66943679999997 -107.53613459999997 0
vertex 128.60453485000008 -100.22768790000003 0
endloop
endfacet
facet normal 0.3761533906063049 0.9265574060657984 0
outer loop
vertex 128.4515554865773 -100.1655830526721 1
vertex 128.60453484999988 -100.22768789999995 1
vertex 128.60453485000008 -100.22768790000003 0
endloop
endfacet
facet normal 0.3761533906063049 0.9265574060657984 0
outer loop
vertex 128.4515554865773 -100.1655830526721 1
vertex 128.60453485000008 -100.22768790000003 0
vertex 128.45155548657718 -100.16558305267206 0
endloop
endfacet
facet normal 0.29846712122493035 0.9544199167807129 0
outer loop
vertex 128.2939796999998 -100.11630579999995 1
vertex 128.4515554865773 -100.1655830526721 1
vertex 128.45155548657718 -100.16558305267206 0
endloop
endfacet
facet normal 0.29846712122493035 0.9544199167807129 0
outer loop
vertex 128.2939796999998 -100.11630579999995 1
vertex 128.45155548657718 -100.16558305267206 0
vertex 128.29397969999994 -100.11630579999999 0
endloop
endfacet
facet normal 0.25881939141712 0.9659257334942846 0
outer loop
vertex 101.56782924999955 -92.95504509999991 1
vertex 128.2939796999998 -100.11630579999995 1
vertex 128.29397969999994 -100.11630579999999 0
endloop
endfacet
facet normal 0.25881939141712 0.9659257334942846 0
outer loop
vertex 101.56782924999955 -92.95504509999991 1
vertex 128.29397969999994 -100.11630579999999 0
vertex 101.56782924999999 -92.9550451 0
endloop
endfacet
facet normal 0.21868663842651856 0.9757951394497255 0
outer loop
vertex 101.4067237827447 -92.91893955730785 1
vertex 101.56782924999955 -92.95504509999991 1
vertex 101.56782924999999 -92.9550451 0
endloop
endfacet
facet normal 0.21868663842651856 0.9757951394497255 0
outer loop
vertex 101.4067237827447 -92.91893955730785 1
vertex 101.56782924999999 -92.9550451 0
vertex 101.40672378274478 -92.91893955730788 0
endloop
endfacet
facet normal 0.13748591449700598 0.9905037220096258 0
outer loop
vertex 101.24318850000033 -92.89624020000002 1
vertex 101.4067237827447 -92.91893955730785 1
vertex 101.40672378274478 -92.91893955730788 0
endloop
endfacet
facet normal 0.13748591449700598 0.9905037220096258 0
outer loop
vertex 101.24318850000033 -92.89624020000002 1
vertex 101.40672378274478 -92.91893955730788 0
vertex 101.2431884999999 -92.89624019999998 0
endloop
endfacet
facet normal 0.09650015346873883 0.995332969603896 0
outer loop
vertex 66.76803604999988 -89.55378334999999 1
vertex 101.24318850000033 -92.89624020000002 1
vertex 101.2431884999999 -92.89624019999998 0
endloop
endfacet
facet normal 0.09650015346873883 0.995332969603896 0
outer loop
vertex 66.76803604999988 -89.55378334999999 1
vertex 101.2431884999999 -92.89624019999998 0
vertex 66.76803605000005 -89.55378335 0
endloop
endfacet
facet normal 0.01855365980296142 0.9998278660389077 0
outer loop
vertex 66.45604311584893 -89.54799374265077 1
vertex 66.76803604999988 -89.55378334999999 1
vertex 66.76803605000005 -89.55378335 0
endloop
endfacet
facet normal 0.01855365980296142 0.9998278660389077 0
outer loop
vertex 66.45604311584893 -89.54799374265077 1
vertex 66.76803605000005 -89.55378335 0
vertex 66.45604311584883 -89.54799374265079 0
endloop
endfacet
facet normal -0.13719322813997784 0.99054430398268 0
outer loop
vertex 66.14694708611863 -89.59080442961697 1
vertex 66.45604311584893 -89.54799374265077 1
vertex 66.45604311584883 -89.54799374265079 0
endloop
endfacet
facet normal -0.13719322813997784 0.99054430398268 0
outer loop
vertex 66.14694708611863 -89.59080442961697 1
vertex 66.45604311584883 -89.54799374265079 0
vertex 66.14694708611856 -89.59080442961698 0
endloop
endfacet
facet normal -0.2896003832415915 0.9571476469314039 0
outer loop
vertex 65.84827237127502 -89.68117325846023 1
vertex 66.14694708611863 -89.59080442961697 1
vertex 66.14694708611856 -89.59080442961698 0
endloop
endfacet
facet normal -0.2896003832415915 0.9571476469314039 0
outer loop
vertex 65.84827237127502 -89.68117325846023 1
vertex 66.14694708611856 -89.59080442961698 0
vertex 65.84827237127503 -89.68117325846022 0
endloop
endfacet
facet normal -0.434957715812671 0.9004508789795387 0
outer loop
vertex 65.56728969282199 -89.81690035569108 1
vertex 65.84827237127502 -89.68117325846023 1
vertex 65.84827237127503 -89.68117325846022 0
endloop
endfacet
facet normal -0.434957715812671 0.9004508789795387 0
outer loop
vertex 65.56728969282199 -89.81690035569108 1
vertex 65.84827237127503 -89.68117325846022 0
vertex 65.56728969282197 -89.81690035569108 0
endloop
endfacet
facet normal -0.5697267519511269 0.8218341852899642 0
outer loop
vertex 65.31083909010947 -89.99468167890016 1
vertex 65.56728969282199 -89.81690035569108 1
vertex 65.56728969282197 -89.81690035569108 0
endloop
endfacet
facet normal -0.5697267519511269 0.8218341852899642 0
outer loop
vertex 65.31083909010947 -89.99468167890016 1
vertex 65.56728969282197 -89.81690035569108 0
vertex 65.31083909010948 -89.99468167890014 0
endloop
endfacet
facet normal -0.6906267715945332 0.7232113538633865 0
outer loop
vertex 65.08516341135768 -90.21018944797922 1
vertex 65.31083909010947 -89.99468167890016 1
vertex 65.31083909010948 -89.99468167890014 0
endloop
endfacet
facet normal -0.6906267715945332 0.7232113538633865 0
outer loop
vertex 65.08516341135768 -90.21018944797922 1
vertex 65.31083909010948 -89.99468167890014 0
vertex 65.08516341135774 -90.21018944797916 0
endloop
endfacet
facet normal -0.7947146719994086 0.6069831876657478 0
outer loop
vertex 64.89575634226846 -90.45817894609735 1
vertex 65.08516341135768 -90.21018944797922 1
vertex 65.08516341135774 -90.21018944797916 0
endloop
endfacet
facet normal -0.7947146719994086 0.6069831876657478 0
outer loop
vertex 64.89575634226846 -90.45817894609735 1
vertex 65.08516341135774 -90.21018944797916 0
vertex 64.89575634226843 -90.45817894609749 0
endloop
endfacet
facet normal -0.8794566125084704 0.4759790612150143 0
outer loop
vertex 64.74722867170924 -90.7326089854486 1
vertex 64.89575634226846 -90.45817894609735 1
vertex 64.89575634226843 -90.45817894609749 0
endloop
endfacet
facet normal -0.8794566125084704 0.4759790612150143 0
outer loop
vertex 64.74722867170924 -90.7326089854486 1
vertex 64.89575634226843 -90.45817894609749 0
vertex 64.74722867170922 -90.73260898544862 0
endloop
endfacet
facet normal -0.9427869110661381 0.3333959212743458 0
outer loop
vertex 64.64319209999991 -91.02680670000024 1
vertex 64.74722867170924 -90.7326089854486 1
vertex 64.74722867170922 -90.73260898544862 0
endloop
endfacet
facet normal -0.9427869110661381 0.3333959212743458 0
outer loop
vertex 64.64319209999991 -91.02680670000024 1
vertex 64.74722867170922 -90.73260898544862 0
vertex 64.64319209999998 -91.02680670000002 0
endloop
endfacet
facet normal 0 0 1
outer loop
vertex 58.21415319999997 -115.02033140000006 1
vertex 60.171428621895735 -107.7156725061242 1
vertex 60.17447872725493 -107.70428934615087 1
endloop
endfacet
facet normal 0 0 1
outer loop
vertex 58.21415319999997 -115.02033140000006 1
vertex 60.17447872725493 -107.70428934615087 1
vertex 60.183593811258746 -107.6702713542566 1
endloop
endfacet
facet normal 0 0 1
outer loop
vertex 58.21415319999997 -115.02033140000006 1
vertex 60.183593811258746 -107.6702713542566 1
vertex 60.19867017850703 -107.61400552734459 1
endloop
endfacet
facet normal 0 0 1
outer loop
vertex 58.21415319999997 -115.02033140000006 1
vertex 60.19867017850703 -107.61400552734459 1
vertex 60.21953560896536 -107.53613459999993 1
endloop
endfacet
facet normal 0 0 1
outer loop
vertex 58.21415319999997 -115.02033140000006 1
vertex 60.21953560896536 -107.53613459999993 1
vertex 64.64319209999991 -91.02680670000024 1
endloop
endfacet
facet normal 0 0 1
outer loop
vertex 58.21415319999997 -115.02033140000006 1
vertex 64.64319209999991 -91.02680670000024 1
vertex 64.64319209999998 -91.02680670000002 0
endloop
endfacet
facet normal 0 0 1
outer loop
vertex 58.21415319999997 -115.02033140000006 1
vertex 64.64319209999998 -91.02680670000002 0
vertex 60.21953560896534 -107.53613459999997 0
endloop
endfacet
facet normal 0 0 1
outer loop
vertex 58.21415319999997 -115.02033140000006 1
vertex 60.21953560896534 -107.53613459999997 0
vertex 60.19867017850703 -107.61400552734456 0
endloop
endfacet
facet normal 0 0 1
outer loop
vertex 58.21415319999997 -115.02033140000006 1
vertex 60.19867017850703 -107.61400552734456 0
vertex 60.18359381125873 -107.67027135425663 0
endloop
endfacet
facet normal 0 0 1
outer loop
vertex 58.21415319999997 -115.02033140000006 1
vertex 60.18359381125873 -107.67027135425663 0
vertex 60.174478727254915 -107.70428934615089 0
endloop
endfacet
facet normal 0 0 1
outer loop
vertex 58.21415319999997 -115.02033140000006 1
vertex 60.174478727254915 -107.70428934615089 0
vertex 60.17142862189573 -107.71567250612419 0
endloop
endfacet
facet normal 0 0 1
outer loop
vertex 58.21415319999997 -115.02033140000006 1
vertex 60.17142862189573 -107.71567250612419 0
vertex 58.21415319999991 -115.02033140000036 0
endloop
endfacet
facet normal -0.9791415932061458 0.2031790846857291 0
outer loop
vertex 58.16768504783278 -115.24426777580759 1
vertex 58.21415319999997 -115.02033140000006 1
vertex 58.21415319999991 -115.02033140000036 0
endloop
endfacet
facet normal -0.9791415932061458 0.2031790846857291 0
outer loop
vertex 58.16768504783278 -115.24426777580759 1
vertex 58.21415319999991 -115.02033140000036 0
vertex 58.16768504783278 -115.24426777580742 0
endloop
endfacet
facet normal -0.9959357688936314 0.09006633243477322 0
outer loop
vertex 58.14708639198592 -115.47204394237241 1
vertex 58.16768504783278 -115.24426777580759 1
vertex 58.16768504783278 -115.24426777580742 0
endloop
endfacet
facet normal -0.9959357688936314 0.09006633243477322 0
outer loop
vertex 58.14708639198592 -115.47204394237241 1
vertex 58.16768504783278 -115.24426777580742 0
vertex 58.14708639198592 -115.47204394237241 0
endloop
endfacet
facet normal -0.9997065515991157 -0.02422417573014002 0
outer loop
vertex 58.15262659158715 -115.70068193015612 1
vertex 58.14708639198592 -115.47204394237241 1
vertex 58.14708639198592 -115.47204394237241 0
endloop
endfacet
facet normal -0.9997065515991157 -0.02422417573014002 0
outer loop
vertex 58.15262659158715 -115.70068193015612 1
vertex 58.14708639198592 -115.47204394237241 0
vertex 58.15262659158715 -115.7006819301563 0
endloop
endfacet
facet normal -0.990402834293025 -0.13821080212611045 0
outer loop
vertex 58.1842364 -115.92719195000075 1
vertex 58.15262659158715 -115.70068193015612 1
vertex 58.15262659158715 -115.7006819301563 0
endloop
endfacet
facet normal -0.990402834293025 -0.13821080212611045 0
outer loop
vertex 58.1842364 -115.92719195000075 1
vertex 58.15262659158715 -115.7006819301563 0
vertex 58.18423640000002 -115.92719195000053 0
endloop
endfacet
facet normal -0.9808806139386093 -0.1946104344566777 0
outer loop
vertex 72.38609370000005 -187.5077663000002 1
vertex 58.1842364 -115.92719195000075 1
vertex 58.18423640000002 -115.92719195000053 0
endloop
endfacet
facet normal -0.9808806139386093 -0.1946104344566777 0
outer loop
vertex 72.38609370000005 -187.5077663000002 1
vertex 58.18423640000002 -115.92719195000053 0
vertex 72.3860937 -187.50776630000001 0
endloop
endfacet
endsolid csg.js
