solid csg.js
facet normal 0 0 -1
outer loop
vertex 63.78232595 -108.42401274999999 0
vertex 98.25747829999969 -111.76646899999996 0
vertex 98.42101410902448 -111.78916888460152 0
endloop
endfacet
facet normal 0 0 -1
outer loop
vertex 63.78232595 -108.42401274999999 0
vertex 98.42101410902448 -111.78916888460152 0
vertex 98.58211915000005 -111.82528320000026 0
endloop
endfacet
facet normal 0 0 -1
outer loop
vertex 63.78232595 -108.42401274999999 0
vertex 98.58211915000005 -111.82528320000026 0
vertex 121.44456610000023 -117.95125830000008 0
endloop
endfacet
facet normal 0 0 -1
outer loop
vertex 63.78232595 -108.42401274999999 0
vertex 121.44456610000023 -117.95125830000008 0
vertex 121.60214368657718 -118.00053430267204 0
endloop
endfacet
facet normal 0 0 -1
outer loop
vertex 63.78232595 -108.42401274999999 0
vertex 121.60214368657718 -118.00053430267204 0
vertex 121.75512304999988 -118.06263914999994 0
endloop
endfacet
facet normal 0 0 -1
outer loop
vertex 63.78232595 -108.42401274999999 0
vertex 121.75512304999988 -118.06263914999994 0
vertex 135.4247674012835 -124.28140702584358 0
endloop
endfacet
facet normal 0 0 -1
outer loop
vertex 63.78232595 -108.42401274999999 0
vertex 135.4247674012835 -124.28140702584358 0
vertex 114.8942696827303 -124.28140702584358 0
endloop
endfacet
facet normal 0 0 -1
outer loop
vertex 63.78232595 -108.42401274999999 0
vertex 114.8942696827303 -124.28140702584358 0
vertex 57.80319973213759 -124.28140702584358 0
endloop
endfacet
facet normal 0 0 -1
outer loop
vertex 63.78232595 -108.42401274999999 0
vertex 57.80319973213759 -124.28140702584358 0
vertex 61.65748190000002 -109.89703549999992 0
endloop
endfacet
facet normal 0 0 -1
outer loop
vertex 63.78232595 -108.42401274999999 0
vertex 61.65748190000002 -109.89703549999992 0
vertex 61.761518571709246 -109.60283838544856 0
endloop
endfacet
facet normal 0 0 -1
outer loop
vertex 63.78232595 -108.42401274999999 0
vertex 61.761518571709246 -109.60283838544856 0
vertex 61.91004624226839 -109.32840689747454 0
endloop
endfacet
facet normal 0 0 -1
outer loop
vertex 63.78232595 -108.42401274999999 0
vertex 61.91004624226839 -109.32840689747454 0
vertex 62.099453311357706 -109.0804188479792 0
endloop
endfacet
facet normal 0 0 -1
outer loop
vertex 63.78232595 -108.42401274999999 0
vertex 62.099453311357706 -109.0804188479792 0
vertex 62.32512899010942 -108.8649110789002 0
endloop
endfacet
facet normal 0 0 -1
outer loop
vertex 63.78232595 -108.42401274999999 0
vertex 62.32512899010942 -108.8649110789002 0
vertex 62.58157959282187 -108.68712975569116 0
endloop
endfacet
facet normal 0 0 -1
outer loop
vertex 63.78232595 -108.42401274999999 0
vertex 62.58157959282187 -108.68712975569116 0
vertex 62.86256227127507 -108.55140265846023 0
endloop
endfacet
facet normal 0 0 -1
outer loop
vertex 63.78232595 -108.42401274999999 0
vertex 62.86256227127507 -108.55140265846023 0
vertex 63.16123698611871 -108.46103382961695 0
endloop
endfacet
facet normal 0 0 -1
outer loop
vertex 63.78232595 -108.42401274999999 0
vertex 63.16123698611871 -108.46103382961695 0
vertex 63.470333015848865 -108.41822314265077 0
endloop
endfacet
facet normal 0 0 -1
outer loop
vertex 135.4247674012835 -124.28140702584358 0
vertex 137.82002329999983 -125.37108719999993 0
vertex 135.2881052963231 -125.37108719999993 0
endloop
endfacet
facet normal 0 0 -1
outer loop
vertex 135.4247674012835 -124.28140702584358 0
vertex 135.2881052963231 -125.37108719999993 0
vertex 114.8942696827303 -124.28140702584358 0
endloop
endfacet
facet normal 0 0 -1
outer loop
vertex 240.13301994697477 -108.46102221221744 0
vertex 240.4316987191268 -108.55139158316096 0
vertex 240.71268504614193 -108.68712041638838 0
endloop
endfacet
facet normal 0 0 -1
outer loop
vertex 240.13301994697477 -108.46102221221744 0
vertex 240.71268504614193 -108.68712041638838 0
vertex 240.96913862271677 -108.86490454166619 0
endloop
endfacet
facet normal 0 0 -1
outer loop
vertex 240.13301994697477 -108.46102221221744 0
vertex 240.96913862271677 -108.86490454166619 0
vertex 241.19481636656795 -109.0804159985986 0
endloop
endfacet
facet normal 0 0 -1
outer loop
vertex 240.13301994697477 -108.46102221221744 0
vertex 241.19481636656795 -109.0804159985986 0
vertex 241.38422439945336 -109.32840839609717 0
endloop
endfacet
facet normal 0 0 -1
outer loop
vertex 240.13301994697477 -108.46102221221744 0
vertex 241.38422439945336 -109.32840839609717 0
vertex 241.53275178964003 -109.60284463004493 0
endloop
endfacet
facet normal 0 0 -1
outer loop
vertex 240.13301994697477 -108.46102221221744 0
vertex 241.53275178964003 -109.60284463004493 0
vertex 241.6367828000001 -109.89704385000037 0
endloop
endfacet
facet normal 0 0 -1
outer loop
vertex 240.13301994697477 -108.46102221221744 0
vertex 241.6367828000001 -109.89704385000037 0
vertex 245.78304015041013 -125.37109479999997 0
endloop
endfacet
facet normal 0 0 -1
outer loop
vertex 240.13301994697477 -108.46102221221744 0
vertex 245.78304015041013 -125.37109479999997 0
vertex 165.4742434500001 -125.37109479999997 0
endloop
endfacet
facet normal 0 0 -1
outer loop
vertex 240.13301994697477 -108.46102221221744 0
vertex 165.4742434500001 -125.37109479999997 0
vertex 181.53914220000073 -118.06264239999969 0
endloop
endfacet
facet normal 0 0 -1
outer loop
vertex 240.13301994697477 -108.46102221221744 0
vertex 181.53914220000073 -118.06264239999969 0
vertex 181.69211559514642 -118.00053713304726 0
endloop
endfacet
facet normal 0 0 -1
outer loop
vertex 240.13301994697477 -108.46102221221744 0
vertex 181.69211559514642 -118.00053713304726 0
vertex 181.84968609999987 -117.95126120000005 0
endloop
endfacet
facet normal 0 0 -1
outer loop
vertex 240.13301994697477 -108.46102221221744 0
vertex 181.84968609999987 -117.95126120000005 0
vertex 204.71214409999905 -111.82528320000026 0
endloop
endfacet
facet normal 0 0 -1
outer loop
vertex 240.13301994697477 -108.46102221221744 0
vertex 204.71214409999905 -111.82528320000026 0
vertex 204.87324709097558 -111.78917098460154 0
endloop
endfacet
facet normal 0 0 -1
outer loop
vertex 240.13301994697477 -108.46102221221744 0
vertex 204.87324709097558 -111.78917098460154 0
vertex 205.0367820499999 -111.76646660000003 0
endloop
endfacet
facet normal 0 0 -1
outer loop
vertex 240.13301994697477 -108.46102221221744 0
vertex 205.0367820499999 -111.76646660000003 0
vertex 239.5119256000002 -108.4240077 0
endloop
endfacet
facet normal 0 0 -1
outer loop
vertex 240.13301994697477 -108.46102221221744 0
vertex 239.5119256000002 -108.4240077 0
vertex 239.82391973824778 -108.41821224721349 0
endloop
endfacet
facet normal 0 0 -1
outer loop
vertex 137.82002329999983 -125.37108719999993 0
vertex 138.01867981357023 -125.44895525350968 0
vertex 136.74543958622854 -125.44895525350968 0
endloop
endfacet
facet normal 0 0 -1
outer loop
vertex 137.82002329999983 -125.37108719999993 0
vertex 136.74543958622854 -125.44895525350968 0
vertex 135.2881052963231 -125.37108719999993 0
endloop
endfacet
facet normal 0 0 -1
outer loop
vertex 245.78304015041013 -125.37109479999997 0
vertex 245.80390483133317 -125.44896288882632 0
vertex 165.27558468887528 -125.44896288882632 0
endloop
endfacet
facet normal 0 0 -1
outer loop
vertex 245.78304015041013 -125.37109479999997 0
vertex 165.27558468887528 -125.44896288882632 0
vertex 165.4742434500001 -125.37109479999997 0
endloop
endfacet
facet normal 0 0 -1
outer loop
vertex 138.01867981357023 -125.44895525350968 0
vertex 138.22449840320087 -125.50522053569166 0
vertex 137.7984686701615 -125.50522053569166 0
endloop
endfacet
facet normal 0 0 -1
outer loop
vertex 138.01867981357023 -125.44895525350968 0
vertex 137.7984686701615 -125.50522053569166 0
vertex 136.74543958622854 -125.44895525350968 0
endloop
endfacet
facet normal 0 0 -1
outer loop
vertex 245.80390483133317 -125.44896288882632 0
vertex 245.81897984310962 -125.50522362726737 0
vertex 165.06976080314095 -125.50522362726737 0
endloop
endfacet
facet normal 0 0 -1
outer loop
vertex 245.80390483133317 -125.44896288882632 0
vertex 165.06976080314095 -125.50522362726737 0
vertex 165.27558468887528 -125.44896288882632 0
endloop
endfacet
facet normal 0 0 -1
outer loop
vertex 245.81897984310962 -125.50522362726737 0
vertex 245.8280935991568 -125.53923664515344 0
vertex 164.85911451847556 -125.53923664515344 0
endloop
endfacet
facet normal 0 0 -1
outer loop
vertex 245.81897984310962 -125.50522362726737 0
vertex 164.85911451847556 -125.53923664515344 0
vertex 165.06976080314095 -125.50522362726737 0
endloop
endfacet
facet normal 0 0 -1
outer loop
vertex 138.22449840320087 -125.50522053569166 0
vertex 138.4351398393618 -125.53923904813236 0
vertex 137.7984686701615 -125.50522053569166 0
endloop
endfacet
facet normal 0 0 -1
outer loop
vertex 164.64589772616273 -125.5506286613245 0
vertex 164.64600638406148 -125.55062285643585 0
vertex 164.6460468999998 -125.55062069193136 0
endloop
endfacet
facet normal 0 0 -1
outer loop
vertex 164.64589772616273 -125.5506286613245 0
vertex 164.6460468999998 -125.55062069193136 0
vertex 164.64600638406148 -125.55062285643585 0
endloop
endfacet
facet normal 0 0 -1
outer loop
vertex 164.64589772616273 -125.5506286613245 0
vertex 164.64600638406148 -125.55062285643585 0
vertex 153.48849193725758 -125.55062285643585 0
endloop
endfacet
facet normal 0 0 -1
outer loop
vertex 164.64589772616273 -125.5506286613245 0
vertex 153.48849193725758 -125.55062285643585 0
vertex 157.54908258714352 -125.55062069193136 0
endloop
endfacet
facet normal 0 0 -1
outer loop
vertex 114.8942696827303 -124.28140702584358 0
vertex 135.2881052963231 -125.37108719999993 0
vertex 136.74543958622854 -125.44895525350968 0
endloop
endfacet
facet normal 0 0 -1
outer loop
vertex 114.8942696827303 -124.28140702584358 0
vertex 136.74543958622854 -125.44895525350968 0
vertex 137.7984686701615 -125.50522053569166 0
endloop
endfacet
facet normal 0 0 -1
outer loop
vertex 114.8942696827303 -124.28140702584358 0
vertex 137.7984686701615 -125.50522053569166 0
vertex 138.4351398393618 -125.53923904813236 0
endloop
endfacet
facet normal 0 0 -1
outer loop
vertex 114.8942696827303 -124.28140702584358 0
vertex 138.4351398393618 -125.53923904813236 0
vertex 138.6482066499999 -125.55062285643585 0
endloop
endfacet
facet normal 0 0 -1
outer loop
vertex 114.8942696827303 -124.28140702584358 0
vertex 138.6482066499999 -125.55062285643585 0
vertex 105.75233028229303 -125.5506286613245 0
endloop
endfacet
facet normal 0 0 -1
outer loop
vertex 114.8942696827303 -124.28140702584358 0
vertex 105.75233028229303 -125.5506286613245 0
vertex 57.463112693374015 -125.5506286613245 0
endloop
endfacet
facet normal 0 0 -1
outer loop
vertex 114.8942696827303 -124.28140702584358 0
vertex 57.463112693374015 -125.5506286613245 0
vertex 57.80319973213759 -124.28140702584358 0
endloop
endfacet
facet normal 0 0 -1
outer loop
vertex 153.48849193725758 -125.55062285643585 0
vertex 164.64600638406148 -125.55062285643585 0
vertex 164.64589772616273 -125.5506286613245 0
endloop
endfacet
facet normal 0 0 -1
outer loop
vertex 153.48849193725758 -125.55062285643585 0
vertex 164.64589772616273 -125.5506286613245 0
vertex 105.75233028229303 -125.5506286613245 0
endloop
endfacet
facet normal 0 0 -1
outer loop
vertex 153.48849193725758 -125.55062285643585 0
vertex 105.75233028229303 -125.5506286613245 0
vertex 138.6482066499999 -125.55062285643585 0
endloop
endfacet
facet normal 0 0 -1
outer loop
vertex 153.48849193725758 -125.55062285643585 0
vertex 138.6482066499999 -125.55062285643585 0
vertex 143.48097214317698 -125.55062285643585 0
endloop
endfacet
facet normal 0 0 -1
outer loop
vertex 105.75233028229303 -125.5506286613245 0
vertex 164.64589772616273 -125.5506286613245 0
vertex 162.860285513977 -125.646022371051 0
endloop
endfacet
facet normal 0 0 -1
outer loop
vertex 105.75233028229303 -125.5506286613245 0
vertex 162.860285513977 -125.646022371051 0
vertex 57.43755201638062 -125.646022371051 0
endloop
endfacet
facet normal 0 0 -1
outer loop
vertex 105.75233028229303 -125.5506286613245 0
vertex 57.43755201638062 -125.646022371051 0
vertex 57.463112693374015 -125.5506286613245 0
endloop
endfacet
facet normal 0 0 -1
outer loop
vertex 245.8280935991568 -125.53923664515344 0
vertex 245.85670673364578 -125.646022371051 0
vertex 162.860285513977 -125.646022371051 0
endloop
endfacet
facet normal 0 0 -1
outer loop
vertex 245.8280935991568 -125.53923664515344 0
vertex 162.860285513977 -125.646022371051 0
vertex 164.64589772616273 -125.5506286613245 0
endloop
endfacet
facet normal 0 0 -1
outer loop
vertex 245.8280935991568 -125.53923664515344 0
vertex 164.64589772616273 -125.5506286613245 0
vertex 164.6460468999998 -125.55062069193136 0
endloop
endfacet
facet normal 0 0 -1
outer loop
vertex 245.8280935991568 -125.53923664515344 0
vertex 164.6460468999998 -125.55062069193136 0
vertex 164.85911451847556 -125.53923664515344 0
endloop
endfacet
facet normal 0 0 -1
outer loop
vertex 162.860285513977 -125.646022371051 0
vertex 245.85670673364578 -125.646022371051 0
vertex 246.98463949999993 -129.8555268999998 0
endloop
endfacet
facet normal 0 0 -1
outer loop
vertex 162.860285513977 -125.646022371051 0
vertex 246.98463949999993 -129.8555268999998 0
vertex 247.03395443621764 -130.09934808967458 0
endloop
endfacet
facet normal 0 0 -1
outer loop
vertex 162.860285513977 -125.646022371051 0
vertex 247.03395443621764 -130.09934808967458 0
vertex 247.0526240825389 -130.34740923267668 0
endloop
endfacet
facet normal 0 0 -1
outer loop
vertex 162.860285513977 -125.646022371051 0
vertex 247.0526240825389 -130.34740923267668 0
vertex 247.04035485606323 -130.59586919412445 0
endloop
endfacet
facet normal 0 0 -1
outer loop
vertex 162.860285513977 -125.646022371051 0
vertex 247.04035485606323 -130.59586919412445 0
vertex 246.99733657057752 -130.84088411912933 0
endloop
endfacet
facet normal 0 0 -1
outer loop
vertex 162.860285513977 -125.646022371051 0
vertex 246.99733657057752 -130.84088411912933 0
vertex 246.92423475000007 -131.07866344999974 0
endloop
endfacet
facet normal 0 0 -1
outer loop
vertex 162.860285513977 -125.646022371051 0
vertex 246.92423475000007 -131.07866344999974 0
vertex 227.54337690000006 -182.4897751999998 0
endloop
endfacet
facet normal 0 0 -1
outer loop
vertex 162.860285513977 -125.646022371051 0
vertex 227.54337690000006 -182.4897751999998 0
vertex 227.40898181607173 -182.77559119922006 0
endloop
endfacet
facet normal 0 0 -1
outer loop
vertex 162.860285513977 -125.646022371051 0
vertex 227.40898181607173 -182.77559119922006 0
vertex 227.23126689188976 -183.03668366259876 0
endloop
endfacet
facet normal 0 0 -1
outer loop
vertex 162.860285513977 -125.646022371051 0
vertex 227.23126689188976 -183.03668366259876 0
vertex 227.01466552640017 -183.26654387485428 0
endloop
endfacet
facet normal 0 0 -1
outer loop
vertex 162.860285513977 -125.646022371051 0
vertex 227.01466552640017 -183.26654387485428 0
vertex 226.7645793173456 -183.45943958955834 0
endloop
endfacet
facet normal 0 0 -1
outer loop
vertex 162.860285513977 -125.646022371051 0
vertex 226.7645793173456 -183.45943958955834 0
vertex 226.48724490640038 -183.6105603797081 0
endloop
endfacet
facet normal 0 0 -1
outer loop
vertex 162.860285513977 -125.646022371051 0
vertex 226.48724490640038 -183.6105603797081 0
vertex 226.18957844999912 -183.71613760000025 0
endloop
endfacet
facet normal 0 0 -1
outer loop
vertex 162.860285513977 -125.646022371051 0
vertex 226.18957844999912 -183.71613760000025 0
vertex 169.4800178000018 -198.91141639999958 0
endloop
endfacet
facet normal 0 0 -1
outer loop
vertex 162.860285513977 -125.646022371051 0
vertex 169.4800178000018 -198.91141639999958 0
vertex 169.309676289977 -198.94917935345424 0
endloop
endfacet
facet normal 0 0 -1
outer loop
vertex 162.860285513977 -125.646022371051 0
vertex 169.309676289977 -198.94917935345424 0
vertex 169.1366907805591 -198.97195045424195 0
endloop
endfacet
facet normal 0 0 -1
outer loop
vertex 162.860285513977 -125.646022371051 0
vertex 169.1366907805591 -198.97195045424195 0
vertex 168.9623788999997 -198.9795582 0
endloop
endfacet
facet normal 0 0 -1
outer loop
vertex 162.860285513977 -125.646022371051 0
vertex 168.9623788999997 -198.9795582 0
vertex 134.33188009999986 -198.9795647 0
endloop
endfacet
facet normal 0 0 -1
outer loop
vertex 162.860285513977 -125.646022371051 0
vertex 134.33188009999986 -198.9795647 0
vertex 134.15756816944122 -198.97195460424197 0
endloop
endfacet
facet normal 0 0 -1
outer loop
vertex 162.860285513977 -125.646022371051 0
vertex 134.15756816944122 -198.97195460424197 0
vertex 133.98458266002262 -198.94918350345418 0
endloop
endfacet
facet normal 0 0 -1
outer loop
vertex 162.860285513977 -125.646022371051 0
vertex 133.98458266002262 -198.94918350345418 0
vertex 133.81424005000014 -198.91142235000004 0
endloop
endfacet
facet normal 0 0 -1
outer loop
vertex 162.860285513977 -125.646022371051 0
vertex 133.81424005000014 -198.91142235000004 0
vertex 77.10468350000019 -183.71613760000025 0
endloop
endfacet
facet normal 0 0 -1
outer loop
vertex 162.860285513977 -125.646022371051 0
vertex 77.10468350000019 -183.71613760000025 0
vertex 76.80701529359996 -183.6105603797081 0
endloop
endfacet
facet normal 0 0 -1
outer loop
vertex 162.860285513977 -125.646022371051 0
vertex 76.80701529359996 -183.6105603797081 0
vertex 76.529680882654 -183.45943958955834 0
endloop
endfacet
facet normal 0 0 -1
outer loop
vertex 162.860285513977 -125.646022371051 0
vertex 76.529680882654 -183.45943958955834 0
vertex 76.2795946736 -183.26654387485428 0
endloop
endfacet
facet normal 0 0 -1
outer loop
vertex 162.860285513977 -125.646022371051 0
vertex 76.2795946736 -183.26654387485428 0
vertex 76.06299330811021 -183.03668366259876 0
endloop
endfacet
facet normal 0 0 -1
outer loop
vertex 162.860285513977 -125.646022371051 0
vertex 76.06299330811021 -183.03668366259876 0
vertex 75.88527838392811 -182.77559119922006 0
endloop
endfacet
facet normal 0 0 -1
outer loop
vertex 162.860285513977 -125.646022371051 0
vertex 75.88527838392811 -182.77559119922006 0
vertex 75.75088174999999 -182.48977804999998 0
endloop
endfacet
facet normal 0 0 -1
outer loop
vertex 162.860285513977 -125.646022371051 0
vertex 75.75088174999999 -182.48977804999998 0
vertex 56.37003329999996 -131.0786557999999 0
endloop
endfacet
facet normal 0 0 -1
outer loop
vertex 162.860285513977 -125.646022371051 0
vertex 56.37003329999996 -131.0786557999999 0
vertex 56.29693287797727 -130.84087833466705 0
endloop
endfacet
facet normal 0 0 -1
outer loop
vertex 162.860285513977 -125.646022371051 0
vertex 56.29693287797727 -130.84087833466705 0
vertex 56.25391157582567 -130.59586798189713 0
endloop
endfacet
facet normal 0 0 -1
outer loop
vertex 162.860285513977 -125.646022371051 0
vertex 56.25391157582567 -130.59586798189713 0
vertex 56.24163829282743 -130.34741220730592 0
endloop
endfacet
facet normal 0 0 -1
outer loop
vertex 162.860285513977 -125.646022371051 0
vertex 56.24163829282743 -130.34741220730592 0
vertex 56.26030289944862 -130.09935467796447 0
endloop
endfacet
facet normal 0 0 -1
outer loop
vertex 162.860285513977 -125.646022371051 0
vertex 56.26030289944862 -130.09935467796447 0
vertex 56.30961664999998 -129.85553290000007 0
endloop
endfacet
facet normal 0 0 -1
outer loop
vertex 162.860285513977 -125.646022371051 0
vertex 56.30961664999998 -129.85553290000007 0
vertex 57.43755201638062 -125.646022371051 0
endloop
endfacet
facet normal 0 0 1
outer loop
vertex 168.96237889999998 -198.9795582 1
vertex 169.136690780559 -198.97195045424195 1
vertex 169.30967628997706 -198.94917935345424 1
endloop
endfacet
facet normal 0 0 1
outer loop
vertex 168.96237889999998 -198.9795582 1
vertex 169.30967628997706 -198.94917935345424 1
vertex 169.48001780000124 -198.91141639999972 1
endloop
endfacet
facet normal 0 0 1
outer loop
vertex 168.96237889999998 -198.9795582 1
vertex 169.48001780000124 -198.91141639999972 1
vertex 226.18957844999912 -183.71613610000006 1
endloop
endfacet
facet normal 0 0 1
outer loop
vertex 168.96237889999998 -198.9795582 1
vertex 226.18957844999912 -183.71613610000006 1
vertex 226.4872449064 -183.61056082970822 1
endloop
endfacet
facet normal 0 0 1
outer loop
vertex 168.96237889999998 -198.9795582 1
vertex 226.4872449064 -183.61056082970822 1
vertex 226.76457931734592 -183.45944003955822 1
endloop
endfacet
facet normal 0 0 1
outer loop
vertex 168.96237889999998 -198.9795582 1
vertex 226.76457931734592 -183.45944003955822 1
vertex 227.01466552639994 -183.2665443248543 1
endloop
endfacet
facet normal 0 0 1
outer loop
vertex 168.96237889999998 -198.9795582 1
vertex 227.01466552639994 -183.2665443248543 1
vertex 227.23126689188987 -183.03668411259883 1
endloop
endfacet
facet normal 0 0 1
outer loop
vertex 168.96237889999998 -198.9795582 1
vertex 227.23126689188987 -183.03668411259883 1
vertex 227.4089818160717 -182.7755916492197 1
endloop
endfacet
facet normal 0 0 1
outer loop
vertex 168.96237889999998 -198.9795582 1
vertex 227.4089818160717 -182.7755916492197 1
vertex 227.54337689999997 -182.4897752 1
endloop
endfacet
facet normal 0 0 1
outer loop
vertex 168.96237889999998 -198.9795582 1
vertex 227.54337689999997 -182.4897752 1
vertex 246.92423474999984 -131.07866345000033 1
endloop
endfacet
facet normal 0 0 1
outer loop
vertex 168.96237889999998 -198.9795582 1
vertex 246.92423474999984 -131.07866345000033 1
vertex 246.99733657057763 -130.8408841191288 1
endloop
endfacet
facet normal 0 0 1
outer loop
vertex 168.96237889999998 -198.9795582 1
vertex 246.99733657057763 -130.8408841191288 1
vertex 247.04035485606323 -130.5958691941246 1
endloop
endfacet
facet normal 0 0 1
outer loop
vertex 168.96237889999998 -198.9795582 1
vertex 247.04035485606323 -130.5958691941246 1
vertex 247.0526240825389 -130.34740923267682 1
endloop
endfacet
facet normal 0 0 1
outer loop
vertex 168.96237889999998 -198.9795582 1
vertex 247.0526240825389 -130.34740923267682 1
vertex 247.03395443621764 -130.09934808967455 1
endloop
endfacet
facet normal 0 0 1
outer loop
vertex 168.96237889999998 -198.9795582 1
vertex 247.03395443621764 -130.09934808967455 1
vertex 246.98463949999993 -129.85552689999977 1
endloop
endfacet
facet normal 0 0 1
outer loop
vertex 168.96237889999998 -198.9795582 1
vertex 246.98463949999993 -129.85552689999977 1
vertex 245.85670673364578 -125.646022371051 1
endloop
endfacet
facet normal 0 0 1
outer loop
vertex 168.96237889999998 -198.9795582 1
vertex 245.85670673364578 -125.646022371051 1
vertex 162.86028551397698 -125.646022371051 1
endloop
endfacet
facet normal 0 0 1
outer loop
vertex 168.96237889999998 -198.9795582 1
vertex 162.86028551397698 -125.646022371051 1
vertex 57.43755201638062 -125.646022371051 1
endloop
endfacet
facet normal 0 0 1
outer loop
vertex 168.96237889999998 -198.9795582 1
vertex 57.43755201638062 -125.646022371051 1
vertex 56.30961664999998 -129.85553290000013 1
endloop
endfacet
facet normal 0 0 1
outer loop
vertex 168.96237889999998 -198.9795582 1
vertex 56.30961664999998 -129.85553290000013 1
vertex 56.26030289944862 -130.09935467796456 1
endloop
endfacet
facet normal 0 0 1
outer loop
vertex 168.96237889999998 -198.9795582 1
vertex 56.26030289944862 -130.09935467796456 1
vertex 56.24163829282743 -130.34741220730595 1
endloop
endfacet
facet normal 0 0 1
outer loop
vertex 168.96237889999998 -198.9795582 1
vertex 56.24163829282743 -130.34741220730595 1
vertex 56.25391157582567 -130.5958679818971 1
endloop
endfacet
facet normal 0 0 1
outer loop
vertex 168.96237889999998 -198.9795582 1
vertex 56.25391157582567 -130.5958679818971 1
vertex 56.296932877977255 -130.840878334667 1
endloop
endfacet
facet normal 0 0 1
outer loop
vertex 168.96237889999998 -198.9795582 1
vertex 56.296932877977255 -130.840878334667 1
vertex 56.37003329999999 -131.07865579999998 1
endloop
endfacet
facet normal 0 0 1
outer loop
vertex 168.96237889999998 -198.9795582 1
vertex 56.37003329999999 -131.07865579999998 1
vertex 75.75088175000008 -182.48977805000018 1
endloop
endfacet
facet normal 0 0 1
outer loop
vertex 168.96237889999998 -198.9795582 1
vertex 75.75088175000008 -182.48977805000018 1
vertex 75.88527838392802 -182.7755916492197 1
endloop
endfacet
facet normal 0 0 1
outer loop
vertex 168.96237889999998 -198.9795582 1
vertex 75.88527838392802 -182.7755916492197 1
vertex 76.06299330811028 -183.03668411259883 1
endloop
endfacet
facet normal 0 0 1
outer loop
vertex 168.96237889999998 -198.9795582 1
vertex 76.06299330811028 -183.03668411259883 1
vertex 76.27959467359986 -183.2665443248543 1
endloop
endfacet
facet normal 0 0 1
outer loop
vertex 168.96237889999998 -198.9795582 1
vertex 76.27959467359986 -183.2665443248543 1
vertex 76.52968088265422 -183.45944003955822 1
endloop
endfacet
facet normal 0 0 1
outer loop
vertex 168.96237889999998 -198.9795582 1
vertex 76.52968088265422 -183.45944003955822 1
vertex 76.8070152935999 -183.61056082970822 1
endloop
endfacet
facet normal 0 0 1
outer loop
vertex 168.96237889999998 -198.9795582 1
vertex 76.8070152935999 -183.61056082970822 1
vertex 77.10468350000019 -183.71613610000006 1
endloop
endfacet
facet normal 0 0 1
outer loop
vertex 168.96237889999998 -198.9795582 1
vertex 77.10468350000019 -183.71613610000006 1
vertex 133.81424004999977 -198.91142234999995 1
endloop
endfacet
facet normal 0 0 1
outer loop
vertex 168.96237889999998 -198.9795582 1
vertex 133.81424004999977 -198.91142234999995 1
vertex 133.9845826600229 -198.94918350345424 1
endloop
endfacet
facet normal 0 0 1
outer loop
vertex 168.96237889999998 -198.9795582 1
vertex 133.9845826600229 -198.94918350345424 1
vertex 134.15756816944096 -198.97195460424194 1
endloop
endfacet
facet normal 0 0 1
outer loop
vertex 168.96237889999998 -198.9795582 1
vertex 134.15756816944096 -198.97195460424194 1
vertex 134.3318801000002 -198.9795647 1
endloop
endfacet
facet normal 0 0 1
outer loop
vertex 162.86028551397698 -125.646022371051 1
vertex 164.64589772616327 -125.5506286613245 1
vertex 143.48097214317698 -125.55062285643585 1
endloop
endfacet
facet normal 0 0 1
outer loop
vertex 162.86028551397698 -125.646022371051 1
vertex 143.48097214317698 -125.55062285643585 1
vertex 138.64820664999985 -125.55062285643585 1
endloop
endfacet
facet normal 0 0 1
outer loop
vertex 162.86028551397698 -125.646022371051 1
vertex 138.64820664999985 -125.55062285643585 1
vertex 105.75233028229303 -125.5506286613245 1
endloop
endfacet
facet normal 0 0 1
outer loop
vertex 162.86028551397698 -125.646022371051 1
vertex 105.75233028229303 -125.5506286613245 1
vertex 57.463112693374015 -125.5506286613245 1
endloop
endfacet
facet normal 0 0 1
outer loop
vertex 162.86028551397698 -125.646022371051 1
vertex 57.463112693374015 -125.5506286613245 1
vertex 57.43755201638062 -125.646022371051 1
endloop
endfacet
facet normal 0 0 1
outer loop
vertex 153.48848385921818 -125.55062285643585 1
vertex 143.48097214317698 -125.55062285643585 1
vertex 164.64589772616327 -125.5506286613245 1
endloop
endfacet
facet normal 0 0 1
outer loop
vertex 153.48848385921818 -125.55062285643585 1
vertex 164.64589772616327 -125.5506286613245 1
vertex 164.64600638406205 -125.55062285643585 1
endloop
endfacet
facet normal 0 0 1
outer loop
vertex 153.48848385921818 -125.55062285643585 1
vertex 164.64600638406205 -125.55062285643585 1
vertex 143.48097214317698 -125.55062285643585 1
endloop
endfacet
facet normal 0 0 1
outer loop
vertex 153.48848385921818 -125.55062285643585 1
vertex 143.48097214317698 -125.55062285643585 1
vertex 105.75233028229303 -125.5506286613245 1
endloop
endfacet
facet normal 0 0 1
outer loop
vertex 164.64600638406205 -125.55062285643585 1
vertex 164.64604690000007 -125.55062069193137 1
vertex 153.48849193725755 -125.55062069193137 1
endloop
endfacet
facet normal 0 0 1
outer loop
vertex 164.64600638406205 -125.55062285643585 1
vertex 153.48849193725755 -125.55062069193137 1
vertex 153.48848385921818 -125.55062285643585 1
endloop
endfacet
facet normal 0 0 1
outer loop
vertex 245.85670673364578 -125.646022371051 1
vertex 245.8280935991568 -125.53923664515345 1
vertex 164.85911451847556 -125.53923664515345 1
endloop
endfacet
facet normal 0 0 1
outer loop
vertex 245.85670673364578 -125.646022371051 1
vertex 164.85911451847556 -125.53923664515345 1
vertex 164.64604690000007 -125.55062069193137 1
endloop
endfacet
facet normal 0 0 1
outer loop
vertex 245.85670673364578 -125.646022371051 1
vertex 164.64604690000007 -125.55062069193137 1
vertex 164.64600638406205 -125.55062285643585 1
endloop
endfacet
facet normal 0 0 1
outer loop
vertex 245.85670673364578 -125.646022371051 1
vertex 164.64600638406205 -125.55062285643585 1
vertex 164.64589772616327 -125.5506286613245 1
endloop
endfacet
facet normal 0 0 1
outer loop
vertex 245.85670673364578 -125.646022371051 1
vertex 164.64589772616327 -125.5506286613245 1
vertex 162.86028551397698 -125.646022371051 1
endloop
endfacet
facet normal 0 0 1
outer loop
vertex 245.8280935991568 -125.53923664515345 1
vertex 245.81897984310964 -125.50522362726743 1
vertex 165.0697608031407 -125.50522362726743 1
endloop
endfacet
facet normal 0 0 1
outer loop
vertex 245.8280935991568 -125.53923664515345 1
vertex 165.0697608031407 -125.50522362726743 1
vertex 164.85911451847556 -125.53923664515345 1
endloop
endfacet
facet normal 0 0 1
outer loop
vertex 138.22449840320076 -125.50522053569162 1
vertex 137.79846867016082 -125.50522053569162 1
vertex 138.4351398393619 -125.53923904813236 1
endloop
endfacet
facet normal 0 0 1
outer loop
vertex 245.81897984310964 -125.50522362726743 1
vertex 245.80390483133317 -125.44896288882629 1
vertex 165.2755846888753 -125.44896288882629 1
endloop
endfacet
facet normal 0 0 1
outer loop
vertex 245.81897984310964 -125.50522362726743 1
vertex 165.2755846888753 -125.44896288882629 1
vertex 165.0697608031407 -125.50522362726743 1
endloop
endfacet
facet normal 0 0 1
outer loop
vertex 138.22449840320076 -125.50522053569162 1
vertex 138.01867981357 -125.44895525350961 1
vertex 136.74543958622732 -125.44895525350961 1
endloop
endfacet
facet normal 0 0 1
outer loop
vertex 138.22449840320076 -125.50522053569162 1
vertex 136.74543958622732 -125.44895525350961 1
vertex 137.79846867016082 -125.50522053569162 1
endloop
endfacet
facet normal 0 0 1
outer loop
vertex 245.80390483133317 -125.44896288882629 1
vertex 245.7830401504101 -125.37109479999984 1
vertex 165.47424345000036 -125.37109479999984 1
endloop
endfacet
facet normal 0 0 1
outer loop
vertex 245.80390483133317 -125.44896288882629 1
vertex 165.47424345000036 -125.37109479999984 1
vertex 165.2755846888753 -125.44896288882629 1
endloop
endfacet
facet normal 0 0 1
outer loop
vertex 138.01867981357 -125.44895525350961 1
vertex 137.82002329999997 -125.37108719999999 1
vertex 135.28810529632426 -125.37108719999999 1
endloop
endfacet
facet normal 0 0 1
outer loop
vertex 138.01867981357 -125.44895525350961 1
vertex 135.28810529632426 -125.37108719999999 1
vertex 136.74543958622732 -125.44895525350961 1
endloop
endfacet
facet normal 0 0 1
outer loop
vertex 105.75233028229303 -125.5506286613245 1
vertex 138.64820664999985 -125.55062285643585 1
vertex 138.4351398393619 -125.53923904813236 1
endloop
endfacet
facet normal 0 0 1
outer loop
vertex 105.75233028229303 -125.5506286613245 1
vertex 138.4351398393619 -125.53923904813236 1
vertex 137.79846867016082 -125.50522053569162 1
endloop
endfacet
facet normal 0 0 1
outer loop
vertex 105.75233028229303 -125.5506286613245 1
vertex 137.79846867016082 -125.50522053569162 1
vertex 136.74543958622732 -125.44895525350961 1
endloop
endfacet
facet normal 0 0 1
outer loop
vertex 105.75233028229303 -125.5506286613245 1
vertex 136.74543958622732 -125.44895525350961 1
vertex 135.28810529632426 -125.37108719999999 1
endloop
endfacet
facet normal 0 0 1
outer loop
vertex 105.75233028229303 -125.5506286613245 1
vertex 135.28810529632426 -125.37108719999999 1
vertex 114.8942696827303 -124.28140702584358 1
endloop
endfacet
facet normal 0 0 1
outer loop
vertex 105.75233028229303 -125.5506286613245 1
vertex 114.8942696827303 -124.28140702584358 1
vertex 57.80319973213759 -124.28140702584358 1
endloop
endfacet
facet normal 0 0 1
outer loop
vertex 105.75233028229303 -125.5506286613245 1
vertex 57.80319973213759 -124.28140702584358 1
vertex 57.463112693374015 -125.5506286613245 1
endloop
endfacet
facet normal 0 0 1
outer loop
vertex 137.82002329999997 -125.37108719999999 1
vertex 135.42476740128353 -124.28140702584358 1
vertex 114.8942696827303 -124.28140702584358 1
endloop
endfacet
facet normal 0 0 1
outer loop
vertex 137.82002329999997 -125.37108719999999 1
vertex 114.8942696827303 -124.28140702584358 1
vertex 135.28810529632426 -125.37108719999999 1
endloop
endfacet
facet normal 0 0 1
outer loop
vertex 114.8942696827303 -124.28140702584358 1
vertex 135.42476740128353 -124.28140702584358 1
vertex 121.75512305000032 -118.06263915000014 1
endloop
endfacet
facet normal 0 0 1
outer loop
vertex 114.8942696827303 -124.28140702584358 1
vertex 121.75512305000032 -118.06263915000014 1
vertex 121.60214368657691 -118.00053430267195 1
endloop
endfacet
facet normal 0 0 1
outer loop
vertex 114.8942696827303 -124.28140702584358 1
vertex 121.60214368657691 -118.00053430267195 1
vertex 121.4445661000002 -117.95125830000006 1
endloop
endfacet
facet normal 0 0 1
outer loop
vertex 114.8942696827303 -124.28140702584358 1
vertex 121.4445661000002 -117.95125830000006 1
vertex 98.58211915000031 -111.82528319999996 1
endloop
endfacet
facet normal 0 0 1
outer loop
vertex 114.8942696827303 -124.28140702584358 1
vertex 98.58211915000031 -111.82528319999996 1
vertex 98.42101410902434 -111.7891688846015 1
endloop
endfacet
facet normal 0 0 1
outer loop
vertex 114.8942696827303 -124.28140702584358 1
vertex 98.42101410902434 -111.7891688846015 1
vertex 98.25747830000007 -111.766469 1
endloop
endfacet
facet normal 0 0 1
outer loop
vertex 114.8942696827303 -124.28140702584358 1
vertex 98.25747830000007 -111.766469 1
vertex 63.7823259500002 -108.42401275 1
endloop
endfacet
facet normal 0 0 1
outer loop
vertex 114.8942696827303 -124.28140702584358 1
vertex 63.7823259500002 -108.42401275 1
vertex 63.47033301584881 -108.41822314265079 1
endloop
endfacet
facet normal 0 0 1
outer loop
vertex 114.8942696827303 -124.28140702584358 1
vertex 63.47033301584881 -108.41822314265079 1
vertex 63.16123698611861 -108.46103382961697 1
endloop
endfacet
facet normal 0 0 1
outer loop
vertex 114.8942696827303 -124.28140702584358 1
vertex 63.16123698611861 -108.46103382961697 1
vertex 62.86256227127522 -108.55140265846018 1
endloop
endfacet
facet normal 0 0 1
outer loop
vertex 114.8942696827303 -124.28140702584358 1
vertex 62.86256227127522 -108.55140265846018 1
vertex 62.5815795928218 -108.6871297556912 1
endloop
endfacet
facet normal 0 0 1
outer loop
vertex 114.8942696827303 -124.28140702584358 1
vertex 62.5815795928218 -108.6871297556912 1
vertex 62.32512899010942 -108.86491107890018 1
endloop
endfacet
facet normal 0 0 1
outer loop
vertex 114.8942696827303 -124.28140702584358 1
vertex 62.32512899010942 -108.86491107890018 1
vertex 62.09945331135778 -109.08041884797912 1
endloop
endfacet
facet normal 0 0 1
outer loop
vertex 114.8942696827303 -124.28140702584358 1
vertex 62.09945331135778 -109.08041884797912 1
vertex 61.910046242268436 -109.32840689747448 1
endloop
endfacet
facet normal 0 0 1
outer loop
vertex 114.8942696827303 -124.28140702584358 1
vertex 61.910046242268436 -109.32840689747448 1
vertex 61.76151857170922 -109.60283838544862 1
endloop
endfacet
facet normal 0 0 1
outer loop
vertex 114.8942696827303 -124.28140702584358 1
vertex 61.76151857170922 -109.60283838544862 1
vertex 61.657481900000036 -109.89703549999989 1
endloop
endfacet
facet normal 0 0 1
outer loop
vertex 114.8942696827303 -124.28140702584358 1
vertex 61.657481900000036 -109.89703549999989 1
vertex 57.80319973213759 -124.28140702584358 1
endloop
endfacet
facet normal 0 0 1
outer loop
vertex 245.7830401504101 -125.37109479999984 1
vertex 241.63678280000005 -109.89704385000013 1
vertex 241.53275178964006 -109.60284463004494 1
endloop
endfacet
facet normal 0 0 1
outer loop
vertex 245.7830401504101 -125.37109479999984 1
vertex 241.53275178964006 -109.60284463004494 1
vertex 241.38422439945336 -109.32840839609717 1
endloop
endfacet
facet normal 0 0 1
outer loop
vertex 245.7830401504101 -125.37109479999984 1
vertex 241.38422439945336 -109.32840839609717 1
vertex 241.19481636656798 -109.08041599859861 1
endloop
endfacet
facet normal 0 0 1
outer loop
vertex 245.7830401504101 -125.37109479999984 1
vertex 241.19481636656798 -109.08041599859861 1
vertex 240.96913862271683 -108.86490454166623 1
endloop
endfacet
facet normal 0 0 1
outer loop
vertex 245.7830401504101 -125.37109479999984 1
vertex 240.96913862271683 -108.86490454166623 1
vertex 240.71268504614193 -108.68712041638838 1
endloop
endfacet
facet normal 0 0 1
outer loop
vertex 245.7830401504101 -125.37109479999984 1
vertex 240.71268504614193 -108.68712041638838 1
vertex 240.43169871912676 -108.55139158316094 1
endloop
endfacet
facet normal 0 0 1
outer loop
vertex 245.7830401504101 -125.37109479999984 1
vertex 240.43169871912676 -108.55139158316094 1
vertex 240.13301994697477 -108.46102221221744 1
endloop
endfacet
facet normal 0 0 1
outer loop
vertex 245.7830401504101 -125.37109479999984 1
vertex 240.13301994697477 -108.46102221221744 1
vertex 239.82391973824778 -108.41821224721349 1
endloop
endfacet
facet normal 0 0 1
outer loop
vertex 245.7830401504101 -125.37109479999984 1
vertex 239.82391973824778 -108.41821224721349 1
vertex 239.5119256000001 -108.4240077 1
endloop
endfacet
facet normal 0 0 1
outer loop
vertex 245.7830401504101 -125.37109479999984 1
vertex 239.5119256000001 -108.4240077 1
vertex 205.03678205000034 -111.76646659999997 1
endloop
endfacet
facet normal 0 0 1
outer loop
vertex 245.7830401504101 -125.37109479999984 1
vertex 205.03678205000034 -111.76646659999997 1
vertex 204.87324709097527 -111.78917098460158 1
endloop
endfacet
facet normal 0 0 1
outer loop
vertex 245.7830401504101 -125.37109479999984 1
vertex 204.87324709097527 -111.78917098460158 1
vertex 204.71214410000027 -111.82528319999996 1
endloop
endfacet
facet normal 0 0 1
outer loop
vertex 245.7830401504101 -125.37109479999984 1
vertex 204.71214410000027 -111.82528319999996 1
vertex 181.84968609999936 -117.9512612000002 1
endloop
endfacet
facet normal 0 0 1
outer loop
vertex 245.7830401504101 -125.37109479999984 1
vertex 181.84968609999936 -117.9512612000002 1
vertex 181.69211559514616 -118.00053713304735 1
endloop
endfacet
facet normal 0 0 1
outer loop
vertex 245.7830401504101 -125.37109479999984 1
vertex 181.69211559514616 -118.00053713304735 1
vertex 181.53914220000078 -118.06264239999965 1
endloop
endfacet
facet normal 0 0 1
outer loop
vertex 245.7830401504101 -125.37109479999984 1
vertex 181.53914220000078 -118.06264239999965 1
vertex 165.47424345000036 -125.37109479999984 1
endloop
endfacet
facet normal -0.9049453834353884 -0.4255277347000755 0
outer loop
vertex 75.88527838392802 -182.7755916492197 1
vertex 75.75088175000008 -182.48977805000018 1
vertex 75.75088174999999 -182.48977804999998 0
endloop
endfacet
facet normal -0.9049453834353884 -0.4255277347000755 0
outer loop
vertex 75.88527838392802 -182.7755916492197 1
vertex 75.75088174999999 -182.48977804999998 0
vertex 75.88527838392811 -182.77559119922006 0
endloop
endfacet
facet normal -0.8266731185266059 -0.5626824638332852 0
outer loop
vertex 76.06299330811028 -183.03668411259883 1
vertex 75.88527838392802 -182.7755916492197 1
vertex 75.88527838392811 -182.77559119922006 0
endloop
endfacet
facet normal -0.8266731185266059 -0.5626824638332852 0
outer loop
vertex 76.06299330811028 -183.03668411259883 1
vertex 75.88527838392811 -182.77559119922006 0
vertex 76.06299330811021 -183.03668366259876 0
endloop
endfacet
facet normal -0.7277853065214135 -0.6858050361520628 0
outer loop
vertex 76.27959467359986 -183.2665443248543 1
vertex 76.06299330811028 -183.03668411259883 1
vertex 76.06299330811021 -183.03668366259876 0
endloop
endfacet
facet normal -0.7277853065214135 -0.6858050361520628 0
outer loop
vertex 76.27959467359986 -183.2665443248543 1
vertex 76.06299330811021 -183.03668366259876 0
vertex 76.2795946736 -183.26654387485428 0
endloop
endfacet
facet normal -0.6107480084298518 -0.7918250249890878 0
outer loop
vertex 76.52968088265422 -183.45944003955822 1
vertex 76.27959467359986 -183.2665443248543 1
vertex 76.2795946736 -183.26654387485428 0
endloop
endfacet
facet normal -0.6107480084298518 -0.7918250249890878 0
outer loop
vertex 76.52968088265422 -183.45944003955822 1
vertex 76.2795946736 -183.26654387485428 0
vertex 76.529680882654 -183.45943958955834 0
endloop
endfacet
facet normal -0.47847989655033973 -0.8780985073425283 0
outer loop
vertex 76.8070152935999 -183.61056082970822 1
vertex 76.52968088265422 -183.45944003955822 1
vertex 76.529680882654 -183.45943958955834 0
endloop
endfacet
facet normal -0.47847989655033973 -0.8780985073425283 0
outer loop
vertex 76.8070152935999 -183.61056082970822 1
vertex 76.529680882654 -183.45943958955834 0
vertex 76.80701529359996 -183.6105603797081 0
endloop
endfacet
facet normal -0.33427223888645463 -0.9424765622071655 0
outer loop
vertex 77.10468350000019 -183.71613610000006 1
vertex 76.8070152935999 -183.61056082970822 1
vertex 76.80701529359996 -183.6105603797081 0
endloop
endfacet
facet normal -0.33427223888645463 -0.9424765622071655 0
outer loop
vertex 77.10468350000019 -183.71613610000006 1
vertex 76.80701529359996 -183.6105603797081 0
vertex 77.10468350000019 -183.71613760000025 0
endloop
endfacet
facet normal -0.2588191463226228 -0.9659257991672181 0
outer loop
vertex 133.81424004999977 -198.91142234999995 1
vertex 77.10468350000019 -183.71613610000006 1
vertex 77.10468350000019 -183.71613760000025 0
endloop
endfacet
facet normal -0.2588191463226228 -0.9659257991672181 0
outer loop
vertex 133.81424004999977 -198.91142234999995 1
vertex 77.10468350000019 -183.71613760000025 0
vertex 133.81424005000014 -198.91142235000004 0
endloop
endfacet
facet normal -0.21642380424702853 -0.9762995119097642 0
outer loop
vertex 133.9845826600229 -198.94918350345424 1
vertex 133.81424004999977 -198.91142234999995 1
vertex 133.81424005000014 -198.91142235000004 0
endloop
endfacet
facet normal -0.21642380424702853 -0.9762995119097642 0
outer loop
vertex 133.9845826600229 -198.94918350345424 1
vertex 133.81424005000014 -198.91142235000004 0
vertex 133.98458266002262 -198.94918350345418 0
endloop
endfacet
facet normal -0.13051000323210377 -0.9914469925600442 0
outer loop
vertex 134.15756816944096 -198.97195460424194 1
vertex 133.9845826600229 -198.94918350345424 1
vertex 133.98458266002262 -198.94918350345418 0
endloop
endfacet
facet normal -0.13051000323210377 -0.9914469925600442 0
outer loop
vertex 134.15756816944096 -198.97195460424194 1
vertex 133.98458266002262 -198.94918350345418 0
vertex 134.15756816944122 -198.97195460424197 0
endloop
endfacet
facet normal -0.04361636986826055 -0.9990483533240597 0
outer loop
vertex 134.3318801000002 -198.9795647 1
vertex 134.15756816944096 -198.97195460424194 1
vertex 134.15756816944122 -198.97195460424197 0
endloop
endfacet
facet normal -0.04361636986826055 -0.9990483533240597 0
outer loop
vertex 134.3318801000002 -198.9795647 1
vertex 134.15756816944122 -198.97195460424197 0
vertex 134.33188009999986 -198.9795647 0
endloop
endfacet
facet normal 1.8769583221001085e-7 -0.9999999999999825 0
outer loop
vertex 168.96237889999998 -198.9795582 1
vertex 134.3318801000002 -198.9795647 1
vertex 134.33188009999986 -198.9795647 0
endloop
endfacet
facet normal 1.8769583221001085e-7 -0.9999999999999825 0
outer loop
vertex 168.96237889999998 -198.9795582 1
vertex 134.33188009999986 -198.9795647 0
vertex 168.9623788999997 -198.9795582 0
endloop
endfacet
facet normal 0.043602939213656114 -0.9990489395880114 0
outer loop
vertex 169.136690780559 -198.97195045424195 1
vertex 168.96237889999998 -198.9795582 1
vertex 168.9623788999997 -198.9795582 0
endloop
endfacet
facet normal 0.043602939213656114 -0.9990489395880114 0
outer loop
vertex 169.136690780559 -198.97195045424195 1
vertex 168.9623788999997 -198.9795582 0
vertex 169.1366907805591 -198.97195045424195 0
endloop
endfacet
facet normal 0.13051000323210377 -0.9914469925600442 0
outer loop
vertex 169.30967628997706 -198.94917935345424 1
vertex 169.136690780559 -198.97195045424195 1
vertex 169.1366907805591 -198.97195045424195 0
endloop
endfacet
facet normal 0.13051000323210377 -0.9914469925600442 0
outer loop
vertex 169.30967628997706 -198.94917935345424 1
vertex 169.1366907805591 -198.97195045424195 0
vertex 169.309676289977 -198.94917935345424 0
endloop
endfacet
facet normal 0.21643496966859682 -0.9762970367181055 0
outer loop
vertex 169.48001780000124 -198.91141639999972 1
vertex 169.30967628997706 -198.94917935345424 1
vertex 169.309676289977 -198.94917935345424 0
endloop
endfacet
facet normal 0.21643496966859682 -0.9762970367181055 0
outer loop
vertex 169.48001780000124 -198.91141639999972 1
vertex 169.309676289977 -198.94917935345424 0
vertex 169.4800178000018 -198.91141639999958 0
endloop
endfacet
facet normal 0.25881901046949424 -0.9659258355689591 0
outer loop
vertex 226.18957844999912 -183.71613610000006 1
vertex 169.48001780000124 -198.91141639999972 1
vertex 169.4800178000018 -198.91141639999958 0
endloop
endfacet
facet normal 0.25881901046949424 -0.9659258355689591 0
outer loop
vertex 226.18957844999912 -183.71613610000006 1
vertex 169.4800178000018 -198.91141639999958 0
vertex 226.18957844999912 -183.71613760000025 0
endloop
endfacet
facet normal 0.33427946871560893 -0.9424739979411688 0
outer loop
vertex 226.4872449064 -183.61056082970822 1
vertex 226.18957844999912 -183.71613610000006 1
vertex 226.18957844999912 -183.71613760000025 0
endloop
endfacet
facet normal 0.33427946871560893 -0.9424739979411688 0
outer loop
vertex 226.4872449064 -183.61056082970822 1
vertex 226.18957844999912 -183.71613760000025 0
vertex 226.48724490640038 -183.6105603797081 0
endloop
endfacet
facet normal 0.4784798965503338 -0.8780985073425316 0
outer loop
vertex 226.76457931734592 -183.45944003955822 1
vertex 226.4872449064 -183.61056082970822 1
vertex 226.48724490640038 -183.6105603797081 0
endloop
endfacet
facet normal 0.4784798965503338 -0.8780985073425316 0
outer loop
vertex 226.76457931734592 -183.45944003955822 1
vertex 226.48724490640038 -183.6105603797081 0
vertex 226.7645793173456 -183.45943958955834 0
endloop
endfacet
facet normal 0.61074800842988 -0.7918250249890662 0
outer loop
vertex 227.01466552639994 -183.2665443248543 1
vertex 226.76457931734592 -183.45944003955822 1
vertex 226.7645793173456 -183.45943958955834 0
endloop
endfacet
facet normal 0.61074800842988 -0.7918250249890662 0
outer loop
vertex 227.01466552639994 -183.2665443248543 1
vertex 226.7645793173456 -183.45943958955834 0
vertex 227.01466552640017 -183.26654387485428 0
endloop
endfacet
facet normal 0.7277853065214545 -0.6858050361520194 0
outer loop
vertex 227.23126689188987 -183.03668411259883 1
vertex 227.01466552639994 -183.2665443248543 1
vertex 227.01466552640017 -183.26654387485428 0
endloop
endfacet
facet normal 0.7277853065214545 -0.6858050361520194 0
outer loop
vertex 227.23126689188987 -183.03668411259883 1
vertex 227.01466552640017 -183.26654387485428 0
vertex 227.23126689188976 -183.03668366259876 0
endloop
endfacet
facet normal 0.8266731185265915 -0.5626824638333063 0
outer loop
vertex 227.4089818160717 -182.7755916492197 1
vertex 227.23126689188987 -183.03668411259883 1
vertex 227.23126689188976 -183.03668366259876 0
endloop
endfacet
facet normal 0.8266731185265915 -0.5626824638333063 0
outer loop
vertex 227.4089818160717 -182.7755916492197 1
vertex 227.23126689188976 -183.03668366259876 0
vertex 227.40898181607173 -182.77559119922006 0
endloop
endfacet
facet normal 0.9049486491794002 -0.4255207895607202 0
outer loop
vertex 227.54337689999997 -182.4897752 1
vertex 227.4089818160717 -182.7755916492197 1
vertex 227.40898181607173 -182.77559119922006 0
endloop
endfacet
facet normal 0.9049486491794002 -0.4255207895607202 0
outer loop
vertex 227.54337689999997 -182.4897752 1
vertex 227.40898181607173 -182.77559119922006 0
vertex 227.54337690000006 -182.4897751999998 0
endloop
endfacet
facet normal 0.9357192734115459 -0.35274557596966205 0
outer loop
vertex 246.92423474999984 -131.07866345000033 1
vertex 227.54337689999997 -182.4897752 1
vertex 227.54337690000006 -182.4897751999998 0
endloop
endfacet
facet normal 0.9357192734115459 -0.35274557596966205 0
outer loop
vertex 246.92423474999984 -131.07866345000033 1
vertex 227.54337690000006 -182.4897751999998 0
vertex 246.92423475000007 -131.07866344999974 0
endloop
endfacet
facet normal 0.9558479643474119 -0.29386164951029026 0
outer loop
vertex 246.99733657057763 -130.8408841191288 1
vertex 246.92423474999984 -131.07866345000033 1
vertex 246.92423475000007 -131.07866344999974 0
endloop
endfacet
facet normal 0.9558479643474119 -0.29386164951029026 0
outer loop
vertex 246.99733657057763 -130.8408841191288 1
vertex 246.92423475000007 -131.07866344999974 0
vertex 246.99733657057752 -130.84088411912933 0
endloop
endfacet
facet normal 0.9849342936691194 -0.17292899454548646 0
outer loop
vertex 247.04035485606323 -130.5958691941246 1
vertex 246.99733657057763 -130.8408841191288 1
vertex 246.99733657057752 -130.84088411912933 0
endloop
endfacet
facet normal 0.9849342936691194 -0.17292899454548646 0
outer loop
vertex 247.04035485606323 -130.5958691941246 1
vertex 246.99733657057752 -130.84088411912933 0
vertex 247.04035485606323 -130.59586919412445 0
endloop
endfacet
facet normal 0.9987829787487913 -0.04932100325106606 0
outer loop
vertex 247.0526240825389 -130.34740923267682 1
vertex 247.04035485606323 -130.5958691941246 1
vertex 247.04035485606323 -130.59586919412445 0
endloop
endfacet
facet normal 0.9987829787487913 -0.04932100325106606 0
outer loop
vertex 247.0526240825389 -130.34740923267682 1
vertex 247.04035485606323 -130.59586919412445 0
vertex 247.0526240825389 -130.34740923267668 0
endloop
endfacet
facet normal 0.9971797704351242 0.07505001955331633 0
outer loop
vertex 247.03395443621764 -130.09934808967455 1
vertex 247.0526240825389 -130.34740923267682 1
vertex 247.0526240825389 -130.34740923267668 0
endloop
endfacet
facet normal 0.9971797704351242 0.07505001955331633 0
outer loop
vertex 247.03395443621764 -130.09934808967455 1
vertex 247.0526240825389 -130.34740923267668 0
vertex 247.03395443621764 -130.09934808967458 0
endloop
endfacet
facet normal 0.9801526368405034 0.19824431516340776 0
outer loop
vertex 246.98463949999993 -129.85552689999977 1
vertex 247.03395443621764 -130.09934808967455 1
vertex 247.03395443621764 -130.09934808967458 0
endloop
endfacet
facet normal 0.9801526368405034 0.19824431516340776 0
outer loop
vertex 246.98463949999993 -129.85552689999977 1
vertex 247.03395443621764 -130.09934808967458 0
vertex 246.98463949999993 -129.8555268999998 0
endloop
endfacet
facet normal 0 0 -1
outer loop
vertex 241.63678280000005 -109.89704385000013 1
vertex 245.7830401504101 -125.37109479999984 1
vertex 245.80390483133317 -125.44896288882629 1
endloop
endfacet
facet normal 0 0 -1
outer loop
vertex 241.63678280000005 -109.89704385000013 1
vertex 245.80390483133317 -125.44896288882629 1
vertex 245.81897984310964 -125.50522362726743 1
endloop
endfacet
facet normal 0 0 -1
outer loop
vertex 241.63678280000005 -109.89704385000013 1
vertex 245.81897984310964 -125.50522362726743 1
vertex 245.8280935991568 -125.53923664515345 1
endloop
endfacet
facet normal 0 0 -1
outer loop
vertex 241.63678280000005 -109.89704385000013 1
vertex 245.8280935991568 -125.53923664515345 1
vertex 245.85670673364578 -125.646022371051 1
endloop
endfacet
facet normal 0 0 -1
outer loop
vertex 241.63678280000005 -109.89704385000013 1
vertex 245.85670673364578 -125.646022371051 1
vertex 246.98463949999993 -129.85552689999977 1
endloop
endfacet
facet normal 0 0 -1
outer loop
vertex 241.63678280000005 -109.89704385000013 1
vertex 246.98463949999993 -129.85552689999977 1
vertex 246.98463949999993 -129.8555268999998 0
endloop
endfacet
facet normal 0 0 -1
outer loop
vertex 241.63678280000005 -109.89704385000013 1
vertex 246.98463949999993 -129.8555268999998 0
vertex 245.85670673364578 -125.646022371051 0
endloop
endfacet
facet normal 0 0 -1
outer loop
vertex 241.63678280000005 -109.89704385000013 1
vertex 245.85670673364578 -125.646022371051 0
vertex 245.8280935991568 -125.53923664515344 0
endloop
endfacet
facet normal 0 0 -1
outer loop
vertex 241.63678280000005 -109.89704385000013 1
vertex 245.8280935991568 -125.53923664515344 0
vertex 245.81897984310962 -125.50522362726737 0
endloop
endfacet
facet normal 0 0 -1
outer loop
vertex 241.63678280000005 -109.89704385000013 1
vertex 245.81897984310962 -125.50522362726737 0
vertex 245.80390483133317 -125.44896288882632 0
endloop
endfacet
facet normal 0 0 -1
outer loop
vertex 241.63678280000005 -109.89704385000013 1
vertex 245.80390483133317 -125.44896288882632 0
vertex 245.78304015041013 -125.37109479999997 0
endloop
endfacet
facet normal 0 0 -1
outer loop
vertex 241.63678280000005 -109.89704385000013 1
vertex 245.78304015041013 -125.37109479999997 0
vertex 241.6367828000001 -109.89704385000037 0
endloop
endfacet
facet normal 0.9427930489492093 0.3333785638775441 0
outer loop
vertex 241.53275178964006 -109.60284463004494 1
vertex 241.63678280000005 -109.89704385000013 1
vertex 241.6367828000001 -109.89704385000037 0
endloop
endfacet
facet normal 0.9427930489492093 0.3333785638775441 0
outer loop
vertex 241.53275178964006 -109.60284463004494 1
vertex 241.6367828000001 -109.89704385000037 0
vertex 241.53275178964003 -109.60284463004493 0
endloop
endfacet
facet normal 0.8794604342754715 0.47597199974788346 0
outer loop
vertex 241.38422439945336 -109.32840839609717 1
vertex 241.53275178964006 -109.60284463004494 1
vertex 241.53275178964003 -109.60284463004493 0
endloop
endfacet
facet normal 0.8794604342754715 0.47597199974788346 0
outer loop
vertex 241.38422439945336 -109.32840839609717 1
vertex 241.53275178964003 -109.60284463004493 0
vertex 241.38422439945336 -109.32840839609717 0
endloop
endfacet
facet normal 0.7947183156695824 0.6069784170292237 0
outer loop
vertex 241.19481636656798 -109.08041599859861 1
vertex 241.38422439945336 -109.32840839609717 1
vertex 241.38422439945336 -109.32840839609717 0
endloop
endfacet
facet normal 0.7947183156695824 0.6069784170292237 0
outer loop
vertex 241.19481636656798 -109.08041599859861 1
vertex 241.38422439945336 -109.32840839609717 0
vertex 241.19481636656795 -109.0804159985986 0
endloop
endfacet
facet normal 0.6906296474735918 0.7232086075472985 0
outer loop
vertex 240.96913862271683 -108.86490454166623 1
vertex 241.19481636656798 -109.08041599859861 1
vertex 241.19481636656795 -109.0804159985986 0
endloop
endfacet
facet normal 0.6906296474735918 0.7232086075472985 0
outer loop
vertex 240.96913862271683 -108.86490454166623 1
vertex 241.19481636656795 -109.0804159985986 0
vertex 240.96913862271677 -108.86490454166619 0
endloop
endfacet
facet normal 0.5697283546533926 0.8218330742334105 0
outer loop
vertex 240.71268504614193 -108.68712041638838 1
vertex 240.96913862271683 -108.86490454166623 1
vertex 240.96913862271677 -108.86490454166619 0
endloop
endfacet
facet normal 0.5697283546533926 0.8218330742334105 0
outer loop
vertex 240.71268504614193 -108.68712041638838 1
vertex 240.96913862271677 -108.86490454166619 0
vertex 240.71268504614193 -108.68712041638838 0
endloop
endfacet
facet normal 0.43495764716275065 0.900450912140492 0
outer loop
vertex 240.43169871912676 -108.55139158316094 1
vertex 240.71268504614193 -108.68712041638838 1
vertex 240.71268504614193 -108.68712041638838 0
endloop
endfacet
facet normal 0.43495764716275065 0.900450912140492 0
outer loop
vertex 240.43169871912676 -108.55139158316094 1
vertex 240.71268504614193 -108.68712041638838 0
vertex 240.4316987191268 -108.55139158316096 0
endloop
endfacet
facet normal 0.28959837071062094 0.9571482558526416 0
outer loop
vertex 240.13301994697477 -108.46102221221744 1
vertex 240.43169871912676 -108.55139158316094 1
vertex 240.4316987191268 -108.55139158316096 0
endloop
endfacet
facet normal 0.28959837071062094 0.9571482558526416 0
outer loop
vertex 240.13301994697477 -108.46102221221744 1
vertex 240.4316987191268 -108.55139158316096 0
vertex 240.13301994697477 -108.46102221221744 0
endloop
endfacet
facet normal 0.1371891381549231 0.9905448704487392 0
outer loop
vertex 239.82391973824778 -108.41821224721349 1
vertex 240.13301994697477 -108.46102221221744 1
vertex 240.13301994697477 -108.46102221221744 0
endloop
endfacet
facet normal 0.1371891381549231 0.9905448704487392 0
outer loop
vertex 239.82391973824778 -108.41821224721349 1
vertex 240.13301994697477 -108.46102221221744 0
vertex 239.82391973824778 -108.41821224721349 0
endloop
endfacet
facet normal -0.018572314267203183 0.9998275196966526 0
outer loop
vertex 239.5119256000001 -108.4240077 1
vertex 239.82391973824778 -108.41821224721349 1
vertex 239.82391973824778 -108.41821224721349 0
endloop
endfacet
facet normal -0.018572314267203183 0.9998275196966526 0
outer loop
vertex 239.5119256000001 -108.4240077 1
vertex 239.82391973824778 -108.41821224721349 0
vertex 239.5119256000002 -108.4240077 0
endloop
endfacet
facet normal -0.09650023678341309 0.9953329615263153 0
outer loop
vertex 205.03678205000034 -111.76646659999997 1
vertex 239.5119256000001 -108.4240077 1
vertex 239.5119256000002 -108.4240077 0
endloop
endfacet
facet normal -0.09650023678341309 0.9953329615263153 0
outer loop
vertex 205.03678205000034 -111.76646659999997 1
vertex 239.5119256000002 -108.4240077 0
vertex 205.0367820499999 -111.76646660000003 0
endloop
endfacet
facet normal -0.13751605522139695 0.9904995378880022 0
outer loop
vertex 204.87324709097527 -111.78917098460158 1
vertex 205.03678205000034 -111.76646659999997 1
vertex 205.0367820499999 -111.76646660000003 0
endloop
endfacet
facet normal -0.13751605522139695 0.9904995378880022 0
outer loop
vertex 204.87324709097527 -111.78917098460158 1
vertex 205.0367820499999 -111.76646660000003 0
vertex 204.87324709097558 -111.78917098460154 0
endloop
endfacet
facet normal -0.21872832194125627 0.9757857967713828 0
outer loop
vertex 204.71214410000027 -111.82528319999996 1
vertex 204.87324709097527 -111.78917098460158 1
vertex 204.87324709097558 -111.78917098460154 0
endloop
endfacet
facet normal -0.21872832194125627 0.9757857967713828 0
outer loop
vertex 204.71214410000027 -111.82528319999996 1
vertex 204.87324709097558 -111.78917098460154 0
vertex 204.71214409999905 -111.82528320000026 0
endloop
endfacet
facet normal -0.25881907828997425 0.9659258173965164 0
outer loop
vertex 181.84968609999936 -117.9512612000002 1
vertex 204.71214410000027 -111.82528319999996 1
vertex 204.71214409999905 -111.82528320000026 0
endloop
endfacet
facet normal -0.25881907828997425 0.9659258173965164 0
outer loop
vertex 181.84968609999936 -117.9512612000002 1
vertex 204.71214409999905 -111.82528320000026 0
vertex 181.84968609999987 -117.95126120000005 0
endloop
endfacet
facet normal -0.2984689534848987 0.9544193437926692 0
outer loop
vertex 181.69211559514616 -118.00053713304735 1
vertex 181.84968609999936 -117.9512612000002 1
vertex 181.84968609999987 -117.95126120000005 0
endloop
endfacet
facet normal -0.2984689534848987 0.9544193437926692 0
outer loop
vertex 181.69211559514616 -118.00053713304735 1
vertex 181.84968609999987 -117.95126120000005 0
vertex 181.69211559514642 -118.00053713304726 0
endloop
endfacet
facet normal -0.3761681716914337 0.9265514052691972 0
outer loop
vertex 181.53914220000078 -118.06264239999965 1
vertex 181.69211559514616 -118.00053713304735 1
vertex 181.69211559514642 -118.00053713304726 0
endloop
endfacet
facet normal -0.3761681716914337 0.9265514052691972 0
outer loop
vertex 181.53914220000078 -118.06264239999965 1
vertex 181.69211559514642 -118.00053713304726 0
vertex 181.53914220000073 -118.06264239999969 0
endloop
endfacet
facet normal -0.4140952676692094 0.9102335465659163 0
outer loop
vertex 165.47424345000036 -125.37109479999984 1
vertex 181.53914220000078 -118.06264239999965 1
vertex 181.53914220000073 -118.06264239999969 0
endloop
endfacet
facet normal -0.4140952676692094 0.9102335465659163 0
outer loop
vertex 165.47424345000036 -125.37109479999984 1
vertex 181.53914220000073 -118.06264239999969 0
vertex 165.4742434500001 -125.37109479999997 0
endloop
endfacet
facet normal -0.36493598305980873 0.9310326139658971 0
outer loop
vertex 165.2755846888753 -125.44896288882629 1
vertex 165.47424345000036 -125.37109479999984 1
vertex 165.4742434500001 -125.37109479999997 0
endloop
endfacet
facet normal -0.36493598305980873 0.9310326139658971 0
outer loop
vertex 165.2755846888753 -125.44896288882629 1
vertex 165.4742434500001 -125.37109479999997 0
vertex 165.27558468887528 -125.44896288882632 0
endloop
endfacet
facet normal -0.26367114180152385 0.9646126315682793 0
outer loop
vertex 165.0697608031407 -125.50522362726743 1
vertex 165.2755846888753 -125.44896288882629 1
vertex 165.27558468887528 -125.44896288882632 0
endloop
endfacet
facet normal -0.26367114180152385 0.9646126315682793 0
outer loop
vertex 165.0697608031407 -125.50522362726743 1
vertex 165.27558468887528 -125.44896288882632 0
vertex 165.06976080314095 -125.50522362726737 0
endloop
endfacet
facet normal -0.15940514665476235 0.9872132491108361 0
outer loop
vertex 164.85911451847556 -125.53923664515345 1
vertex 165.0697608031407 -125.50522362726743 1
vertex 165.06976080314095 -125.50522362726737 0
endloop
endfacet
facet normal -0.15940514665476235 0.9872132491108361 0
outer loop
vertex 164.85911451847556 -125.53923664515345 1
vertex 165.06976080314095 -125.50522362726737 0
vertex 164.85911451847556 -125.53923664515344 0
endloop
endfacet
facet normal -0.05334806551147148 0.9985759780338119 0
outer loop
vertex 164.64604690000007 -125.55062069193137 1
vertex 164.85911451847556 -125.53923664515345 1
vertex 164.85911451847556 -125.53923664515344 0
endloop
endfacet
facet normal -0.05334806551147148 0.9985759780338119 0
outer loop
vertex 164.64604690000007 -125.55062069193137 1
vertex 164.85911451847556 -125.53923664515344 0
vertex 164.6460468999998 -125.55062069193136 0
endloop
endfacet
facet normal 0 0 1
outer loop
vertex 138.64820664999985 -125.55062285643585 1
vertex 143.48097214317698 -125.55062285643585 1
vertex 153.48848385921818 -125.55062285643585 1
endloop
endfacet
facet normal 0 0 1
outer loop
vertex 138.64820664999985 -125.55062285643585 1
vertex 153.48848385921818 -125.55062285643585 1
vertex 153.48849193725755 -125.55062069193137 1
endloop
endfacet
facet normal 0 0 1
outer loop
vertex 138.64820664999985 -125.55062285643585 1
vertex 153.48849193725755 -125.55062069193137 1
vertex 164.64604690000007 -125.55062069193137 1
endloop
endfacet
facet normal 0 0 1
outer loop
vertex 138.64820664999985 -125.55062285643585 1
vertex 164.64604690000007 -125.55062069193137 1
vertex 164.6460468999998 -125.55062069193136 0
endloop
endfacet
facet normal 0 0 1
outer loop
vertex 138.64820664999985 -125.55062285643585 1
vertex 164.6460468999998 -125.55062069193136 0
vertex 164.64589772616273 -125.5506286613245 0
endloop
endfacet
facet normal 0 0 1
outer loop
vertex 138.64820664999985 -125.55062285643585 1
vertex 164.64589772616273 -125.5506286613245 0
vertex 157.54908258714352 -125.55062069193136 0
endloop
endfacet
facet normal 0 0 1
outer loop
vertex 138.64820664999985 -125.55062285643585 1
vertex 157.54908258714352 -125.55062069193136 0
vertex 153.48849193725758 -125.55062285643585 0
endloop
endfacet
facet normal 0 0 1
outer loop
vertex 138.64820664999985 -125.55062285643585 1
vertex 153.48849193725758 -125.55062285643585 0
vertex 143.48097214317698 -125.55062285643585 0
endloop
endfacet
facet normal 0 0 1
outer loop
vertex 138.64820664999985 -125.55062285643585 1
vertex 143.48097214317698 -125.55062285643585 0
vertex 138.6482066499999 -125.55062285643585 0
endloop
endfacet
facet normal 0.053355730624232954 0.9985755685022313 0
outer loop
vertex 138.4351398393619 -125.53923904813236 1
vertex 138.64820664999985 -125.55062285643585 1
vertex 138.6482066499999 -125.55062285643585 0
endloop
endfacet
facet normal 0.053355730624232954 0.9985755685022313 0
outer loop
vertex 138.4351398393619 -125.53923904813236 1
vertex 138.6482066499999 -125.55062285643585 0
vertex 138.4351398393618 -125.53923904813236 0
endloop
endfacet
facet normal 0.15943381936574494 0.9872086189060807 0
outer loop
vertex 138.22449840320076 -125.50522053569162 1
vertex 138.4351398393619 -125.53923904813236 1
vertex 138.4351398393618 -125.53923904813236 0
endloop
endfacet
facet normal 0.15943381936574494 0.9872086189060807 0
outer loop
vertex 138.22449840320076 -125.50522053569162 1
vertex 138.4351398393618 -125.53923904813236 0
vertex 138.22449840320087 -125.50522053569166 0
endloop
endfacet
facet normal 0.2636972692914414 0.9646054893935847 0
outer loop
vertex 138.01867981357 -125.44895525350961 1
vertex 138.22449840320076 -125.50522053569162 1
vertex 138.22449840320087 -125.50522053569166 0
endloop
endfacet
facet normal 0.2636972692914414 0.9646054893935847 0
outer loop
vertex 138.01867981357 -125.44895525350961 1
vertex 138.22449840320087 -125.50522053569166 0
vertex 138.01867981357023 -125.44895525350968 0
endloop
endfacet
facet normal 0.36493941851475853 0.9310312673665209 0
outer loop
vertex 137.82002329999997 -125.37108719999999 1
vertex 138.01867981357 -125.44895525350961 1
vertex 138.01867981357023 -125.44895525350968 0
endloop
endfacet
facet normal 0.36493941851475853 0.9310312673665209 0
outer loop
vertex 137.82002329999997 -125.37108719999999 1
vertex 138.01867981357023 -125.44895525350968 0
vertex 137.82002329999983 -125.37108719999993 0
endloop
endfacet
facet normal 0 0 -1
outer loop
vertex 121.75512305000032 -118.06263915000014 1
vertex 135.42476740128353 -124.28140702584358 1
vertex 137.82002329999997 -125.37108719999999 1
endloop
endfacet
facet normal 0 0 -1
outer loop
vertex 121.75512305000032 -118.06263915000014 1
vertex 137.82002329999997 -125.37108719999999 1
vertex 137.82002329999983 -125.37108719999993 0
endloop
endfacet
facet normal 0 0 -1
outer loop
vertex 121.75512305000032 -118.06263915000014 1
vertex 137.82002329999983 -125.37108719999993 0
vertex 135.4247674012835 -124.28140702584358 0
endloop
endfacet
facet normal 0 0 -1
outer loop
vertex 121.75512305000032 -118.06263915000014 1
vertex 135.4247674012835 -124.28140702584358 0
vertex 121.75512304999988 -118.06263914999994 0
endloop
endfacet
facet normal 0.37615339060633246 0.9265574060657873 0
outer loop
vertex 121.60214368657691 -118.00053430267195 1
vertex 121.75512305000032 -118.06263915000014 1
vertex 121.75512304999988 -118.06263914999994 0
endloop
endfacet
facet normal 0.37615339060633246 0.9265574060657873 0
outer loop
vertex 121.60214368657691 -118.00053430267195 1
vertex 121.75512304999988 -118.06263914999994 0
vertex 121.60214368657718 -118.00053430267204 0
endloop
endfacet
facet normal 0.29845711893395305 0.9544230446493024 0
outer loop
vertex 121.4445661000002 -117.95125830000006 1
vertex 121.60214368657691 -118.00053430267195 1
vertex 121.60214368657718 -118.00053430267204 0
endloop
endfacet
facet normal 0.29845711893395305 0.9544230446493024 0
outer loop
vertex 121.4445661000002 -117.95125830000006 1
vertex 121.60214368657718 -118.00053430267204 0
vertex 121.44456610000023 -117.95125830000008 0
endloop
endfacet
facet normal 0.25881902944314583 0.965925830484985 0
outer loop
vertex 98.58211915000031 -111.82528319999996 1
vertex 121.4445661000002 -117.95125830000006 1
vertex 121.44456610000023 -117.95125830000008 0
endloop
endfacet
facet normal 0.25881902944314583 0.965925830484985 0
outer loop
vertex 98.58211915000031 -111.82528319999996 1
vertex 121.44456610000023 -117.95125830000008 0
vertex 98.58211915000005 -111.82528320000026 0
endloop
endfacet
facet normal 0.2187452797620896 0.9757819954179342 0
outer loop
vertex 98.42101410902434 -111.7891688846015 1
vertex 98.58211915000031 -111.82528319999996 1
vertex 98.58211915000005 -111.82528320000026 0
endloop
endfacet
facet normal 0.2187452797620896 0.9757819954179342 0
outer loop
vertex 98.42101410902434 -111.7891688846015 1
vertex 98.58211915000005 -111.82528320000026 0
vertex 98.42101410902448 -111.78916888460152 0
endloop
endfacet
facet normal 0.13748861375449917 0.9905033473380421 0
outer loop
vertex 98.25747830000007 -111.766469 1
vertex 98.42101410902434 -111.7891688846015 1
vertex 98.42101410902448 -111.78916888460152 0
endloop
endfacet
facet normal 0.13748861375449917 0.9905033473380421 0
outer loop
vertex 98.25747830000007 -111.766469 1
vertex 98.42101410902448 -111.78916888460152 0
vertex 98.25747829999969 -111.76646899999996 0
endloop
endfacet
facet normal 0.09650013658475141 0.9953329712408429 0
outer loop
vertex 63.7823259500002 -108.42401275 1
vertex 98.25747830000007 -111.766469 1
vertex 98.25747829999969 -111.76646899999996 0
endloop
endfacet
facet normal 0.09650013658475141 0.9953329712408429 0
outer loop
vertex 63.7823259500002 -108.42401275 1
vertex 98.25747829999969 -111.76646899999996 0
vertex 63.78232595 -108.42401274999999 0
endloop
endfacet
facet normal 0.01855365980296142 0.9998278660389077 0
outer loop
vertex 63.47033301584881 -108.41822314265079 1
vertex 63.7823259500002 -108.42401275 1
vertex 63.78232595 -108.42401274999999 0
endloop
endfacet
facet normal 0.01855365980296142 0.9998278660389077 0
outer loop
vertex 63.47033301584881 -108.41822314265079 1
vertex 63.78232595 -108.42401274999999 0
vertex 63.470333015848865 -108.41822314265077 0
endloop
endfacet
facet normal -0.13719322813997806 0.99054430398268 0
outer loop
vertex 63.16123698611861 -108.46103382961697 1
vertex 63.47033301584881 -108.41822314265079 1
vertex 63.470333015848865 -108.41822314265077 0
endloop
endfacet
facet normal -0.13719322813997806 0.99054430398268 0
outer loop
vertex 63.16123698611861 -108.46103382961697 1
vertex 63.470333015848865 -108.41822314265077 0
vertex 63.16123698611871 -108.46103382961695 0
endloop
endfacet
facet normal -0.28960038324159154 0.9571476469314039 0
outer loop
vertex 62.86256227127522 -108.55140265846018 1
vertex 63.16123698611861 -108.46103382961697 1
vertex 63.16123698611871 -108.46103382961695 0
endloop
endfacet
facet normal -0.28960038324159154 0.9571476469314039 0
outer loop
vertex 62.86256227127522 -108.55140265846018 1
vertex 63.16123698611871 -108.46103382961695 0
vertex 62.86256227127507 -108.55140265846023 0
endloop
endfacet
facet normal -0.43495771581265946 0.9004508789795442 0
outer loop
vertex 62.5815795928218 -108.6871297556912 1
vertex 62.86256227127522 -108.55140265846018 1
vertex 62.86256227127507 -108.55140265846023 0
endloop
endfacet
facet normal -0.43495771581265946 0.9004508789795442 0
outer loop
vertex 62.5815795928218 -108.6871297556912 1
vertex 62.86256227127507 -108.55140265846023 0
vertex 62.58157959282187 -108.68712975569116 0
endloop
endfacet
facet normal -0.5697267519511269 0.8218341852899642 0
outer loop
vertex 62.32512899010942 -108.86491107890018 1
vertex 62.5815795928218 -108.6871297556912 1
vertex 62.58157959282187 -108.68712975569116 0
endloop
endfacet
facet normal -0.5697267519511269 0.8218341852899642 0
outer loop
vertex 62.32512899010942 -108.86491107890018 1
vertex 62.58157959282187 -108.68712975569116 0
vertex 62.32512899010942 -108.8649110789002 0
endloop
endfacet
facet normal -0.6906267715945403 0.7232113538633798 0
outer loop
vertex 62.09945331135778 -109.08041884797912 1
vertex 62.32512899010942 -108.86491107890018 1
vertex 62.32512899010942 -108.8649110789002 0
endloop
endfacet
facet normal -0.6906267715945403 0.7232113538633798 0
outer loop
vertex 62.09945331135778 -109.08041884797912 1
vertex 62.32512899010942 -108.8649110789002 0
vertex 62.099453311357706 -109.0804188479792 0
endloop
endfacet
facet normal -0.7947146719994113 0.6069831876657444 0
outer loop
vertex 61.910046242268436 -109.32840689747448 1
vertex 62.09945331135778 -109.08041884797912 1
vertex 62.099453311357706 -109.0804188479792 0
endloop
endfacet
facet normal -0.7947146719994113 0.6069831876657444 0
outer loop
vertex 61.910046242268436 -109.32840689747448 1
vertex 62.099453311357706 -109.0804188479792 0
vertex 61.91004624226839 -109.32840689747454 0
endloop
endfacet
facet normal -0.8794566125084704 0.4759790612150143 0
outer loop
vertex 61.76151857170922 -109.60283838544862 1
vertex 61.910046242268436 -109.32840689747448 1
vertex 61.91004624226839 -109.32840689747454 0
endloop
endfacet
facet normal -0.8794566125084704 0.4759790612150143 0
outer loop
vertex 61.76151857170922 -109.60283838544862 1
vertex 61.91004624226839 -109.32840689747454 0
vertex 61.761518571709246 -109.60283838544856 0
endloop
endfacet
facet normal -0.9427865966172363 0.33339681048097725 0
outer loop
vertex 61.657481900000036 -109.89703549999989 1
vertex 61.76151857170922 -109.60283838544862 1
vertex 61.761518571709246 -109.60283838544856 0
endloop
endfacet
facet normal -0.9427865966172363 0.33339681048097725 0
outer loop
vertex 61.657481900000036 -109.89703549999989 1
vertex 61.761518571709246 -109.60283838544856 0
vertex 61.65748190000002 -109.89703549999992 0
endloop
endfacet
facet normal 0 0 1
outer loop
vertex 56.30961664999998 -129.85553290000013 1
vertex 57.43755201638062 -125.646022371051 1
vertex 57.463112693374015 -125.5506286613245 1
endloop
endfacet
facet normal 0 0 1
outer loop
vertex 56.30961664999998 -129.85553290000013 1
vertex 57.463112693374015 -125.5506286613245 1
vertex 57.80319973213759 -124.28140702584358 1
endloop
endfacet
facet normal 0 0 1
outer loop
vertex 56.30961664999998 -129.85553290000013 1
vertex 57.80319973213759 -124.28140702584358 1
vertex 61.657481900000036 -109.89703549999989 1
endloop
endfacet
facet normal 0 0 1
outer loop
vertex 56.30961664999998 -129.85553290000013 1
vertex 61.657481900000036 -109.89703549999989 1
vertex 61.65748190000002 -109.89703549999992 0
endloop
endfacet
facet normal 0 0 1
outer loop
vertex 56.30961664999998 -129.85553290000013 1
vertex 61.65748190000002 -109.89703549999992 0
vertex 57.80319973213759 -124.28140702584358 0
endloop
endfacet
facet normal 0 0 1
outer loop
vertex 56.30961664999998 -129.85553290000013 1
vertex 57.80319973213759 -124.28140702584358 0
vertex 57.463112693374015 -125.5506286613245 0
endloop
endfacet
facet normal 0 0 1
outer loop
vertex 56.30961664999998 -129.85553290000013 1
vertex 57.463112693374015 -125.5506286613245 0
vertex 57.43755201638062 -125.646022371051 0
endloop
endfacet
facet normal 0 0 1
outer loop
vertex 56.30961664999998 -129.85553290000013 1
vertex 57.43755201638062 -125.646022371051 0
vertex 56.30961664999998 -129.85553290000007 0
endloop
endfacet
facet normal -0.9801536559142552 0.1982392766278166 0
outer loop
vertex 56.26030289944862 -130.09935467796456 1
vertex 56.30961664999998 -129.85553290000013 1
vertex 56.30961664999998 -129.85553290000007 0
endloop
endfacet
facet normal -0.9801536559142552 0.1982392766278166 0
outer loop
vertex 56.26030289944862 -130.09935467796456 1
vertex 56.30961664999998 -129.85553290000007 0
vertex 56.26030289944862 -130.09935467796447 0
endloop
endfacet
facet normal -0.9971812046104318 0.07503096142052355 0
outer loop
vertex 56.24163829282743 -130.34741220730595 1
vertex 56.26030289944862 -130.09935467796456 1
vertex 56.26030289944862 -130.09935467796447 0
endloop
endfacet
facet normal -0.9971812046104318 0.07503096142052355 0
outer loop
vertex 56.24163829282743 -130.34741220730595 1
vertex 56.26030289944862 -130.09935467796447 0
vertex 56.24163829282743 -130.34741220730592 0
endloop
endfacet
facet normal -0.9987821343585042 -0.049338099743209796 0
outer loop
vertex 56.25391157582567 -130.5958679818971 1
vertex 56.24163829282743 -130.34741220730595 1
vertex 56.24163829282743 -130.34741220730592 0
endloop
endfacet
facet normal -0.9987821343585042 -0.049338099743209796 0
outer loop
vertex 56.25391157582567 -130.5958679818971 1
vertex 56.24163829282743 -130.34741220730592 0
vertex 56.25391157582567 -130.59586798189713 0
endloop
endfacet
facet normal -0.9849316784128939 -0.17294388933628105 0
outer loop
vertex 56.296932877977255 -130.840878334667 1
vertex 56.25391157582567 -130.5958679818971 1
vertex 56.25391157582567 -130.59586798189713 0
endloop
endfacet
facet normal -0.9849316784128939 -0.17294388933628105 0
outer loop
vertex 56.296932877977255 -130.840878334667 1
vertex 56.25391157582567 -130.59586798189713 0
vertex 56.29693287797727 -130.84087833466705 0
endloop
endfacet
facet normal -0.9558488959134781 -0.29385861937500657 0
outer loop
vertex 56.37003329999999 -131.07865579999998 1
vertex 56.296932877977255 -130.840878334667 1
vertex 56.29693287797727 -130.84087833466705 0
endloop
endfacet
facet normal -0.9558488959134781 -0.29385861937500657 0
outer loop
vertex 56.37003329999999 -131.07865579999998 1
vertex 56.29693287797727 -130.84087833466705 0
vertex 56.37003329999996 -131.0786557999999 0
endloop
endfacet
facet normal -0.9357193536616718 -0.3527453630921081 0
outer loop
vertex 75.75088175000008 -182.48977805000018 1
vertex 56.37003329999999 -131.07865579999998 1
vertex 56.37003329999996 -131.0786557999999 0
endloop
endfacet
facet normal -0.9357193536616718 -0.3527453630921081 0
outer loop
vertex 75.75088175000008 -182.48977805000018 1
vertex 56.37003329999996 -131.0786557999999 0
vertex 75.75088174999999 -182.48977804999998 0
endloop
endfacet
endsolid csg.js
