solid csg.js
facet normal 0 0 -1
outer loop
vertex 68.18226285000007 -92.00327324999999 0
vertex 102.65740209999984 -95.34572999999999 0
vertex 102.82093558274521 -95.36842945730795 0
endloop
endfacet
facet normal 0 0 -1
outer loop
vertex 68.18226285000007 -92.00327324999999 0
vertex 102.82093558274521 -95.36842945730795 0
vertex 102.98204104999971 -95.40453499999992 0
endloop
endfacet
facet normal 0 0 -1
outer loop
vertex 68.18226285000007 -92.00327324999999 0
vertex 102.98204104999971 -95.40453499999992 0
vertex 125.84448990000018 -101.53051930000004 0
endloop
endfacet
facet normal 0 0 -1
outer loop
vertex 68.18226285000007 -92.00327324999999 0
vertex 125.84448990000018 -101.53051930000004 0
vertex 126.00206558657698 -101.57979480267197 0
endloop
endfacet
facet normal 0 0 -1
outer loop
vertex 68.18226285000007 -92.00327324999999 0
vertex 126.00206558657698 -101.57979480267197 0
vertex 126.1550449500001 -101.64189965000004 0
endloop
endfacet
facet normal 0 0 -1
outer loop
vertex 68.18226285000007 -92.00327324999999 0
vertex 126.1550449500001 -101.64189965000004 0
vertex 139.8250200234683 -107.8608176257388 0
endloop
endfacet
facet normal 0 0 -1
outer loop
vertex 68.18226285000007 -92.00327324999999 0
vertex 139.8250200234683 -107.8608176257388 0
vertex 119.29311534441077 -107.8608176257388 0
endloop
endfacet
facet normal 0 0 -1
outer loop
vertex 68.18226285000007 -92.00327324999999 0
vertex 119.29311534441077 -107.8608176257388 0
vertex 62.20308357695012 -107.8608176257388 0
endloop
endfacet
facet normal 0 0 -1
outer loop
vertex 68.18226285000007 -92.00327324999999 0
vertex 62.20308357695012 -107.8608176257388 0
vertex 66.05740570000003 -93.47629649999996 0
endloop
endfacet
facet normal 0 0 -1
outer loop
vertex 68.18226285000007 -92.00327324999999 0
vertex 66.05740570000003 -93.47629649999996 0
vertex 66.16143615546996 -93.18209659622087 0
endloop
endfacet
facet normal 0 0 -1
outer loop
vertex 68.18226285000007 -92.00327324999999 0
vertex 66.16143615546996 -93.18209659622087 0
vertex 66.30996518598181 -92.90766313099307 0
endloop
endfacet
facet normal 0 0 -1
outer loop
vertex 68.18226285000007 -92.00327324999999 0
vertex 66.30996518598181 -92.90766313099307 0
vertex 66.4993742028116 -92.65967356652446 0
endloop
endfacet
facet normal 0 0 -1
outer loop
vertex 68.18226285000007 -92.00327324999999 0
vertex 66.4993742028116 -92.65967356652446 0
vertex 66.72505229915922 -92.44416499166637 0
endloop
endfacet
facet normal 0 0 -1
outer loop
vertex 68.18226285000007 -92.00327324999999 0
vertex 66.72505229915922 -92.44416499166637 0
vertex 66.98150564644867 -92.26638332146973 0
endloop
endfacet
facet normal 0 0 -1
outer loop
vertex 68.18226285000007 -92.00327324999999 0
vertex 66.98150564644867 -92.26638332146973 0
vertex 67.26249123416878 -92.13065676093257 0
endloop
endfacet
facet normal 0 0 -1
outer loop
vertex 68.18226285000007 -92.00327324999999 0
vertex 67.26249123416878 -92.13065676093257 0
vertex 67.56116884753575 -92.04028927222487 0
endloop
endfacet
facet normal 0 0 -1
outer loop
vertex 68.18226285000007 -92.00327324999999 0
vertex 67.56116884753575 -92.04028927222487 0
vertex 67.87026758328557 -91.99748072985749 0
endloop
endfacet
facet normal 0 0 -1
outer loop
vertex 244.53294174697493 -92.04028266221748 0
vertex 244.83162051912677 -92.13065203316093 0
vertex 245.1126068461418 -92.2663808663883 0
endloop
endfacet
facet normal 0 0 -1
outer loop
vertex 244.53294174697493 -92.04028266221748 0
vertex 245.1126068461418 -92.2663808663883 0
vertex 245.369060422717 -92.44416499166637 0
endloop
endfacet
facet normal 0 0 -1
outer loop
vertex 244.53294174697493 -92.04028266221748 0
vertex 245.369060422717 -92.44416499166637 0
vertex 245.5947381665678 -92.65967644859839 0
endloop
endfacet
facet normal 0 0 -1
outer loop
vertex 244.53294174697493 -92.04028266221748 0
vertex 245.5947381665678 -92.65967644859839 0
vertex 245.78414619945357 -92.90766884609747 0
endloop
endfacet
facet normal 0 0 -1
outer loop
vertex 244.53294174697493 -92.04028266221748 0
vertex 245.78414619945357 -92.90766884609747 0
vertex 245.93267358963996 -93.18210508004466 0
endloop
endfacet
facet normal 0 0 -1
outer loop
vertex 244.53294174697493 -92.04028266221748 0
vertex 245.93267358963996 -93.18210508004466 0
vertex 246.03670460000004 -93.47630430000012 0
endloop
endfacet
facet normal 0 0 -1
outer loop
vertex 244.53294174697493 -92.04028266221748 0
vertex 246.03670460000004 -93.47630430000012 0
vertex 250.1829609366861 -108.95034524999994 0
endloop
endfacet
facet normal 0 0 -1
outer loop
vertex 244.53294174697493 -92.04028266221748 0
vertex 250.1829609366861 -108.95034524999994 0
vertex 169.87415530000013 -108.95034524999994 0
endloop
endfacet
facet normal 0 0 -1
outer loop
vertex 244.53294174697493 -92.04028266221748 0
vertex 169.87415530000013 -108.95034524999994 0
vertex 185.93906580000035 -101.64190339999985 0
endloop
endfacet
facet normal 0 0 -1
outer loop
vertex 244.53294174697493 -92.04028266221748 0
vertex 185.93906580000035 -101.64190339999985 0
vertex 186.0920422634225 -101.57979685267217 0
endloop
endfacet
facet normal 0 0 -1
outer loop
vertex 244.53294174697493 -92.04028266221748 0
vertex 186.0920422634225 -101.57979685267217 0
vertex 186.24962290000033 -101.53052169999992 0
endloop
endfacet
facet normal 0 0 -1
outer loop
vertex 244.53294174697493 -92.04028266221748 0
vertex 186.24962290000033 -101.53052169999992 0
vertex 209.11206770000015 -95.40454419999996 0
endloop
endfacet
facet normal 0 0 -1
outer loop
vertex 244.53294174697493 -92.04028266221748 0
vertex 209.11206770000015 -95.40454419999996 0
vertex 209.27317389097522 -95.36843148460157 0
endloop
endfacet
facet normal 0 0 -1
outer loop
vertex 244.53294174697493 -92.04028266221748 0
vertex 209.27317389097522 -95.36843148460157 0
vertex 209.43670884999992 -95.34572710000002 0
endloop
endfacet
facet normal 0 0 -1
outer loop
vertex 244.53294174697493 -92.04028266221748 0
vertex 209.43670884999992 -95.34572710000002 0
vertex 243.91184920000003 -92.0032686 0
endloop
endfacet
facet normal 0 0 -1
outer loop
vertex 244.53294174697493 -92.04028266221748 0
vertex 243.91184920000003 -92.0032686 0
vertex 244.22384153824765 -91.99747269721348 0
endloop
endfacet
facet normal 0 0 -1
outer loop
vertex 139.8250200234683 -107.8608176257388 0
vertex 142.21994699999988 -108.95034809999996 0
vertex 139.6874986466982 -108.95034809999996 0
endloop
endfacet
facet normal 0 0 -1
outer loop
vertex 139.8250200234683 -107.8608176257388 0
vertex 139.6874986466982 -108.95034809999996 0
vertex 119.29311534441077 -107.8608176257388 0
endloop
endfacet
facet normal 0 0 -1
outer loop
vertex 142.21994699999988 -108.95034809999996 0
vertex 142.41860140940804 -109.02821727734465 0
vertex 141.14509335168196 -109.02821727734465 0
endloop
endfacet
facet normal 0 0 -1
outer loop
vertex 142.21994699999988 -108.95034809999996 0
vertex 141.14509335168196 -109.02821727734465 0
vertex 139.6874986466982 -108.95034809999996 0
endloop
endfacet
facet normal 0 0 -1
outer loop
vertex 250.1829609366861 -108.95034524999994 0
vertex 250.20382668131427 -109.02821727734465 0
vertex 169.6755011827644 -109.02821727734465 0
endloop
endfacet
facet normal 0 0 -1
outer loop
vertex 250.1829609366861 -108.95034524999994 0
vertex 169.6755011827644 -109.02821727734465 0
vertex 169.87415530000013 -108.95034524999994 0
endloop
endfacet
facet normal 0 0 -1
outer loop
vertex 142.41860140940804 -109.02821727734465 0
vertex 142.62442502619976 -109.08448310425658 0
vertex 142.19830560041703 -109.08448310425658 0
endloop
endfacet
facet normal 0 0 -1
outer loop
vertex 142.41860140940804 -109.02821727734465 0
vertex 142.19830560041703 -109.08448310425658 0
vertex 141.14509335168196 -109.02821727734465 0
endloop
endfacet
facet normal 0 0 -1
outer loop
vertex 250.20382668131427 -109.02821727734465 0
vertex 250.21890306259866 -109.08448310425658 0
vertex 169.4696815065366 -109.08448310425658 0
endloop
endfacet
facet normal 0 0 -1
outer loop
vertex 250.20382668131427 -109.02821727734465 0
vertex 169.4696815065366 -109.08448310425658 0
vertex 169.6755011827644 -109.02821727734465 0
endloop
endfacet
facet normal 0 0 -1
outer loop
vertex 142.62442502619976 -109.08448310425658 0
vertex 142.8350716039905 -109.1185010961509 0
vertex 142.19830560041703 -109.08448310425658 0
endloop
endfacet
facet normal 0 0 -1
outer loop
vertex 250.21890306259866 -109.08448310425658 0
vertex 250.22801815508865 -109.1185010961509 0
vertex 169.25904494650598 -109.1185010961509 0
endloop
endfacet
facet normal 0 0 -1
outer loop
vertex 250.21890306259866 -109.08448310425658 0
vertex 169.25904494650598 -109.1185010961509 0
vertex 169.4696815065366 -109.08448310425658 0
endloop
endfacet
facet normal 0 0 1
outer loop
vertex 169.04583817418956 -109.12988854192852 0
vertex 169.04593463552445 -109.12988339013832 0
vertex 169.0459706000002 -109.12988146935385 0
endloop
endfacet
facet normal 0 0 1
outer loop
vertex 169.04583817418956 -109.12988854192852 0
vertex 169.0459706000002 -109.12988146935385 0
vertex 169.04593463552445 -109.12988339013832 0
endloop
endfacet
facet normal 0 0 1
outer loop
vertex 169.04583817418956 -109.12988854192852 0
vertex 169.04593463552445 -109.12988339013832 0
vertex 157.88844202516327 -109.12988339013832 0
endloop
endfacet
facet normal 0 0 1
outer loop
vertex 169.04583817418956 -109.12988854192852 0
vertex 157.88844202516327 -109.12988339013832 0
vertex 161.9470711046987 -109.12988146935385 0
endloop
endfacet
facet normal 0 0 -1
outer loop
vertex 119.29311534441077 -107.8608176257388 0
vertex 139.6874986466982 -108.95034809999996 0
vertex 141.14509335168196 -109.02821727734465 0
endloop
endfacet
facet normal 0 0 -1
outer loop
vertex 119.29311534441077 -107.8608176257388 0
vertex 141.14509335168196 -109.02821727734465 0
vertex 142.19830560041703 -109.08448310425658 0
endloop
endfacet
facet normal 0 0 -1
outer loop
vertex 119.29311534441077 -107.8608176257388 0
vertex 142.19830560041703 -109.08448310425658 0
vertex 142.8350716039905 -109.1185010961509 0
endloop
endfacet
facet normal 0 0 -1
outer loop
vertex 119.29311534441077 -107.8608176257388 0
vertex 142.8350716039905 -109.1185010961509 0
vertex 143.0481435000001 -109.12988339013832 0
endloop
endfacet
facet normal 0 0 -1
outer loop
vertex 119.29311534441077 -107.8608176257388 0
vertex 143.0481435000001 -109.12988339013832 0
vertex 110.15226154367338 -109.12988854192852 0
endloop
endfacet
facet normal 0 0 -1
outer loop
vertex 119.29311534441077 -107.8608176257388 0
vertex 110.15226154367338 -109.12988854192852 0
vertex 61.86303693478302 -109.12988854192852 0
endloop
endfacet
facet normal 0 0 -1
outer loop
vertex 119.29311534441077 -107.8608176257388 0
vertex 61.86303693478302 -109.12988854192852 0
vertex 62.20308357695012 -107.8608176257388 0
endloop
endfacet
facet normal 0 0 -1
outer loop
vertex 157.88844202516327 -109.12988339013832 0
vertex 169.04593463552445 -109.12988339013832 0
vertex 169.04583817418956 -109.12988854192852 0
endloop
endfacet
facet normal 0 0 -1
outer loop
vertex 157.88844202516327 -109.12988339013832 0
vertex 169.04583817418956 -109.12988854192852 0
vertex 110.15226154367338 -109.12988854192852 0
endloop
endfacet
facet normal 0 0 -1
outer loop
vertex 157.88844202516327 -109.12988339013832 0
vertex 110.15226154367338 -109.12988854192852 0
vertex 143.0481435000001 -109.12988339013832 0
endloop
endfacet
facet normal 0 0 -1
outer loop
vertex 157.88844202516327 -109.12988339013832 0
vertex 143.0481435000001 -109.12988339013832 0
vertex 147.88052937976283 -109.12988339013832 0
endloop
endfacet
facet normal 0 0 -1
outer loop
vertex 110.15226154367338 -109.12988854192852 0
vertex 169.04583817418956 -109.12988854192852 0
vertex 167.2603012885176 -109.2252501855339 0
endloop
endfacet
facet normal 0 0 -1
outer loop
vertex 110.15226154367338 -109.12988854192852 0
vertex 167.2603012885176 -109.2252501855339 0
vertex 61.837484850745895 -109.2252501855339 0
endloop
endfacet
facet normal 0 0 -1
outer loop
vertex 110.15226154367338 -109.12988854192852 0
vertex 61.837484850745895 -109.2252501855339 0
vertex 61.86303693478302 -109.12988854192852 0
endloop
endfacet
facet normal 0 0 -1
outer loop
vertex 250.22801815508865 -109.1185010961509 0
vertex 250.25662148434955 -109.2252501855339 0
vertex 167.2603012885176 -109.2252501855339 0
endloop
endfacet
facet normal 0 0 -1
outer loop
vertex 250.22801815508865 -109.1185010961509 0
vertex 167.2603012885176 -109.2252501855339 0
vertex 169.04583817418956 -109.12988854192852 0
endloop
endfacet
facet normal 0 0 -1
outer loop
vertex 250.22801815508865 -109.1185010961509 0
vertex 169.04583817418956 -109.12988854192852 0
vertex 169.0459706000002 -109.12988146935385 0
endloop
endfacet
facet normal 0 0 -1
outer loop
vertex 250.22801815508865 -109.1185010961509 0
vertex 169.0459706000002 -109.12988146935385 0
vertex 169.25904494650598 -109.1185010961509 0
endloop
endfacet
facet normal 0 0 -1
outer loop
vertex 167.2603012885176 -109.2252501855339 0
vertex 250.25662148434955 -109.2252501855339 0
vertex 255.79553700000002 -129.8967665000001 0
endloop
endfacet
facet normal 0 0 -1
outer loop
vertex 167.2603012885176 -109.2252501855339 0
vertex 255.79553700000002 -129.8967665000001 0
vertex 255.85025464232712 -130.1830093124686 0
endloop
endfacet
facet normal 0 0 -1
outer loop
vertex 167.2603012885176 -109.2252501855339 0
vertex 255.85025464232712 -130.1830093124686 0
vertex 255.862790596016 -130.4741682284831 0
endloop
endfacet
facet normal 0 0 -1
outer loop
vertex 167.2603012885176 -109.2252501855339 0
vertex 255.862790596016 -130.4741682284831 0
vertex 255.8328801893475 -130.7640579179905 0
endloop
endfacet
facet normal 0 0 -1
outer loop
vertex 167.2603012885176 -109.2252501855339 0
vertex 255.8328801893475 -130.7640579179905 0
vertex 255.76115849999962 -131.04652325000112 0
endloop
endfacet
facet normal 0 0 -1
outer loop
vertex 167.2603012885176 -109.2252501855339 0
vertex 255.76115849999962 -131.04652325000112 0
vertex 237.35654290000025 -186.29296839999938 0
endloop
endfacet
facet normal 0 0 -1
outer loop
vertex 167.2603012885176 -109.2252501855339 0
vertex 237.35654290000025 -186.29296839999938 0
vertex 237.24882381905152 -186.55345937588595 0
endloop
endfacet
facet normal 0 0 -1
outer loop
vertex 167.2603012885176 -109.2252501855339 0
vertex 237.24882381905152 -186.55345937588595 0
vertex 237.1055521600173 -186.79622275120158 0
endloop
endfacet
facet normal 0 0 -1
outer loop
vertex 167.2603012885176 -109.2252501855339 0
vertex 237.1055521600173 -186.79622275120158 0
vertex 236.9295725939426 -187.01643178144548 0
endloop
endfacet
facet normal 0 0 -1
outer loop
vertex 167.2603012885176 -109.2252501855339 0
vertex 236.9295725939426 -187.01643178144548 0
vertex 236.72438099118804 -187.20971196883255 0
endloop
endfacet
facet normal 0 0 -1
outer loop
vertex 167.2603012885176 -109.2252501855339 0
vertex 236.72438099118804 -187.20971196883255 0
vertex 236.4940535252478 -187.37222376259075 0
endloop
endfacet
facet normal 0 0 -1
outer loop
vertex 167.2603012885176 -109.2252501855339 0
vertex 236.4940535252478 -187.37222376259075 0
vertex 236.24316569871863 -187.5007388324327 0
endloop
endfacet
facet normal 0 0 -1
outer loop
vertex 167.2603012885176 -109.2252501855339 0
vertex 236.24316569871863 -187.5007388324327 0
vertex 235.97670144999984 -187.59270420000007 0
endloop
endfacet
facet normal 0 0 -1
outer loop
vertex 167.2603012885176 -109.2252501855339 0
vertex 235.97670144999984 -187.59270420000007 0
vertex 179.31514139999965 -202.7751197000001 0
endloop
endfacet
facet normal 0 0 -1
outer loop
vertex 167.2603012885176 -109.2252501855339 0
vertex 179.31514139999965 -202.7751197000001 0
vertex 179.14479868471423 -202.81288273736328 0
endloop
endfacet
facet normal 0 0 -1
outer loop
vertex 167.2603012885176 -109.2252501855339 0
vertex 179.14479868471423 -202.81288273736328 0
vertex 178.97181317087404 -202.83566052235545 0
endloop
endfacet
facet normal 0 0 -1
outer loop
vertex 167.2603012885176 -109.2252501855339 0
vertex 178.97181317087404 -202.83566052235545 0
vertex 178.79750069999892 -202.84327485 0
endloop
endfacet
facet normal 0 0 -1
outer loop
vertex 167.2603012885176 -109.2252501855339 0
vertex 178.79750069999892 -202.84327485 0
vertex 133.29660390000046 -202.84326800000002 0
endloop
endfacet
facet normal 0 0 -1
outer loop
vertex 167.2603012885176 -109.2252501855339 0
vertex 133.29660390000046 -202.84326800000002 0
vertex 133.1222950694408 -202.83565625424194 0
endloop
endfacet
facet normal 0 0 -1
outer loop
vertex 167.2603012885176 -109.2252501855339 0
vertex 133.1222950694408 -202.83565625424194 0
vertex 132.94930956002298 -202.81288515345426 0
endloop
endfacet
facet normal 0 0 -1
outer loop
vertex 167.2603012885176 -109.2252501855339 0
vertex 132.94930956002298 -202.81288515345426 0
vertex 132.7789669499989 -202.77512399999975 0
endloop
endfacet
facet normal 0 0 -1
outer loop
vertex 167.2603012885176 -109.2252501855339 0
vertex 132.7789669499989 -202.77512399999975 0
vertex 76.11740470000079 -187.59270030000025 0
endloop
endfacet
facet normal 0 0 -1
outer loop
vertex 167.2603012885176 -109.2252501855339 0
vertex 76.11740470000079 -187.59270030000025 0
vertex 75.850938101281 -187.5007388324327 0
endloop
endfacet
facet normal 0 0 -1
outer loop
vertex 167.2603012885176 -109.2252501855339 0
vertex 75.850938101281 -187.5007388324327 0
vertex 75.60005027475208 -187.37222376259075 0
endloop
endfacet
facet normal 0 0 -1
outer loop
vertex 167.2603012885176 -109.2252501855339 0
vertex 75.60005027475208 -187.37222376259075 0
vertex 75.3697228088117 -187.20971196883255 0
endloop
endfacet
facet normal 0 0 -1
outer loop
vertex 167.2603012885176 -109.2252501855339 0
vertex 75.3697228088117 -187.20971196883255 0
vertex 75.16453120605762 -187.01643178144548 0
endloop
endfacet
facet normal 0 0 -1
outer loop
vertex 167.2603012885176 -109.2252501855339 0
vertex 75.16453120605762 -187.01643178144548 0
vertex 74.98855163998267 -186.79622275120158 0
endloop
endfacet
facet normal 0 0 -1
outer loop
vertex 167.2603012885176 -109.2252501855339 0
vertex 74.98855163998267 -186.79622275120158 0
vertex 74.84527998094836 -186.55345937588595 0
endloop
endfacet
facet normal 0 0 -1
outer loop
vertex 167.2603012885176 -109.2252501855339 0
vertex 74.84527998094836 -186.55345937588595 0
vertex 74.7375623500001 -186.29296515000038 0
endloop
endfacet
facet normal 0 0 -1
outer loop
vertex 167.2603012885176 -109.2252501855339 0
vertex 74.7375623500001 -186.29296515000038 0
vertex 56.33294339999999 -131.04652325000112 0
endloop
endfacet
facet normal 0 0 -1
outer loop
vertex 167.2603012885176 -109.2252501855339 0
vertex 56.33294339999999 -131.04652325000112 0
vertex 56.261225010652524 -130.7640618179909 0
endloop
endfacet
facet normal 0 0 -1
outer loop
vertex 167.2603012885176 -109.2252501855339 0
vertex 56.261225010652524 -130.7640618179909 0
vertex 56.23131460398399 -130.4741721284834 0
endloop
endfacet
facet normal 0 0 -1
outer loop
vertex 167.2603012885176 -109.2252501855339 0
vertex 56.23131460398399 -130.4741721284834 0
vertex 56.2438505576729 -130.1830132124685 0
endloop
endfacet
facet normal 0 0 -1
outer loop
vertex 167.2603012885176 -109.2252501855339 0
vertex 56.2438505576729 -130.1830132124685 0
vertex 56.29856669999997 -129.8967665000001 0
endloop
endfacet
facet normal 0 0 -1
outer loop
vertex 167.2603012885176 -109.2252501855339 0
vertex 56.29856669999997 -129.8967665000001 0
vertex 61.837484850745895 -109.2252501855339 0
endloop
endfacet
facet normal 0 0 1
outer loop
vertex 178.97181317087424 -202.83566052235545 1
vertex 179.14479868471386 -202.81288273736337 1
vertex 179.31514139999976 -202.77511970000006 1
endloop
endfacet
facet normal 0 0 1
outer loop
vertex 178.97181317087424 -202.83566052235545 1
vertex 179.31514139999976 -202.77511970000006 1
vertex 235.9767014500002 -187.59270419999996 1
endloop
endfacet
facet normal 0 0 1
outer loop
vertex 178.97181317087424 -202.83566052235545 1
vertex 235.9767014500002 -187.59270419999996 1
vertex 236.24316569871837 -187.50073978243262 1
endloop
endfacet
facet normal 0 0 1
outer loop
vertex 178.97181317087424 -202.83566052235545 1
vertex 236.24316569871837 -187.50073978243262 1
vertex 236.4940535252479 -187.37222471259076 1
endloop
endfacet
facet normal 0 0 1
outer loop
vertex 178.97181317087424 -202.83566052235545 1
vertex 236.4940535252479 -187.37222471259076 1
vertex 236.72438099118816 -187.20971291883242 1
endloop
endfacet
facet normal 0 0 1
outer loop
vertex 178.97181317087424 -202.83566052235545 1
vertex 236.72438099118816 -187.20971291883242 1
vertex 236.92957259394274 -187.01643273144586 1
endloop
endfacet
facet normal 0 0 1
outer loop
vertex 178.97181317087424 -202.83566052235545 1
vertex 236.92957259394274 -187.01643273144586 1
vertex 237.10555216001728 -186.79622370120174 1
endloop
endfacet
facet normal 0 0 1
outer loop
vertex 178.97181317087424 -202.83566052235545 1
vertex 237.10555216001728 -186.79622370120174 1
vertex 237.24882381905152 -186.55346032588594 1
endloop
endfacet
facet normal 0 0 1
outer loop
vertex 178.97181317087424 -202.83566052235545 1
vertex 237.24882381905152 -186.55346032588594 1
vertex 237.35654289999997 -186.29296840000018 1
endloop
endfacet
facet normal 0 0 1
outer loop
vertex 178.97181317087424 -202.83566052235545 1
vertex 237.35654289999997 -186.29296840000018 1
vertex 255.76115849999974 -131.04652325000092 1
endloop
endfacet
facet normal 0 0 1
outer loop
vertex 178.97181317087424 -202.83566052235545 1
vertex 255.76115849999974 -131.04652325000092 1
vertex 255.83288018934746 -130.7640579179908 1
endloop
endfacet
facet normal 0 0 1
outer loop
vertex 178.97181317087424 -202.83566052235545 1
vertex 255.83288018934746 -130.7640579179908 1
vertex 255.862790596016 -130.47416822848317 1
endloop
endfacet
facet normal 0 0 1
outer loop
vertex 178.97181317087424 -202.83566052235545 1
vertex 255.862790596016 -130.47416822848317 1
vertex 255.8502546423271 -130.18300931246858 1
endloop
endfacet
facet normal 0 0 1
outer loop
vertex 178.97181317087424 -202.83566052235545 1
vertex 255.8502546423271 -130.18300931246858 1
vertex 255.79553699999994 -129.89676649999979 1
endloop
endfacet
facet normal 0 0 1
outer loop
vertex 178.97181317087424 -202.83566052235545 1
vertex 255.79553699999994 -129.89676649999979 1
vertex 250.25662148434958 -109.22525018553391 1
endloop
endfacet
facet normal 0 0 1
outer loop
vertex 178.97181317087424 -202.83566052235545 1
vertex 250.25662148434958 -109.22525018553391 1
vertex 167.26030128851764 -109.22525018553391 1
endloop
endfacet
facet normal 0 0 1
outer loop
vertex 178.97181317087424 -202.83566052235545 1
vertex 167.26030128851764 -109.22525018553391 1
vertex 61.837484850745916 -109.22525018553391 1
endloop
endfacet
facet normal 0 0 1
outer loop
vertex 178.97181317087424 -202.83566052235545 1
vertex 61.837484850745916 -109.22525018553391 1
vertex 56.29856669999998 -129.89676649999979 1
endloop
endfacet
facet normal 0 0 1
outer loop
vertex 178.97181317087424 -202.83566052235545 1
vertex 56.29856669999998 -129.89676649999979 1
vertex 56.2438505576729 -130.1830132124685 1
endloop
endfacet
facet normal 0 0 1
outer loop
vertex 178.97181317087424 -202.83566052235545 1
vertex 56.2438505576729 -130.1830132124685 1
vertex 56.23131460398399 -130.47417212848345 1
endloop
endfacet
facet normal 0 0 1
outer loop
vertex 178.97181317087424 -202.83566052235545 1
vertex 56.23131460398399 -130.47417212848345 1
vertex 56.26122501065251 -130.7640618179909 1
endloop
endfacet
facet normal 0 0 1
outer loop
vertex 178.97181317087424 -202.83566052235545 1
vertex 56.26122501065251 -130.7640618179909 1
vertex 56.33294339999995 -131.04652325000092 1
endloop
endfacet
facet normal 0 0 1
outer loop
vertex 178.97181317087424 -202.83566052235545 1
vertex 56.33294339999995 -131.04652325000092 1
vertex 74.73756235 -186.29296515000007 1
endloop
endfacet
facet normal 0 0 1
outer loop
vertex 178.97181317087424 -202.83566052235545 1
vertex 74.73756235 -186.29296515000007 1
vertex 74.84527998094842 -186.55346032588594 1
endloop
endfacet
facet normal 0 0 1
outer loop
vertex 178.97181317087424 -202.83566052235545 1
vertex 74.84527998094842 -186.55346032588594 1
vertex 74.98855163998275 -186.79622370120174 1
endloop
endfacet
facet normal 0 0 1
outer loop
vertex 178.97181317087424 -202.83566052235545 1
vertex 74.98855163998275 -186.79622370120174 1
vertex 75.16453120605765 -187.01643273144586 1
endloop
endfacet
facet normal 0 0 1
outer loop
vertex 178.97181317087424 -202.83566052235545 1
vertex 75.16453120605765 -187.01643273144586 1
vertex 75.36972280881164 -187.20971291883242 1
endloop
endfacet
facet normal 0 0 1
outer loop
vertex 178.97181317087424 -202.83566052235545 1
vertex 75.36972280881164 -187.20971291883242 1
vertex 75.6000502747521 -187.37222471259076 1
endloop
endfacet
facet normal 0 0 1
outer loop
vertex 178.97181317087424 -202.83566052235545 1
vertex 75.6000502747521 -187.37222471259076 1
vertex 75.85093810128112 -187.50073978243262 1
endloop
endfacet
facet normal 0 0 1
outer loop
vertex 178.97181317087424 -202.83566052235545 1
vertex 75.85093810128112 -187.50073978243262 1
vertex 76.1174047 -187.5927003 1
endloop
endfacet
facet normal 0 0 1
outer loop
vertex 178.97181317087424 -202.83566052235545 1
vertex 76.1174047 -187.5927003 1
vertex 132.77896695000007 -202.77512400000003 1
endloop
endfacet
facet normal 0 0 1
outer loop
vertex 178.97181317087424 -202.83566052235545 1
vertex 132.77896695000007 -202.77512400000003 1
vertex 132.94930956002293 -202.81288515345426 1
endloop
endfacet
facet normal 0 0 1
outer loop
vertex 178.97181317087424 -202.83566052235545 1
vertex 132.94930956002293 -202.81288515345426 1
vertex 133.12229506944067 -202.83565625424194 1
endloop
endfacet
facet normal 0 0 1
outer loop
vertex 178.97181317087424 -202.83566052235545 1
vertex 133.12229506944067 -202.83565625424194 1
vertex 133.2966038999998 -202.843268 1
endloop
endfacet
facet normal 0 0 1
outer loop
vertex 178.97181317087424 -202.83566052235545 1
vertex 133.2966038999998 -202.843268 1
vertex 178.79750069999943 -202.84327484999997 1
endloop
endfacet
facet normal 0 0 1
outer loop
vertex 167.26030128851764 -109.22525018553391 1
vertex 169.0458381741889 -109.12988854192852 1
vertex 157.88844202516333 -109.12988146935382 1
endloop
endfacet
facet normal 0 0 1
outer loop
vertex 167.26030128851764 -109.22525018553391 1
vertex 157.88844202516333 -109.12988146935382 1
vertex 143.04814350000018 -109.12988339013832 1
endloop
endfacet
facet normal 0 0 1
outer loop
vertex 167.26030128851764 -109.22525018553391 1
vertex 143.04814350000018 -109.12988339013832 1
vertex 110.15226154367323 -109.12988854192852 1
endloop
endfacet
facet normal 0 0 1
outer loop
vertex 167.26030128851764 -109.22525018553391 1
vertex 110.15226154367323 -109.12988854192852 1
vertex 61.86303693478304 -109.12988854192852 1
endloop
endfacet
facet normal 0 0 1
outer loop
vertex 167.26030128851764 -109.22525018553391 1
vertex 61.86303693478304 -109.12988854192852 1
vertex 61.837484850745916 -109.22525018553391 1
endloop
endfacet
facet normal 0 0 1
outer loop
vertex 157.88844202516333 -109.12988146935382 1
vertex 169.0458381741889 -109.12988854192852 1
vertex 169.0459706000001 -109.12988146935382 1
endloop
endfacet
facet normal 0 0 1
outer loop
vertex 157.88844202516333 -109.12988146935382 1
vertex 169.0459706000001 -109.12988146935382 1
vertex 157.88844202516333 -109.12988146935382 1
endloop
endfacet
facet normal 0 0 1
outer loop
vertex 157.88844202516333 -109.12988146935382 1
vertex 157.88844202516333 -109.12988146935382 1
vertex 110.15226154367323 -109.12988854192852 1
endloop
endfacet
facet normal 0 0 1
outer loop
vertex 250.25662148434958 -109.22525018553391 1
vertex 250.22801815508865 -109.11850109615088 1
vertex 169.25904211063778 -109.11850109615088 1
endloop
endfacet
facet normal 0 0 1
outer loop
vertex 250.25662148434958 -109.22525018553391 1
vertex 169.25904211063778 -109.11850109615088 1
vertex 169.0459706000001 -109.12988146935382 1
endloop
endfacet
facet normal 0 0 1
outer loop
vertex 250.25662148434958 -109.22525018553391 1
vertex 169.0459706000001 -109.12988146935382 1
vertex 169.0458381741889 -109.12988854192852 1
endloop
endfacet
facet normal 0 0 1
outer loop
vertex 250.25662148434958 -109.22525018553391 1
vertex 169.0458381741889 -109.12988854192852 1
vertex 167.26030128851764 -109.22525018553391 1
endloop
endfacet
facet normal 0 0 1
outer loop
vertex 142.6244250261999 -109.0844831042566 1
vertex 142.1983056004177 -109.0844831042566 1
vertex 142.8350716039904 -109.11850109615088 1
endloop
endfacet
facet normal 0 0 1
outer loop
vertex 250.22801815508865 -109.11850109615088 1
vertex 250.21890306259866 -109.0844831042566 1
vertex 169.46968354679927 -109.0844831042566 1
endloop
endfacet
facet normal 0 0 1
outer loop
vertex 250.22801815508865 -109.11850109615088 1
vertex 169.46968354679927 -109.0844831042566 1
vertex 169.25904211063778 -109.11850109615088 1
endloop
endfacet
facet normal 0 0 1
outer loop
vertex 142.6244250261999 -109.0844831042566 1
vertex 142.41860140940807 -109.02821727734467 1
vertex 141.14509335168236 -109.02821727734467 1
endloop
endfacet
facet normal 0 0 1
outer loop
vertex 142.6244250261999 -109.0844831042566 1
vertex 141.14509335168236 -109.02821727734467 1
vertex 142.1983056004177 -109.0844831042566 1
endloop
endfacet
facet normal 0 0 1
outer loop
vertex 250.21890306259866 -109.0844831042566 1
vertex 250.20382668131427 -109.02821727734467 1
vertex 169.67550213643023 -109.02821727734467 1
endloop
endfacet
facet normal 0 0 1
outer loop
vertex 250.21890306259866 -109.0844831042566 1
vertex 169.67550213643023 -109.02821727734467 1
vertex 169.46968354679927 -109.0844831042566 1
endloop
endfacet
facet normal 0 0 1
outer loop
vertex 142.41860140940807 -109.02821727734467 1
vertex 142.21994700000008 -108.95034810000003 1
vertex 139.68749864669965 -108.95034810000003 1
endloop
endfacet
facet normal 0 0 1
outer loop
vertex 142.41860140940807 -109.02821727734467 1
vertex 139.68749864669965 -108.95034810000003 1
vertex 141.14509335168236 -109.02821727734467 1
endloop
endfacet
facet normal 0 0 1
outer loop
vertex 250.20382668131427 -109.02821727734467 1
vertex 250.18296093668613 -108.9503452500001 1
vertex 169.8741552999998 -108.9503452500001 1
endloop
endfacet
facet normal 0 0 1
outer loop
vertex 250.20382668131427 -109.02821727734467 1
vertex 169.8741552999998 -108.9503452500001 1
vertex 169.67550213643023 -109.02821727734467 1
endloop
endfacet
facet normal 0 0 1
outer loop
vertex 110.15226154367323 -109.12988854192852 1
vertex 143.04814350000018 -109.12988339013832 1
vertex 142.8350716039904 -109.11850109615088 1
endloop
endfacet
facet normal 0 0 1
outer loop
vertex 110.15226154367323 -109.12988854192852 1
vertex 142.8350716039904 -109.11850109615088 1
vertex 142.1983056004177 -109.0844831042566 1
endloop
endfacet
facet normal 0 0 1
outer loop
vertex 110.15226154367323 -109.12988854192852 1
vertex 142.1983056004177 -109.0844831042566 1
vertex 141.14509335168236 -109.02821727734467 1
endloop
endfacet
facet normal 0 0 1
outer loop
vertex 110.15226154367323 -109.12988854192852 1
vertex 141.14509335168236 -109.02821727734467 1
vertex 139.68749864669965 -108.95034810000003 1
endloop
endfacet
facet normal 0 0 1
outer loop
vertex 110.15226154367323 -109.12988854192852 1
vertex 139.68749864669965 -108.95034810000003 1
vertex 119.2931153444106 -107.8608176257388 1
endloop
endfacet
facet normal 0 0 1
outer loop
vertex 110.15226154367323 -109.12988854192852 1
vertex 119.2931153444106 -107.8608176257388 1
vertex 62.20308357695014 -107.8608176257388 1
endloop
endfacet
facet normal 0 0 1
outer loop
vertex 110.15226154367323 -109.12988854192852 1
vertex 62.20308357695014 -107.8608176257388 1
vertex 61.86303693478304 -109.12988854192852 1
endloop
endfacet
facet normal 0 0 1
outer loop
vertex 142.21994700000008 -108.95034810000003 1
vertex 139.8250200234683 -107.8608176257388 1
vertex 119.2931153444106 -107.8608176257388 1
endloop
endfacet
facet normal 0 0 1
outer loop
vertex 142.21994700000008 -108.95034810000003 1
vertex 119.2931153444106 -107.8608176257388 1
vertex 139.68749864669965 -108.95034810000003 1
endloop
endfacet
facet normal 0 0 1
outer loop
vertex 119.2931153444106 -107.8608176257388 1
vertex 139.8250200234683 -107.8608176257388 1
vertex 126.15504494999979 -101.64189964999991 1
endloop
endfacet
facet normal 0 0 1
outer loop
vertex 119.2931153444106 -107.8608176257388 1
vertex 126.15504494999979 -101.64189964999991 1
vertex 126.00206558657705 -101.579794802672 1
endloop
endfacet
facet normal 0 0 1
outer loop
vertex 119.2931153444106 -107.8608176257388 1
vertex 126.00206558657705 -101.579794802672 1
vertex 125.84448990000007 -101.53051930000001 1
endloop
endfacet
facet normal 0 0 1
outer loop
vertex 119.2931153444106 -107.8608176257388 1
vertex 125.84448990000007 -101.53051930000001 1
vertex 102.98204104999971 -95.40453499999992 1
endloop
endfacet
facet normal 0 0 1
outer loop
vertex 119.2931153444106 -107.8608176257388 1
vertex 102.98204104999971 -95.40453499999992 1
vertex 102.82093558274525 -95.36842945730797 1
endloop
endfacet
facet normal 0 0 1
outer loop
vertex 119.2931153444106 -107.8608176257388 1
vertex 102.82093558274525 -95.36842945730797 1
vertex 102.6574020999992 -95.3457299999999 1
endloop
endfacet
facet normal 0 0 1
outer loop
vertex 119.2931153444106 -107.8608176257388 1
vertex 102.6574020999992 -95.3457299999999 1
vertex 68.18226285000011 -92.00327325 1
endloop
endfacet
facet normal 0 0 1
outer loop
vertex 119.2931153444106 -107.8608176257388 1
vertex 68.18226285000011 -92.00327325 1
vertex 67.87026758328548 -91.9974807298575 1
endloop
endfacet
facet normal 0 0 1
outer loop
vertex 119.2931153444106 -107.8608176257388 1
vertex 67.87026758328548 -91.9974807298575 1
vertex 67.56116884753577 -92.04028927222487 1
endloop
endfacet
facet normal 0 0 1
outer loop
vertex 119.2931153444106 -107.8608176257388 1
vertex 67.56116884753577 -92.04028927222487 1
vertex 67.26249123416883 -92.13065676093255 1
endloop
endfacet
facet normal 0 0 1
outer loop
vertex 119.2931153444106 -107.8608176257388 1
vertex 67.26249123416883 -92.13065676093255 1
vertex 66.98150564644854 -92.2663833214698 1
endloop
endfacet
facet normal 0 0 1
outer loop
vertex 119.2931153444106 -107.8608176257388 1
vertex 66.98150564644854 -92.2663833214698 1
vertex 66.72505229915923 -92.4441649916664 1
endloop
endfacet
facet normal 0 0 1
outer loop
vertex 119.2931153444106 -107.8608176257388 1
vertex 66.72505229915923 -92.4441649916664 1
vertex 66.49937420281161 -92.65967356652442 1
endloop
endfacet
facet normal 0 0 1
outer loop
vertex 119.2931153444106 -107.8608176257388 1
vertex 66.49937420281161 -92.65967356652442 1
vertex 66.30996518598184 -92.90766313099301 1
endloop
endfacet
facet normal 0 0 1
outer loop
vertex 119.2931153444106 -107.8608176257388 1
vertex 66.30996518598184 -92.90766313099301 1
vertex 66.16143615546994 -93.1820965962209 1
endloop
endfacet
facet normal 0 0 1
outer loop
vertex 119.2931153444106 -107.8608176257388 1
vertex 66.16143615546994 -93.1820965962209 1
vertex 66.0574057 -93.47629650000002 1
endloop
endfacet
facet normal 0 0 1
outer loop
vertex 119.2931153444106 -107.8608176257388 1
vertex 66.0574057 -93.47629650000002 1
vertex 62.20308357695014 -107.8608176257388 1
endloop
endfacet
facet normal 0 0 1
outer loop
vertex 250.18296093668613 -108.9503452500001 1
vertex 246.03670460000004 -93.47630430000008 1
vertex 245.93267358964 -93.1821050800447 1
endloop
endfacet
facet normal 0 0 1
outer loop
vertex 250.18296093668613 -108.9503452500001 1
vertex 245.93267358964 -93.1821050800447 1
vertex 245.7841461994535 -92.90766884609731 1
endloop
endfacet
facet normal 0 0 1
outer loop
vertex 250.18296093668613 -108.9503452500001 1
vertex 245.7841461994535 -92.90766884609731 1
vertex 245.5947381665679 -92.65967644859847 1
endloop
endfacet
facet normal 0 0 1
outer loop
vertex 250.18296093668613 -108.9503452500001 1
vertex 245.5947381665679 -92.65967644859847 1
vertex 245.36906042271707 -92.4441649916664 1
endloop
endfacet
facet normal 0 0 1
outer loop
vertex 250.18296093668613 -108.9503452500001 1
vertex 245.36906042271707 -92.4441649916664 1
vertex 245.1126068461419 -92.26638086638835 1
endloop
endfacet
facet normal 0 0 1
outer loop
vertex 250.18296093668613 -108.9503452500001 1
vertex 245.1126068461419 -92.26638086638835 1
vertex 244.8316205191268 -92.13065203316093 1
endloop
endfacet
facet normal 0 0 1
outer loop
vertex 250.18296093668613 -108.9503452500001 1
vertex 244.8316205191268 -92.13065203316093 1
vertex 244.53294174697498 -92.04028266221748 1
endloop
endfacet
facet normal 0 0 1
outer loop
vertex 250.18296093668613 -108.9503452500001 1
vertex 244.53294174697498 -92.04028266221748 1
vertex 244.22384153824774 -91.99747269721348 1
endloop
endfacet
facet normal 0 0 1
outer loop
vertex 250.18296093668613 -108.9503452500001 1
vertex 244.22384153824774 -91.99747269721348 1
vertex 243.91184920000012 -92.0032686 1
endloop
endfacet
facet normal 0 0 1
outer loop
vertex 250.18296093668613 -108.9503452500001 1
vertex 243.91184920000012 -92.0032686 1
vertex 209.43670885000006 -95.3457271 1
endloop
endfacet
facet normal 0 0 1
outer loop
vertex 250.18296093668613 -108.9503452500001 1
vertex 209.43670885000006 -95.3457271 1
vertex 209.2731738909751 -95.36843148460159 1
endloop
endfacet
facet normal 0 0 1
outer loop
vertex 250.18296093668613 -108.9503452500001 1
vertex 209.2731738909751 -95.36843148460159 1
vertex 209.11206770000052 -95.40454419999986 1
endloop
endfacet
facet normal 0 0 1
outer loop
vertex 250.18296093668613 -108.9503452500001 1
vertex 209.11206770000052 -95.40454419999986 1
vertex 186.24962290000008 -101.5305217 1
endloop
endfacet
facet normal 0 0 1
outer loop
vertex 250.18296093668613 -108.9503452500001 1
vertex 186.24962290000008 -101.5305217 1
vertex 186.09204226342274 -101.57979685267209 1
endloop
endfacet
facet normal 0 0 1
outer loop
vertex 250.18296093668613 -108.9503452500001 1
vertex 186.09204226342274 -101.57979685267209 1
vertex 185.93906580000026 -101.64190339999989 1
endloop
endfacet
facet normal 0 0 1
outer loop
vertex 250.18296093668613 -108.9503452500001 1
vertex 185.93906580000026 -101.64190339999989 1
vertex 169.8741552999998 -108.9503452500001 1
endloop
endfacet
facet normal -0.9241088959118036 -0.38212923009980204 0
outer loop
vertex 74.84527998094842 -186.55346032588594 1
vertex 74.73756235 -186.29296515000007 1
vertex 74.7375623500001 -186.29296515000038 0
endloop
endfacet
facet normal -0.9241088959118036 -0.38212923009980204 0
outer loop
vertex 74.84527998094842 -186.55346032588594 1
vertex 74.7375623500001 -186.29296515000038 0
vertex 74.84527998094836 -186.55345937588595 0
endloop
endfacet
facet normal -0.8612051795880112 -0.5082574531187727 0
outer loop
vertex 74.98855163998275 -186.79622370120174 1
vertex 74.84527998094842 -186.55346032588594 1
vertex 74.84527998094836 -186.55345937588595 0
endloop
endfacet
facet normal -0.8612051795880112 -0.5082574531187727 0
outer loop
vertex 74.98855163998275 -186.79622370120174 1
vertex 74.84527998094836 -186.55345937588595 0
vertex 74.98855163998267 -186.79622275120158 0
endloop
endfacet
facet normal -0.7811934448177221 -0.6242890370443972 0
outer loop
vertex 75.16453120605765 -187.01643273144586 1
vertex 74.98855163998275 -186.79622370120174 1
vertex 74.98855163998267 -186.79622275120158 0
endloop
endfacet
facet normal -0.7811934448177221 -0.6242890370443972 0
outer loop
vertex 75.16453120605765 -187.01643273144586 1
vertex 74.98855163998267 -186.79622275120158 0
vertex 75.16453120605762 -187.01643178144548 0
endloop
endfacet
facet normal -0.6856631412080124 -0.7279189905399923 0
outer loop
vertex 75.36972280881164 -187.20971291883242 1
vertex 75.16453120605765 -187.01643273144586 1
vertex 75.16453120605762 -187.01643178144548 0
endloop
endfacet
facet normal -0.6856631412080124 -0.7279189905399923 0
outer loop
vertex 75.36972280881164 -187.20971291883242 1
vertex 75.16453120605762 -187.01643178144548 0
vertex 75.3697228088117 -187.20971196883255 0
endloop
endfacet
facet normal -0.5765119979354829 -0.8170886832140303 0
outer loop
vertex 75.6000502747521 -187.37222471259076 1
vertex 75.36972280881164 -187.20971291883242 1
vertex 75.3697228088117 -187.20971196883255 0
endloop
endfacet
facet normal -0.5765119979354829 -0.8170886832140303 0
outer loop
vertex 75.6000502747521 -187.37222471259076 1
vertex 75.3697228088117 -187.20971196883255 0
vertex 75.60005027475208 -187.37222376259075 0
endloop
endfacet
facet normal -0.455908324965066 -0.8900267407373487 0
outer loop
vertex 75.85093810128112 -187.50073978243262 1
vertex 75.6000502747521 -187.37222471259076 1
vertex 75.60005027475208 -187.37222376259075 0
endloop
endfacet
facet normal -0.455908324965066 -0.8900267407373487 0
outer loop
vertex 75.85093810128112 -187.50073978243262 1
vertex 75.60005027475208 -187.37222376259075 0
vertex 75.850938101281 -187.5007388324327 0
endloop
endfacet
facet normal -0.32622999399825403 -0.9452904268085547 0
outer loop
vertex 76.1174047 -187.5927003 1
vertex 75.85093810128112 -187.50073978243262 1
vertex 75.850938101281 -187.5007388324327 0
endloop
endfacet
facet normal -0.32622999399825403 -0.9452904268085547 0
outer loop
vertex 76.1174047 -187.5927003 1
vertex 75.850938101281 -187.5007388324327 0
vertex 76.11740470000079 -187.59270030000025 0
endloop
endfacet
facet normal -0.2588191063893818 -0.9659258098673014 0
outer loop
vertex 132.77896695000007 -202.77512400000003 1
vertex 76.1174047 -187.5927003 1
vertex 76.11740470000079 -187.59270030000025 0
endloop
endfacet
facet normal -0.2588191063893818 -0.9659258098673014 0
outer loop
vertex 132.77896695000007 -202.77512400000003 1
vertex 76.11740470000079 -187.59270030000025 0
vertex 132.7789669499989 -202.77512399999975 0
endloop
endfacet
facet normal -0.21642380424705712 -0.9762995119097578 0
outer loop
vertex 132.94930956002293 -202.81288515345426 1
vertex 132.77896695000007 -202.77512400000003 1
vertex 132.7789669499989 -202.77512399999975 0
endloop
endfacet
facet normal -0.21642380424705712 -0.9762995119097578 0
outer loop
vertex 132.94930956002293 -202.81288515345426 1
vertex 132.7789669499989 -202.77512399999975 0
vertex 132.94930956002298 -202.81288515345426 0
endloop
endfacet
facet normal -0.13051000323210377 -0.9914469925600442 0
outer loop
vertex 133.12229506944067 -202.83565625424194 1
vertex 132.94930956002293 -202.81288515345426 1
vertex 132.94930956002298 -202.81288515345426 0
endloop
endfacet
facet normal -0.13051000323210377 -0.9914469925600442 0
outer loop
vertex 133.12229506944067 -202.83565625424194 1
vertex 132.94930956002298 -202.81288515345426 0
vertex 133.1222950694408 -202.83565625424194 0
endloop
endfacet
facet normal -0.04362658304080471 -0.999047907385919 0
outer loop
vertex 133.2966038999998 -202.843268 1
vertex 133.12229506944067 -202.83565625424194 1
vertex 133.1222950694408 -202.83565625424194 0
endloop
endfacet
facet normal -0.04362658304080471 -0.999047907385919 0
outer loop
vertex 133.2966038999998 -202.843268 1
vertex 133.1222950694408 -202.83565625424194 0
vertex 133.29660390000046 -202.84326800000002 0
endloop
endfacet
facet normal -1.5054646951284667e-7 -0.9999999999999887 0
outer loop
vertex 178.79750069999943 -202.84327484999997 1
vertex 133.2966038999998 -202.843268 1
vertex 133.29660390000046 -202.84326800000002 0
endloop
endfacet
facet normal -1.5054646951284667e-7 -0.9999999999999887 0
outer loop
vertex 178.79750069999943 -202.84327484999997 1
vertex 133.29660390000046 -202.84326800000002 0
vertex 178.79750069999892 -202.84327485 0
endloop
endfacet
facet normal 0.04364044323358482 -0.9990473020404871 0
outer loop
vertex 178.97181317087424 -202.83566052235545 1
vertex 178.79750069999943 -202.84327484999997 1
vertex 178.79750069999892 -202.84327485 0
endloop
endfacet
facet normal 0.04364044323358482 -0.9990473020404871 0
outer loop
vertex 178.97181317087424 -202.83566052235545 1
vertex 178.79750069999892 -202.84327485 0
vertex 178.97181317087404 -202.83566052235545 0
endloop
endfacet
facet normal 0.13054765691046555 -0.9914420352573252 0
outer loop
vertex 179.14479868471386 -202.81288273736337 1
vertex 178.97181317087424 -202.83566052235545 1
vertex 178.97181317087404 -202.83566052235545 0
endloop
endfacet
facet normal 0.13054765691046555 -0.9914420352573252 0
outer loop
vertex 179.14479868471386 -202.81288273736337 1
vertex 178.97181317087404 -202.83566052235545 0
vertex 179.14479868471423 -202.81288273736328 0
endloop
endfacet
facet normal 0.2164339684009627 -0.97629725868826 0
outer loop
vertex 179.31514139999976 -202.77511970000006 1
vertex 179.14479868471386 -202.81288273736337 1
vertex 179.14479868471423 -202.81288273736328 0
endloop
endfacet
facet normal 0.2164339684009627 -0.97629725868826 0
outer loop
vertex 179.31514139999976 -202.77511970000006 1
vertex 179.14479868471423 -202.81288273736328 0
vertex 179.31514139999965 -202.7751197000001 0
endloop
endfacet
facet normal 0.25881898534163345 -0.9659258423019479 0
outer loop
vertex 235.9767014500002 -187.59270419999996 1
vertex 179.31514139999976 -202.77511970000006 1
vertex 179.31514139999965 -202.7751197000001 0
endloop
endfacet
facet normal 0.25881898534163345 -0.9659258423019479 0
outer loop
vertex 235.9767014500002 -187.59270419999996 1
vertex 179.31514139999965 -202.7751197000001 0
vertex 235.97670144999984 -187.59270420000007 0
endloop
endfacet
facet normal 0.3262479391249247 -0.9452842335598005 0
outer loop
vertex 236.24316569871837 -187.50073978243262 1
vertex 235.9767014500002 -187.59270419999996 1
vertex 235.97670144999984 -187.59270420000007 0
endloop
endfacet
facet normal 0.3262479391249247 -0.9452842335598005 0
outer loop
vertex 236.24316569871837 -187.50073978243262 1
vertex 235.97670144999984 -187.59270420000007 0
vertex 236.24316569871863 -187.5007388324327 0
endloop
endfacet
facet normal 0.45590832496503486 -0.8900267407373647 0
outer loop
vertex 236.4940535252479 -187.37222471259076 1
vertex 236.24316569871837 -187.50073978243262 1
vertex 236.24316569871863 -187.5007388324327 0
endloop
endfacet
facet normal 0.45590832496503486 -0.8900267407373647 0
outer loop
vertex 236.4940535252479 -187.37222471259076 1
vertex 236.24316569871863 -187.5007388324327 0
vertex 236.4940535252478 -187.37222376259075 0
endloop
endfacet
facet normal 0.5765119979355185 -0.8170886832140051 0
outer loop
vertex 236.72438099118816 -187.20971291883242 1
vertex 236.4940535252479 -187.37222471259076 1
vertex 236.4940535252478 -187.37222376259075 0
endloop
endfacet
facet normal 0.5765119979355185 -0.8170886832140051 0
outer loop
vertex 236.72438099118816 -187.20971291883242 1
vertex 236.4940535252478 -187.37222376259075 0
vertex 236.72438099118804 -187.20971196883255 0
endloop
endfacet
facet normal 0.6856631412079831 -0.7279189905400197 0
outer loop
vertex 236.92957259394274 -187.01643273144586 1
vertex 236.72438099118816 -187.20971291883242 1
vertex 236.72438099118804 -187.20971196883255 0
endloop
endfacet
facet normal 0.6856631412079831 -0.7279189905400197 0
outer loop
vertex 236.92957259394274 -187.01643273144586 1
vertex 236.72438099118804 -187.20971196883255 0
vertex 236.9295725939426 -187.01643178144548 0
endloop
endfacet
facet normal 0.7811934448177159 -0.624289037044405 0
outer loop
vertex 237.10555216001728 -186.79622370120174 1
vertex 236.92957259394274 -187.01643273144586 1
vertex 236.9295725939426 -187.01643178144548 0
endloop
endfacet
facet normal 0.7811934448177159 -0.624289037044405 0
outer loop
vertex 237.10555216001728 -186.79622370120174 1
vertex 236.9295725939426 -187.01643178144548 0
vertex 237.1055521600173 -186.79622275120158 0
endloop
endfacet
facet normal 0.8612051795880311 -0.5082574531187392 0
outer loop
vertex 237.24882381905152 -186.55346032588594 1
vertex 237.10555216001728 -186.79622370120174 1
vertex 237.1055521600173 -186.79622275120158 0
endloop
endfacet
facet normal 0.8612051795880311 -0.5082574531187392 0
outer loop
vertex 237.24882381905152 -186.55346032588594 1
vertex 237.1055521600173 -186.79622275120158 0
vertex 237.24882381905152 -186.55345937588595 0
endloop
endfacet
facet normal 0.9241049036869842 -0.38213888441464533 0
outer loop
vertex 237.35654289999997 -186.29296840000018 1
vertex 237.24882381905152 -186.55346032588594 1
vertex 237.24882381905152 -186.55345937588595 0
endloop
endfacet
facet normal 0.9241049036869842 -0.38213888441464533 0
outer loop
vertex 237.35654289999997 -186.29296840000018 1
vertex 237.24882381905152 -186.55345937588595 0
vertex 237.35654290000025 -186.29296839999938 0
endloop
endfacet
facet normal 0.9487392638634544 -0.3160598190277127 0
outer loop
vertex 255.76115849999974 -131.04652325000092 1
vertex 237.35654289999997 -186.29296840000018 1
vertex 237.35654290000025 -186.29296839999938 0
endloop
endfacet
facet normal 0.9487392638634544 -0.3160598190277127 0
outer loop
vertex 255.76115849999974 -131.04652325000092 1
vertex 237.35654290000025 -186.29296839999938 0
vertex 255.76115849999962 -131.04652325000112 0
endloop
endfacet
facet normal 0.9692434880771524 -0.2461037602720348 0
outer loop
vertex 255.83288018934746 -130.7640579179908 1
vertex 255.76115849999974 -131.04652325000092 1
vertex 255.76115849999962 -131.04652325000112 0
endloop
endfacet
facet normal 0.9692434880771524 -0.2461037602720348 0
outer loop
vertex 255.83288018934746 -130.7640579179908 1
vertex 255.76115849999962 -131.04652325000112 0
vertex 255.8328801893475 -130.7640579179905 0
endloop
endfacet
facet normal 0.9947192167527948 -0.10263371679280904 0
outer loop
vertex 255.862790596016 -130.47416822848317 1
vertex 255.83288018934746 -130.7640579179908 1
vertex 255.8328801893475 -130.7640579179905 0
endloop
endfacet
facet normal 0.9947192167527948 -0.10263371679280904 0
outer loop
vertex 255.862790596016 -130.47416822848317 1
vertex 255.8328801893475 -130.7640579179905 0
vertex 255.862790596016 -130.4741682284831 0
endloop
endfacet
facet normal 0.9990744044085378 0.043015514128342175 0
outer loop
vertex 255.8502546423271 -130.18300931246858 1
vertex 255.862790596016 -130.47416822848317 1
vertex 255.862790596016 -130.4741682284831 0
endloop
endfacet
facet normal 0.9990744044085378 0.043015514128342175 0
outer loop
vertex 255.8502546423271 -130.18300931246858 1
vertex 255.862790596016 -130.4741682284831 0
vertex 255.85025464232712 -130.1830093124686 0
endloop
endfacet
facet normal 0.9822152364654355 0.18775843324641525 0
outer loop
vertex 255.79553699999994 -129.89676649999979 1
vertex 255.8502546423271 -130.18300931246858 1
vertex 255.85025464232712 -130.1830093124686 0
endloop
endfacet
facet normal 0.9822152364654355 0.18775843324641525 0
outer loop
vertex 255.79553699999994 -129.89676649999979 1
vertex 255.85025464232712 -130.1830093124686 0
vertex 255.79553700000002 -129.8967665000001 0
endloop
endfacet
facet normal 0 0 1
outer loop
vertex 246.03670460000004 -93.47630430000008 1
vertex 250.18296093668613 -108.9503452500001 1
vertex 250.20382668131427 -109.02821727734467 1
endloop
endfacet
facet normal 0 0 1
outer loop
vertex 246.03670460000004 -93.47630430000008 1
vertex 250.20382668131427 -109.02821727734467 1
vertex 250.21890306259866 -109.0844831042566 1
endloop
endfacet
facet normal 0 0 1
outer loop
vertex 246.03670460000004 -93.47630430000008 1
vertex 250.21890306259866 -109.0844831042566 1
vertex 250.22801815508865 -109.11850109615088 1
endloop
endfacet
facet normal 0 0 1
outer loop
vertex 246.03670460000004 -93.47630430000008 1
vertex 250.22801815508865 -109.11850109615088 1
vertex 250.25662148434958 -109.22525018553391 1
endloop
endfacet
facet normal 0 0 1
outer loop
vertex 246.03670460000004 -93.47630430000008 1
vertex 250.25662148434958 -109.22525018553391 1
vertex 255.79553699999994 -129.89676649999979 1
endloop
endfacet
facet normal 0 0 1
outer loop
vertex 246.03670460000004 -93.47630430000008 1
vertex 255.79553699999994 -129.89676649999979 1
vertex 255.79553700000002 -129.8967665000001 0
endloop
endfacet
facet normal 0 0 1
outer loop
vertex 246.03670460000004 -93.47630430000008 1
vertex 255.79553700000002 -129.8967665000001 0
vertex 250.25662148434955 -109.2252501855339 0
endloop
endfacet
facet normal 0 0 1
outer loop
vertex 246.03670460000004 -93.47630430000008 1
vertex 250.25662148434955 -109.2252501855339 0
vertex 250.22801815508865 -109.1185010961509 0
endloop
endfacet
facet normal 0 0 1
outer loop
vertex 246.03670460000004 -93.47630430000008 1
vertex 250.22801815508865 -109.1185010961509 0
vertex 250.21890306259866 -109.08448310425658 0
endloop
endfacet
facet normal 0 0 1
outer loop
vertex 246.03670460000004 -93.47630430000008 1
vertex 250.21890306259866 -109.08448310425658 0
vertex 250.20382668131427 -109.02821727734465 0
endloop
endfacet
facet normal 0 0 1
outer loop
vertex 246.03670460000004 -93.47630430000008 1
vertex 250.20382668131427 -109.02821727734465 0
vertex 250.1829609366861 -108.95034524999994 0
endloop
endfacet
facet normal 0 0 1
outer loop
vertex 246.03670460000004 -93.47630430000008 1
vertex 250.1829609366861 -108.95034524999994 0
vertex 246.03670460000004 -93.47630430000012 0
endloop
endfacet
facet normal 0.9427930489492093 0.3333785638775441 0
outer loop
vertex 245.93267358964 -93.1821050800447 1
vertex 246.03670460000004 -93.47630430000008 1
vertex 246.03670460000004 -93.47630430000012 0
endloop
endfacet
facet normal 0.9427930489492093 0.3333785638775441 0
outer loop
vertex 245.93267358964 -93.1821050800447 1
vertex 246.03670460000004 -93.47630430000012 0
vertex 245.93267358963996 -93.18210508004466 0
endloop
endfacet
facet normal 0.8794604342754866 0.47597199974785553 0
outer loop
vertex 245.7841461994535 -92.90766884609731 1
vertex 245.93267358964 -93.1821050800447 1
vertex 245.93267358963996 -93.18210508004466 0
endloop
endfacet
facet normal 0.8794604342754866 0.47597199974785553 0
outer loop
vertex 245.7841461994535 -92.90766884609731 1
vertex 245.93267358963996 -93.18210508004466 0
vertex 245.78414619945357 -92.90766884609747 0
endloop
endfacet
facet normal 0.7947183156695703 0.6069784170292395 0
outer loop
vertex 245.5947381665679 -92.65967644859847 1
vertex 245.7841461994535 -92.90766884609731 1
vertex 245.78414619945357 -92.90766884609747 0
endloop
endfacet
facet normal 0.7947183156695703 0.6069784170292395 0
outer loop
vertex 245.5947381665679 -92.65967644859847 1
vertex 245.78414619945357 -92.90766884609747 0
vertex 245.5947381665678 -92.65967644859839 0
endloop
endfacet
facet normal 0.6906296474735916 0.7232086075472987 0
outer loop
vertex 245.36906042271707 -92.4441649916664 1
vertex 245.5947381665679 -92.65967644859847 1
vertex 245.5947381665678 -92.65967644859839 0
endloop
endfacet
facet normal 0.6906296474735916 0.7232086075472987 0
outer loop
vertex 245.36906042271707 -92.4441649916664 1
vertex 245.5947381665678 -92.65967644859839 0
vertex 245.369060422717 -92.44416499166637 0
endloop
endfacet
facet normal 0.5697283546533926 0.8218330742334105 0
outer loop
vertex 245.1126068461419 -92.26638086638835 1
vertex 245.36906042271707 -92.4441649916664 1
vertex 245.369060422717 -92.44416499166637 0
endloop
endfacet
facet normal 0.5697283546533926 0.8218330742334105 0
outer loop
vertex 245.1126068461419 -92.26638086638835 1
vertex 245.369060422717 -92.44416499166637 0
vertex 245.1126068461418 -92.2663808663883 0
endloop
endfacet
facet normal 0.43495764716275065 0.900450912140492 0
outer loop
vertex 244.8316205191268 -92.13065203316093 1
vertex 245.1126068461419 -92.26638086638835 1
vertex 245.1126068461418 -92.2663808663883 0
endloop
endfacet
facet normal 0.43495764716275065 0.900450912140492 0
outer loop
vertex 244.8316205191268 -92.13065203316093 1
vertex 245.1126068461418 -92.2663808663883 0
vertex 244.83162051912677 -92.13065203316093 0
endloop
endfacet
facet normal 0.28959837071064615 0.957148255852634 0
outer loop
vertex 244.53294174697498 -92.04028266221748 1
vertex 244.8316205191268 -92.13065203316093 1
vertex 244.83162051912677 -92.13065203316093 0
endloop
endfacet
facet normal 0.28959837071064615 0.957148255852634 0
outer loop
vertex 244.53294174697498 -92.04028266221748 1
vertex 244.83162051912677 -92.13065203316093 0
vertex 244.53294174697493 -92.04028266221748 0
endloop
endfacet
facet normal 0.13718913815492334 0.9905448704487392 0
outer loop
vertex 244.22384153824774 -91.99747269721348 1
vertex 244.53294174697498 -92.04028266221748 1
vertex 244.53294174697493 -92.04028266221748 0
endloop
endfacet
facet normal 0.13718913815492334 0.9905448704487392 0
outer loop
vertex 244.22384153824774 -91.99747269721348 1
vertex 244.53294174697493 -92.04028266221748 0
vertex 244.22384153824765 -91.99747269721348 0
endloop
endfacet
facet normal -0.018573862977689263 0.9998274909273529 0
outer loop
vertex 243.91184920000012 -92.0032686 1
vertex 244.22384153824774 -91.99747269721348 1
vertex 244.22384153824765 -91.99747269721348 0
endloop
endfacet
facet normal -0.018573862977689263 0.9998274909273529 0
outer loop
vertex 243.91184920000012 -92.0032686 1
vertex 244.22384153824765 -91.99747269721348 0
vertex 243.91184920000003 -92.0032686 0
endloop
endfacet
facet normal -0.09650023421632176 0.9953329617752017 0
outer loop
vertex 209.43670885000006 -95.3457271 1
vertex 243.91184920000012 -92.0032686 1
vertex 243.91184920000003 -92.0032686 0
endloop
endfacet
facet normal -0.09650023421632176 0.9953329617752017 0
outer loop
vertex 209.43670885000006 -95.3457271 1
vertex 243.91184920000003 -92.0032686 0
vertex 209.43670884999992 -95.34572710000002 0
endloop
endfacet
facet normal -0.13751605522139695 0.9904995378880022 0
outer loop
vertex 209.2731738909751 -95.36843148460159 1
vertex 209.43670885000006 -95.3457271 1
vertex 209.43670884999992 -95.34572710000002 0
endloop
endfacet
facet normal -0.13751605522139695 0.9904995378880022 0
outer loop
vertex 209.2731738909751 -95.36843148460159 1
vertex 209.43670884999992 -95.34572710000002 0
vertex 209.27317389097522 -95.36843148460157 0
endloop
endfacet
facet normal -0.21872706877095988 0.9757860776762823 0
outer loop
vertex 209.11206770000052 -95.40454419999986 1
vertex 209.2731738909751 -95.36843148460159 1
vertex 209.27317389097522 -95.36843148460157 0
endloop
endfacet
facet normal -0.21872706877095988 0.9757860776762823 0
outer loop
vertex 209.11206770000052 -95.40454419999986 1
vertex 209.27317389097522 -95.36843148460157 0
vertex 209.11206770000015 -95.40454419999996 0
endloop
endfacet
facet normal -0.25881919800354997 0.9659257853193479 0
outer loop
vertex 186.24962290000008 -101.5305217 1
vertex 209.11206770000052 -95.40454419999986 1
vertex 209.11206770000015 -95.40454419999996 0
endloop
endfacet
facet normal -0.25881919800354997 0.9659257853193479 0
outer loop
vertex 186.24962290000008 -101.5305217 1
vertex 209.11206770000015 -95.40454419999996 0
vertex 186.24962290000033 -101.53052169999992 0
endloop
endfacet
facet normal -0.2984471671324801 0.9544261566148518 0
outer loop
vertex 186.09204226342274 -101.57979685267209 1
vertex 186.24962290000008 -101.5305217 1
vertex 186.24962290000033 -101.53052169999992 0
endloop
endfacet
facet normal -0.2984471671324801 0.9544261566148518 0
outer loop
vertex 186.09204226342274 -101.57979685267209 1
vertex 186.24962290000033 -101.53052169999992 0
vertex 186.0920422634225 -101.57979685267217 0
endloop
endfacet
facet normal -0.3761683520908152 0.9265513320293056 0
outer loop
vertex 185.93906580000026 -101.64190339999989 1
vertex 186.09204226342274 -101.57979685267209 1
vertex 186.0920422634225 -101.57979685267217 0
endloop
endfacet
facet normal -0.3761683520908152 0.9265513320293056 0
outer loop
vertex 185.93906580000026 -101.64190339999989 1
vertex 186.0920422634225 -101.57979685267217 0
vertex 185.93906580000035 -101.64190339999985 0
endloop
endfacet
facet normal -0.41409452147200826 0.9102338860352699 0
outer loop
vertex 169.8741552999998 -108.9503452500001 1
vertex 185.93906580000026 -101.64190339999989 1
vertex 185.93906580000035 -101.64190339999985 0
endloop
endfacet
facet normal -0.41409452147200826 0.9102338860352699 0
outer loop
vertex 169.8741552999998 -108.9503452500001 1
vertex 185.93906580000035 -101.64190339999985 0
vertex 169.87415530000013 -108.95034524999994 0
endloop
endfacet
facet normal -0.36495937795612843 0.9310234435511685 0
outer loop
vertex 169.67550213643023 -109.02821727734467 1
vertex 169.8741552999998 -108.9503452500001 1
vertex 169.87415530000013 -108.95034524999994 0
endloop
endfacet
facet normal -0.36495937795612843 0.9310234435511685 0
outer loop
vertex 169.67550213643023 -109.02821727734467 1
vertex 169.87415530000013 -108.95034524999994 0
vertex 169.6755011827644 -109.02821727734465 0
endloop
endfacet
facet normal -0.2636972692914414 0.9646054893935847 0
outer loop
vertex 169.46968354679927 -109.0844831042566 1
vertex 169.67550213643023 -109.02821727734467 1
vertex 169.6755011827644 -109.02821727734465 0
endloop
endfacet
facet normal -0.2636972692914414 0.9646054893935847 0
outer loop
vertex 169.46968354679927 -109.0844831042566 1
vertex 169.6755011827644 -109.02821727734465 0
vertex 169.4696815065366 -109.08448310425658 0
endloop
endfacet
facet normal -0.15943381936574494 0.9872086189060807 0
outer loop
vertex 169.25904211063778 -109.11850109615088 1
vertex 169.46968354679927 -109.0844831042566 1
vertex 169.4696815065366 -109.08448310425658 0
endloop
endfacet
facet normal -0.15943381936574494 0.9872086189060807 0
outer loop
vertex 169.25904211063778 -109.11850109615088 1
vertex 169.4696815065366 -109.08448310425658 0
vertex 169.25904494650598 -109.1185010961509 0
endloop
endfacet
facet normal -0.053332359136859964 0.9985768170095364 0
outer loop
vertex 169.0459706000001 -109.12988146935382 1
vertex 169.25904211063778 -109.11850109615088 1
vertex 169.25904494650598 -109.1185010961509 0
endloop
endfacet
facet normal -0.053332359136859964 0.9985768170095364 0
outer loop
vertex 169.0459706000001 -109.12988146935382 1
vertex 169.25904494650598 -109.1185010961509 0
vertex 169.0459706000002 -109.12988146935385 0
endloop
endfacet
facet normal 0 0 -1
outer loop
vertex 143.04814350000018 -109.12988339013832 1
vertex 157.88844202516333 -109.12988146935382 1
vertex 169.0459706000001 -109.12988146935382 1
endloop
endfacet
facet normal 0 0 -1
outer loop
vertex 143.04814350000018 -109.12988339013832 1
vertex 169.0459706000001 -109.12988146935382 1
vertex 169.0459706000002 -109.12988146935385 0
endloop
endfacet
facet normal 0 0 -1
outer loop
vertex 143.04814350000018 -109.12988339013832 1
vertex 169.0459706000002 -109.12988146935385 0
vertex 169.04583817418956 -109.12988854192852 0
endloop
endfacet
facet normal 0 0 -1
outer loop
vertex 143.04814350000018 -109.12988339013832 1
vertex 169.04583817418956 -109.12988854192852 0
vertex 161.9470711046987 -109.12988146935385 0
endloop
endfacet
facet normal 0 0 -1
outer loop
vertex 143.04814350000018 -109.12988339013832 1
vertex 161.9470711046987 -109.12988146935385 0
vertex 157.88844202516327 -109.12988339013832 0
endloop
endfacet
facet normal 0 0 -1
outer loop
vertex 143.04814350000018 -109.12988339013832 1
vertex 157.88844202516327 -109.12988339013832 0
vertex 147.88052937976283 -109.12988339013832 0
endloop
endfacet
facet normal 0 0 -1
outer loop
vertex 143.04814350000018 -109.12988339013832 1
vertex 147.88052937976283 -109.12988339013832 0
vertex 143.0481435000001 -109.12988339013832 0
endloop
endfacet
facet normal 0.053346992906796245 0.9985760353362194 0
outer loop
vertex 142.8350716039904 -109.11850109615088 1
vertex 143.04814350000018 -109.12988339013832 1
vertex 143.0481435000001 -109.12988339013832 0
endloop
endfacet
facet normal 0.053346992906796245 0.9985760353362194 0
outer loop
vertex 142.8350716039904 -109.11850109615088 1
vertex 143.0481435000001 -109.12988339013832 0
vertex 142.8350716039905 -109.1185010961509 0
endloop
endfacet
facet normal 0.15942764912735194 0.9872096153774669 0
outer loop
vertex 142.6244250261999 -109.0844831042566 1
vertex 142.8350716039904 -109.11850109615088 1
vertex 142.8350716039905 -109.1185010961509 0
endloop
endfacet
facet normal 0.15942764912735194 0.9872096153774669 0
outer loop
vertex 142.6244250261999 -109.0844831042566 1
vertex 142.8350716039905 -109.1185010961509 0
vertex 142.62442502619976 -109.08448310425658 0
endloop
endfacet
facet normal 0.2636936518375139 0.9646064783011754 0
outer loop
vertex 142.41860140940807 -109.02821727734467 1
vertex 142.6244250261999 -109.0844831042566 1
vertex 142.62442502619976 -109.08448310425658 0
endloop
endfacet
facet normal 0.2636936518375139 0.9646064783011754 0
outer loop
vertex 142.41860140940807 -109.02821727734467 1
vertex 142.62442502619976 -109.08448310425658 0
vertex 142.41860140940804 -109.02821727734465 0
endloop
endfacet
facet normal 0.3649473347271346 0.931028164383635 0
outer loop
vertex 142.21994700000008 -108.95034810000003 1
vertex 142.41860140940807 -109.02821727734467 1
vertex 142.41860140940804 -109.02821727734465 0
endloop
endfacet
facet normal 0.3649473347271346 0.931028164383635 0
outer loop
vertex 142.21994700000008 -108.95034810000003 1
vertex 142.41860140940804 -109.02821727734465 0
vertex 142.21994699999988 -108.95034809999996 0
endloop
endfacet
facet normal 0 0 1
outer loop
vertex 126.15504494999979 -101.64189964999991 1
vertex 139.8250200234683 -107.8608176257388 1
vertex 142.21994700000008 -108.95034810000003 1
endloop
endfacet
facet normal 0 0 1
outer loop
vertex 126.15504494999979 -101.64189964999991 1
vertex 142.21994700000008 -108.95034810000003 1
vertex 142.21994699999988 -108.95034809999996 0
endloop
endfacet
facet normal 0 0 1
outer loop
vertex 126.15504494999979 -101.64189964999991 1
vertex 142.21994699999988 -108.95034809999996 0
vertex 139.8250200234683 -107.8608176257388 0
endloop
endfacet
facet normal 0 0 1
outer loop
vertex 126.15504494999979 -101.64189964999991 1
vertex 139.8250200234683 -107.8608176257388 0
vertex 126.1550449500001 -101.64189965000004 0
endloop
endfacet
facet normal 0.37615339060633246 0.9265574060657873 0
outer loop
vertex 126.00206558657705 -101.579794802672 1
vertex 126.15504494999979 -101.64189964999991 1
vertex 126.1550449500001 -101.64189965000004 0
endloop
endfacet
facet normal 0.37615339060633246 0.9265574060657873 0
outer loop
vertex 126.00206558657705 -101.579794802672 1
vertex 126.1550449500001 -101.64189965000004 0
vertex 126.00206558657698 -101.57979480267197 0
endloop
endfacet
facet normal 0.2984576383848892 0.9544228822119233 0
outer loop
vertex 125.84448990000007 -101.53051930000001 1
vertex 126.00206558657705 -101.579794802672 1
vertex 126.00206558657698 -101.57979480267197 0
endloop
endfacet
facet normal 0.2984576383848892 0.9544228822119233 0
outer loop
vertex 125.84448990000007 -101.53051930000001 1
vertex 126.00206558657698 -101.57979480267197 0
vertex 125.84448990000018 -101.53051930000004 0
endloop
endfacet
facet normal 0.25881942327691865 0.9659257249574645 0
outer loop
vertex 102.98204104999971 -95.40453499999992 1
vertex 125.84448990000007 -101.53051930000001 1
vertex 125.84448990000018 -101.53051930000004 0
endloop
endfacet
facet normal 0.25881942327691865 0.9659257249574645 0
outer loop
vertex 102.98204104999971 -95.40453499999992 1
vertex 125.84448990000018 -101.53051930000004 0
vertex 102.98204104999971 -95.40453499999992 0
endloop
endfacet
facet normal 0.21868663842651856 0.9757951394497255 0
outer loop
vertex 102.82093558274525 -95.36842945730797 1
vertex 102.98204104999971 -95.40453499999992 1
vertex 102.98204104999971 -95.40453499999992 0
endloop
endfacet
facet normal 0.21868663842651856 0.9757951394497255 0
outer loop
vertex 102.82093558274525 -95.36842945730797 1
vertex 102.98204104999971 -95.40453499999992 0
vertex 102.82093558274521 -95.36842945730795 0
endloop
endfacet
facet normal 0.1374879934273139 0.9905034334434843 0
outer loop
vertex 102.6574020999992 -95.3457299999999 1
vertex 102.82093558274525 -95.36842945730797 1
vertex 102.82093558274521 -95.36842945730795 0
endloop
endfacet
facet normal 0.1374879934273139 0.9905034334434843 0
outer loop
vertex 102.6574020999992 -95.3457299999999 1
vertex 102.82093558274521 -95.36842945730795 0
vertex 102.65740209999984 -95.34572999999999 0
endloop
endfacet
facet normal 0.09650018721288238 0.9953329663323117 0
outer loop
vertex 68.18226285000011 -92.00327325 1
vertex 102.6574020999992 -95.3457299999999 1
vertex 102.65740209999984 -95.34572999999999 0
endloop
endfacet
facet normal 0.09650018721288238 0.9953329663323117 0
outer loop
vertex 68.18226285000011 -92.00327325 1
vertex 102.65740209999984 -95.34572999999999 0
vertex 68.18226285000007 -92.00327324999999 0
endloop
endfacet
facet normal 0.01856285233330368 0.9998276954121905 0
outer loop
vertex 67.87026758328548 -91.9974807298575 1
vertex 68.18226285000011 -92.00327325 1
vertex 68.18226285000007 -92.00327324999999 0
endloop
endfacet
facet normal 0.01856285233330368 0.9998276954121905 0
outer loop
vertex 67.87026758328548 -91.9974807298575 1
vertex 68.18226285000007 -92.00327324999999 0
vertex 67.87026758328557 -91.99748072985749 0
endloop
endfacet
facet normal -0.1371853063986493 0.9905454011342987 0
outer loop
vertex 67.56116884753577 -92.04028927222487 1
vertex 67.87026758328548 -91.9974807298575 1
vertex 67.87026758328557 -91.99748072985749 0
endloop
endfacet
facet normal -0.1371853063986493 0.9905454011342987 0
outer loop
vertex 67.56116884753577 -92.04028927222487 1
vertex 67.87026758328557 -91.99748072985749 0
vertex 67.56116884753575 -92.04028927222487 0
endloop
endfacet
facet normal -0.2895938740553126 0.9571496163660286 0
outer loop
vertex 67.26249123416883 -92.13065676093255 1
vertex 67.56116884753577 -92.04028927222487 1
vertex 67.56116884753575 -92.04028927222487 0
endloop
endfacet
facet normal -0.2895938740553126 0.9571496163660286 0
outer loop
vertex 67.26249123416883 -92.13065676093255 1
vertex 67.56116884753575 -92.04028927222487 0
vertex 67.26249123416878 -92.13065676093257 0
endloop
endfacet
facet normal -0.4349526698185569 0.9004533164010834 0
outer loop
vertex 66.98150564644854 -92.2663833214698 1
vertex 67.26249123416883 -92.13065676093255 1
vertex 67.26249123416878 -92.13065676093257 0
endloop
endfacet
facet normal -0.4349526698185569 0.9004533164010834 0
outer loop
vertex 66.98150564644854 -92.2663833214698 1
vertex 67.26249123416878 -92.13065676093257 0
vertex 66.98150564644867 -92.26638332146973 0
endloop
endfacet
facet normal -0.569723130049241 0.8218366961184537 0
outer loop
vertex 66.72505229915923 -92.4441649916664 1
vertex 66.98150564644854 -92.2663833214698 1
vertex 66.98150564644867 -92.26638332146973 0
endloop
endfacet
facet normal -0.569723130049241 0.8218366961184537 0
outer loop
vertex 66.72505229915923 -92.4441649916664 1
vertex 66.98150564644867 -92.26638332146973 0
vertex 66.72505229915922 -92.44416499166637 0
endloop
endfacet
facet normal -0.6906244498418607 0.7232135710014209 0
outer loop
vertex 66.49937420281161 -92.65967356652442 1
vertex 66.72505229915923 -92.4441649916664 1
vertex 66.72505229915922 -92.44416499166637 0
endloop
endfacet
facet normal -0.6906244498418607 0.7232135710014209 0
outer loop
vertex 66.49937420281161 -92.65967356652442 1
vertex 66.72505229915922 -92.44416499166637 0
vertex 66.4993742028116 -92.65967356652446 0
endloop
endfacet
facet normal -0.7947134497906923 0.6069847878833348 0
outer loop
vertex 66.30996518598184 -92.90766313099301 1
vertex 66.49937420281161 -92.65967356652442 1
vertex 66.4993742028116 -92.65967356652446 0
endloop
endfacet
facet normal -0.7947134497906923 0.6069847878833348 0
outer loop
vertex 66.30996518598184 -92.90766313099301 1
vertex 66.4993742028116 -92.65967356652446 0
vertex 66.30996518598181 -92.90766313099307 0
endloop
endfacet
facet normal -0.8794562237187884 0.4759797795729231 0
outer loop
vertex 66.16143615546994 -93.1820965962209 1
vertex 66.30996518598184 -92.90766313099301 1
vertex 66.30996518598181 -92.90766313099307 0
endloop
endfacet
facet normal -0.8794562237187884 0.4759797795729231 0
outer loop
vertex 66.16143615546994 -93.1820965962209 1
vertex 66.30996518598181 -92.90766313099307 0
vertex 66.16143615546996 -93.18209659622087 0
endloop
endfacet
facet normal -0.9427938514010725 0.33337629453866735 0
outer loop
vertex 66.0574057 -93.47629650000002 1
vertex 66.16143615546994 -93.1820965962209 1
vertex 66.16143615546996 -93.18209659622087 0
endloop
endfacet
facet normal -0.9427938514010725 0.33337629453866735 0
outer loop
vertex 66.0574057 -93.47629650000002 1
vertex 66.16143615546996 -93.18209659622087 0
vertex 66.05740570000003 -93.47629649999996 0
endloop
endfacet
facet normal 0 0 1
outer loop
vertex 56.29856669999998 -129.89676649999979 1
vertex 61.837484850745916 -109.22525018553391 1
vertex 61.86303693478304 -109.12988854192852 1
endloop
endfacet
facet normal 0 0 1
outer loop
vertex 56.29856669999998 -129.89676649999979 1
vertex 61.86303693478304 -109.12988854192852 1
vertex 62.20308357695014 -107.8608176257388 1
endloop
endfacet
facet normal 0 0 1
outer loop
vertex 56.29856669999998 -129.89676649999979 1
vertex 62.20308357695014 -107.8608176257388 1
vertex 66.0574057 -93.47629650000002 1
endloop
endfacet
facet normal 0 0 1
outer loop
vertex 56.29856669999998 -129.89676649999979 1
vertex 66.0574057 -93.47629650000002 1
vertex 66.05740570000003 -93.47629649999996 0
endloop
endfacet
facet normal 0 0 1
outer loop
vertex 56.29856669999998 -129.89676649999979 1
vertex 66.05740570000003 -93.47629649999996 0
vertex 62.20308357695012 -107.8608176257388 0
endloop
endfacet
facet normal 0 0 1
outer loop
vertex 56.29856669999998 -129.89676649999979 1
vertex 62.20308357695012 -107.8608176257388 0
vertex 61.86303693478302 -109.12988854192852 0
endloop
endfacet
facet normal 0 0 1
outer loop
vertex 56.29856669999998 -129.89676649999979 1
vertex 61.86303693478302 -109.12988854192852 0
vertex 61.837484850745895 -109.2252501855339 0
endloop
endfacet
facet normal 0 0 1
outer loop
vertex 56.29856669999998 -129.89676649999979 1
vertex 61.837484850745895 -109.2252501855339 0
vertex 56.29856669999997 -129.8967665000001 0
endloop
endfacet
facet normal -0.9822165787989787 0.1877514109998371 0
outer loop
vertex 56.2438505576729 -130.1830132124685 1
vertex 56.29856669999998 -129.89676649999979 1
vertex 56.29856669999997 -129.8967665000001 0
endloop
endfacet
facet normal -0.9822165787989787 0.1877514109998371 0
outer loop
vertex 56.2438505576729 -130.1830132124685 1
vertex 56.29856669999997 -129.8967665000001 0
vertex 56.2438505576729 -130.1830132124685 0
endloop
endfacet
facet normal -0.9990744044085365 0.043015514128370555 0
outer loop
vertex 56.23131460398399 -130.47417212848345 1
vertex 56.2438505576729 -130.1830132124685 1
vertex 56.2438505576729 -130.1830132124685 0
endloop
endfacet
facet normal -0.9990744044085365 0.043015514128370555 0
outer loop
vertex 56.23131460398399 -130.47417212848345 1
vertex 56.2438505576729 -130.1830132124685 0
vertex 56.23131460398399 -130.4741721284834 0
endloop
endfacet
facet normal -0.994719216752789 -0.10263371679286593 0
outer loop
vertex 56.26122501065251 -130.7640618179909 1
vertex 56.23131460398399 -130.47417212848345 1
vertex 56.23131460398399 -130.4741721284834 0
endloop
endfacet
facet normal -0.994719216752789 -0.10263371679286593 0
outer loop
vertex 56.26122501065251 -130.7640618179909 1
vertex 56.23131460398399 -130.4741721284834 0
vertex 56.261225010652524 -130.7640618179909 0
endloop
endfacet
facet normal -0.9692455968086079 -0.2460954551939665 0
outer loop
vertex 56.33294339999995 -131.04652325000092 1
vertex 56.26122501065251 -130.7640618179909 1
vertex 56.261225010652524 -130.7640618179909 0
endloop
endfacet
facet normal -0.9692455968086079 -0.2460954551939665 0
outer loop
vertex 56.33294339999995 -131.04652325000092 1
vertex 56.261225010652524 -130.7640618179909 0
vertex 56.33294339999999 -131.04652325000112 0
endloop
endfacet
facet normal -0.9487392392363894 -0.3160598929525182 0
outer loop
vertex 74.73756235 -186.29296515000007 1
vertex 56.33294339999995 -131.04652325000092 1
vertex 56.33294339999999 -131.04652325000112 0
endloop
endfacet
facet normal -0.9487392392363894 -0.3160598929525182 0
outer loop
vertex 74.73756235 -186.29296515000007 1
vertex 56.33294339999999 -131.04652325000112 0
vertex 74.7375623500001 -186.29296515000038 0
endloop
endfacet
endsolid csg.js
